<svg xmlns="http://www.w3.org/2000/svg" xmlns:xlink="http://www.w3.org/1999/xlink" width="500" height="245" viewBox="0 0 500 245">
  <defs>
    <filter id="Trazado_192409" x="0" y="0" width="500" height="245" filterUnits="userSpaceOnUse">
      <feOffset dy="3" input="SourceAlpha"/>
      <feGaussianBlur stdDeviation="3" result="blur"/>
      <feFlood flood-opacity="0.161"/>
      <feComposite operator="in" in2="blur"/>
      <feComposite in="SourceGraphic"/>
    </filter>
  </defs>
  <g id="Grupo_129141" data-name="Grupo 129141" transform="translate(-551 -4073)">
    <g transform="matrix(1, 0, 0, 1, 551, 4073)" filter="url(#Trazado_192409)">
      <path id="Trazado_192409-2" data-name="Trazado 192409" d="M10,0H472a10,10,0,0,1,10,10V217a10,10,0,0,1-10,10H10A10,10,0,0,1,0,217V10A10,10,0,0,1,10,0Z" transform="translate(9 6)" fill="#f6f6f6"/>
    </g>
    <path id="Trazado_192410" data-name="Trazado 192410" d="M170.27,12.992V17h-2.344V5.625h4.438a5.134,5.134,0,0,1,2.254.469,3.454,3.454,0,0,1,1.5,1.332,3.714,3.714,0,0,1,.523,1.965,3.266,3.266,0,0,1-1.145,2.637,4.767,4.767,0,0,1-3.168.965Zm0-1.9h2.094a2.059,2.059,0,0,0,1.418-.437,1.591,1.591,0,0,0,.488-1.25,1.876,1.876,0,0,0-.492-1.352,1.839,1.839,0,0,0-1.359-.531H170.27Zm18.992.078h-6.984V9.328h6.984Zm0,3.383h-6.984V12.711h6.984Zm11.266-.547a1.43,1.43,0,0,0-.355-1.02,3.222,3.222,0,0,0-1.207-.7,14.24,14.24,0,0,1-1.469-.637,4.679,4.679,0,0,1-1.059-.727,2.919,2.919,0,0,1-.687-.965,3.238,3.238,0,0,1-.246-1.32,2.93,2.93,0,0,1,.844-2.164,3.56,3.56,0,0,1,2.242-.984V3.82h1.25v1.7A3.263,3.263,0,0,1,202,6.668a3.8,3.8,0,0,1,.781,2.48h-2.258a2.156,2.156,0,0,0-.387-1.4,1.278,1.278,0,0,0-1.035-.465,1.317,1.317,0,0,0-.992.363,1.383,1.383,0,0,0-.352,1,1.321,1.321,0,0,0,.344.953,3.788,3.788,0,0,0,1.277.734,14.188,14.188,0,0,1,1.535.707,4.431,4.431,0,0,1,1.016.75,2.9,2.9,0,0,1,.633.953,3.277,3.277,0,0,1,.219,1.246,2.917,2.917,0,0,1-.828,2.156,3.632,3.632,0,0,1-2.281.977V18.68h-1.242V17.133A3.758,3.758,0,0,1,195.953,16a3.664,3.664,0,0,1-.879-2.566h2.258a2.077,2.077,0,0,0,.441,1.426,1.61,1.61,0,0,0,1.27.5,1.551,1.551,0,0,0,1.086-.363A1.261,1.261,0,0,0,200.527,14.008ZM212.105,17h-7.8V15.453l3.68-3.922a9.078,9.078,0,0,0,1.121-1.445,2.322,2.322,0,0,0,.363-1.172,1.738,1.738,0,0,0-.383-1.191A1.382,1.382,0,0,0,208,7.289a1.49,1.49,0,0,0-1.207.527,2.089,2.089,0,0,0-.441,1.387h-2.266a3.729,3.729,0,0,1,.5-1.9,3.5,3.5,0,0,1,1.4-1.348,4.262,4.262,0,0,1,2.055-.488,4.036,4.036,0,0,1,2.73.844,2.985,2.985,0,0,1,.973,2.383,3.825,3.825,0,0,1-.437,1.719,9.552,9.552,0,0,1-1.5,2.039l-2.586,2.727h4.891Zm1.594-1.109a1.137,1.137,0,0,1,.363-.875,1.412,1.412,0,0,1,1.828,0,1.137,1.137,0,0,1,.363.875,1.121,1.121,0,0,1-.359.863,1.435,1.435,0,0,1-1.836,0A1.121,1.121,0,0,1,213.7,15.891ZM225.793,12.3a5.762,5.762,0,0,1-.977,3.609,3.9,3.9,0,0,1-5.7.023,5.594,5.594,0,0,1-1.008-3.516V10.32a5.687,5.687,0,0,1,.988-3.617,3.91,3.91,0,0,1,5.691-.012,5.576,5.576,0,0,1,1.008,3.512Zm-2.258-2.3a4.165,4.165,0,0,0-.387-2.061,1.307,1.307,0,0,0-1.207-.645,1.284,1.284,0,0,0-1.176.614,3.9,3.9,0,0,0-.4,1.92v2.768a4.372,4.372,0,0,0,.379,2.068,1.29,1.29,0,0,0,1.215.676,1.268,1.268,0,0,0,1.2-.649,4.268,4.268,0,0,0,.383-1.986Zm11.438,2.3A5.762,5.762,0,0,1,234,15.906a3.9,3.9,0,0,1-5.7.023,5.594,5.594,0,0,1-1.008-3.516V10.32a5.687,5.687,0,0,1,.988-3.617,3.91,3.91,0,0,1,5.691-.012,5.576,5.576,0,0,1,1.008,3.512Zm-2.258-2.3a4.165,4.165,0,0,0-.387-2.061,1.307,1.307,0,0,0-1.207-.645,1.284,1.284,0,0,0-1.176.614,3.9,3.9,0,0,0-.4,1.92v2.768a4.372,4.372,0,0,0,.379,2.068,1.29,1.29,0,0,0,1.215.676,1.268,1.268,0,0,0,1.2-.649,4.268,4.268,0,0,0,.383-1.986Zm11.438,2.3a5.762,5.762,0,0,1-.977,3.609,3.9,3.9,0,0,1-5.7.023,5.594,5.594,0,0,1-1.008-3.516V10.32a5.687,5.687,0,0,1,.988-3.617,3.91,3.91,0,0,1,5.691-.012,5.576,5.576,0,0,1,1.008,3.512Zm-2.258-2.3a4.165,4.165,0,0,0-.387-2.061,1.307,1.307,0,0,0-1.207-.645,1.284,1.284,0,0,0-1.176.614,3.9,3.9,0,0,0-.4,1.92v2.768a4.372,4.372,0,0,0,.379,2.068,1.29,1.29,0,0,0,1.215.676,1.268,1.268,0,0,0,1.2-.649,4.268,4.268,0,0,0,.383-1.986Zm3.992,5.9a1.137,1.137,0,0,1,.363-.875,1.412,1.412,0,0,1,1.828,0,1.137,1.137,0,0,1,.363.875,1.121,1.121,0,0,1-.359.863,1.435,1.435,0,0,1-1.836,0A1.121,1.121,0,0,1,245.887,15.891ZM257.98,12.3A5.763,5.763,0,0,1,257,15.906a3.9,3.9,0,0,1-5.7.023,5.594,5.594,0,0,1-1.008-3.516V10.32a5.687,5.687,0,0,1,.988-3.617,3.91,3.91,0,0,1,5.691-.012A5.576,5.576,0,0,1,257.98,10.2Zm-2.258-2.3a4.165,4.165,0,0,0-.387-2.061,1.307,1.307,0,0,0-1.207-.645,1.284,1.284,0,0,0-1.176.614,3.9,3.9,0,0,0-.4,1.92v2.768a4.372,4.372,0,0,0,.379,2.068,1.29,1.29,0,0,0,1.215.676,1.268,1.268,0,0,0,1.2-.649,4.268,4.268,0,0,0,.383-1.986Zm11.438,2.3a5.763,5.763,0,0,1-.977,3.609,3.9,3.9,0,0,1-5.7.023,5.594,5.594,0,0,1-1.008-3.516V10.32a5.687,5.687,0,0,1,.988-3.617,3.91,3.91,0,0,1,5.691-.012A5.576,5.576,0,0,1,267.16,10.2Zm-2.258-2.3a4.165,4.165,0,0,0-.387-2.061,1.307,1.307,0,0,0-1.207-.645,1.284,1.284,0,0,0-1.176.614,3.9,3.9,0,0,0-.4,1.92v2.768a4.373,4.373,0,0,0,.379,2.068,1.29,1.29,0,0,0,1.215.676,1.268,1.268,0,0,0,1.2-.649A4.268,4.268,0,0,0,264.9,12.7Zm11.438,2.3a5.763,5.763,0,0,1-.977,3.609,3.9,3.9,0,0,1-5.7.023,5.594,5.594,0,0,1-1.008-3.516V10.32a5.687,5.687,0,0,1,.988-3.617,3.91,3.91,0,0,1,5.691-.012A5.576,5.576,0,0,1,276.34,10.2Zm-2.258-2.3a4.165,4.165,0,0,0-.387-2.061,1.307,1.307,0,0,0-1.207-.645,1.284,1.284,0,0,0-1.176.614,3.9,3.9,0,0,0-.4,1.92v2.768a4.373,4.373,0,0,0,.379,2.068,1.29,1.29,0,0,0,1.215.676,1.268,1.268,0,0,0,1.2-.649,4.268,4.268,0,0,0,.383-1.986ZM96.32,38.656H92.211L91.43,41H88.938l4.234-11.375h2.172L99.6,41H97.109Zm-3.477-1.9h2.844L94.258,32.5Zm18.836-1.586H104.7V33.328h6.984Zm0,3.383H104.7V36.711h6.984ZM125.344,41h-7.8V39.453l3.68-3.922a9.078,9.078,0,0,0,1.121-1.445,2.322,2.322,0,0,0,.363-1.172,1.738,1.738,0,0,0-.383-1.191,1.382,1.382,0,0,0-1.094-.434,1.49,1.49,0,0,0-1.207.527,2.089,2.089,0,0,0-.441,1.387H117.32a3.729,3.729,0,0,1,.5-1.9,3.5,3.5,0,0,1,1.4-1.348,4.262,4.262,0,0,1,2.055-.488,4.036,4.036,0,0,1,2.73.844,2.985,2.985,0,0,1,.973,2.383,3.825,3.825,0,0,1-.437,1.719,9.551,9.551,0,0,1-1.5,2.039l-2.586,2.727h4.891Zm1.594-1.109a1.137,1.137,0,0,1,.363-.875,1.412,1.412,0,0,1,1.828,0,1.137,1.137,0,0,1,.363.875,1.121,1.121,0,0,1-.359.863,1.435,1.435,0,0,1-1.836,0A1.121,1.121,0,0,1,126.938,39.891ZM139.031,36.3a5.762,5.762,0,0,1-.977,3.609,3.9,3.9,0,0,1-5.7.023,5.594,5.594,0,0,1-1.008-3.516V34.32a5.687,5.687,0,0,1,.988-3.617,3.91,3.91,0,0,1,5.691-.012,5.576,5.576,0,0,1,1.008,3.512Zm-2.258-2.3a4.165,4.165,0,0,0-.387-2.061,1.307,1.307,0,0,0-1.207-.645A1.284,1.284,0,0,0,134,31.9a3.9,3.9,0,0,0-.4,1.92v2.768a4.372,4.372,0,0,0,.379,2.068,1.29,1.29,0,0,0,1.215.676,1.268,1.268,0,0,0,1.2-.649,4.268,4.268,0,0,0,.383-1.986Zm11.438,2.3a5.762,5.762,0,0,1-.977,3.609,3.9,3.9,0,0,1-5.7.023,5.594,5.594,0,0,1-1.008-3.516V34.32a5.687,5.687,0,0,1,.988-3.617,3.91,3.91,0,0,1,5.691-.012,5.576,5.576,0,0,1,1.008,3.512Zm-2.258-2.3a4.165,4.165,0,0,0-.387-2.061,1.307,1.307,0,0,0-1.207-.645,1.284,1.284,0,0,0-1.176.614,3.9,3.9,0,0,0-.4,1.92v2.768a4.372,4.372,0,0,0,.379,2.068,1.29,1.29,0,0,0,1.215.676,1.268,1.268,0,0,0,1.2-.649,4.268,4.268,0,0,0,.383-1.986Zm11.438,2.3a5.762,5.762,0,0,1-.977,3.609,3.9,3.9,0,0,1-5.7.023,5.594,5.594,0,0,1-1.008-3.516V34.32a5.687,5.687,0,0,1,.988-3.617,3.91,3.91,0,0,1,5.691-.012,5.576,5.576,0,0,1,1.008,3.512Zm-2.258-2.3a4.165,4.165,0,0,0-.387-2.061,1.307,1.307,0,0,0-1.207-.645,1.284,1.284,0,0,0-1.176.614,3.9,3.9,0,0,0-.4,1.92v2.768a4.372,4.372,0,0,0,.379,2.068,1.29,1.29,0,0,0,1.215.676,1.268,1.268,0,0,0,1.2-.649,4.268,4.268,0,0,0,.383-1.986Zm3.992,5.9a1.137,1.137,0,0,1,.363-.875,1.412,1.412,0,0,1,1.828,0,1.137,1.137,0,0,1,.363.875,1.121,1.121,0,0,1-.359.863,1.435,1.435,0,0,1-1.836,0A1.121,1.121,0,0,1,159.125,39.891ZM171.219,36.3a5.762,5.762,0,0,1-.977,3.609,3.9,3.9,0,0,1-5.7.023,5.594,5.594,0,0,1-1.008-3.516V34.32a5.687,5.687,0,0,1,.988-3.617,3.91,3.91,0,0,1,5.691-.012,5.576,5.576,0,0,1,1.008,3.512Zm-2.258-2.3a4.165,4.165,0,0,0-.387-2.061,1.307,1.307,0,0,0-1.207-.645,1.284,1.284,0,0,0-1.176.614,3.9,3.9,0,0,0-.4,1.92v2.768a4.372,4.372,0,0,0,.379,2.068,1.29,1.29,0,0,0,1.215.676,1.268,1.268,0,0,0,1.2-.649,4.268,4.268,0,0,0,.383-1.986ZM180.4,36.3a5.762,5.762,0,0,1-.977,3.609,3.9,3.9,0,0,1-5.7.023,5.594,5.594,0,0,1-1.008-3.516V34.32A5.687,5.687,0,0,1,173.7,30.7a3.91,3.91,0,0,1,5.691-.012A5.576,5.576,0,0,1,180.4,34.2Zm-2.258-2.3a4.165,4.165,0,0,0-.387-2.061,1.307,1.307,0,0,0-1.207-.645,1.284,1.284,0,0,0-1.176.614,3.9,3.9,0,0,0-.4,1.92v2.768a4.372,4.372,0,0,0,.379,2.068,1.29,1.29,0,0,0,1.215.676,1.268,1.268,0,0,0,1.2-.649,4.268,4.268,0,0,0,.383-1.986Zm11.438,2.3a5.762,5.762,0,0,1-.977,3.609,3.9,3.9,0,0,1-5.7.023,5.594,5.594,0,0,1-1.008-3.516V34.32a5.687,5.687,0,0,1,.988-3.617,3.91,3.91,0,0,1,5.691-.012,5.576,5.576,0,0,1,1.008,3.512Zm-2.258-2.3a4.165,4.165,0,0,0-.387-2.061,1.307,1.307,0,0,0-1.207-.645,1.284,1.284,0,0,0-1.176.614,3.9,3.9,0,0,0-.4,1.92v2.768a4.372,4.372,0,0,0,.379,2.068,1.29,1.29,0,0,0,1.215.676,1.268,1.268,0,0,0,1.2-.649,4.268,4.268,0,0,0,.383-1.986Zm30.531,2.38a11.99,11.99,0,0,1,.477-3.406,8.989,8.989,0,0,1,1.406-2.863,5.251,5.251,0,0,1,2.016-1.73l.438,1.219a5.438,5.438,0,0,0-1.781,2.609,12.082,12.082,0,0,0-.641,4.125v.242a12.313,12.313,0,0,0,.633,4.141,5.544,5.544,0,0,0,1.789,2.648l-.437,1.2a5.253,5.253,0,0,1-1.98-1.684,8.838,8.838,0,0,1-1.4-2.785,11.918,11.918,0,0,1-.516-3.3ZM228.758,41H226.5V32.3l-2.7.836V31.3l4.711-1.687h.242Zm12.328-6.367h2.82v2.039h-2.82v3.188h-2.148V36.672h-2.828V34.633h2.828V31.578h2.148ZM256.953,41h-7.8V39.453l3.68-3.922a9.078,9.078,0,0,0,1.121-1.445,2.322,2.322,0,0,0,.363-1.172,1.738,1.738,0,0,0-.383-1.191,1.382,1.382,0,0,0-1.094-.434,1.49,1.49,0,0,0-1.207.527A2.089,2.089,0,0,0,251.2,33.2H248.93a3.729,3.729,0,0,1,.5-1.9,3.5,3.5,0,0,1,1.4-1.348,4.262,4.262,0,0,1,2.055-.488,4.036,4.036,0,0,1,2.73.844,2.985,2.985,0,0,1,.973,2.383,3.825,3.825,0,0,1-.437,1.719,9.552,9.552,0,0,1-1.5,2.039l-2.586,2.727h4.891Zm9.039-4.7a5.763,5.763,0,0,1-.977,3.609,3.9,3.9,0,0,1-5.7.023,5.594,5.594,0,0,1-1.008-3.516V34.32a5.687,5.687,0,0,1,.988-3.617,3.91,3.91,0,0,1,5.691-.012,5.576,5.576,0,0,1,1.008,3.512Zm-2.258-2.3a4.165,4.165,0,0,0-.387-2.061,1.307,1.307,0,0,0-1.207-.645,1.284,1.284,0,0,0-1.176.614,3.9,3.9,0,0,0-.4,1.92v2.768a4.373,4.373,0,0,0,.379,2.068,1.29,1.29,0,0,0,1.215.676,1.268,1.268,0,0,0,1.2-.649,4.268,4.268,0,0,0,.383-1.986Zm7.734-2.182a2.249,2.249,0,0,1,.68-1.7,2.465,2.465,0,0,1,1.781-.652,2.5,2.5,0,0,1,1.8.645,2.292,2.292,0,0,1,.68,1.746v.563a2.221,2.221,0,0,1-.68,1.7,2.806,2.806,0,0,1-3.574,0,2.275,2.275,0,0,1-.684-1.738Zm1.5.6a1.053,1.053,0,0,0,.27.754.928.928,0,0,0,.707.285.885.885,0,0,0,.7-.289,1.119,1.119,0,0,0,.258-.773v-.578a1.1,1.1,0,0,0-.258-.758,1,1,0,0,0-1.406,0,1.118,1.118,0,0,0-.266.793Zm3.938,5.8a2.22,2.22,0,0,1,.688-1.7,2.5,2.5,0,0,1,1.781-.645,2.525,2.525,0,0,1,1.793.637,2.279,2.279,0,0,1,.684,1.754v.563a2.237,2.237,0,0,1-.672,1.691,2.476,2.476,0,0,1-1.789.645,2.506,2.506,0,0,1-1.8-.648,2.265,2.265,0,0,1-.68-1.719Zm1.5.609a1.044,1.044,0,0,0,.281.734.917.917,0,0,0,.7.3q.953,0,.953-1.055v-.594a1.062,1.062,0,0,0-.266-.754,1.009,1.009,0,0,0-1.406,0,1.1,1.1,0,0,0-.266.777Zm-4.016,1.328-1.1-.594,5.555-8.891,1.1.594ZM287.3,36.555a11.377,11.377,0,0,1-.508,3.4,9.225,9.225,0,0,1-1.461,2.883,5.263,5.263,0,0,1-2.039,1.719l-.437-1.2a5.494,5.494,0,0,0,1.75-2.578,11.938,11.938,0,0,0,.664-4.008v-.414a12.209,12.209,0,0,0-.637-4.117,5.727,5.727,0,0,0-1.777-2.672l.438-1.2a5.265,5.265,0,0,1,2,1.672,9.106,9.106,0,0,1,1.461,2.82A11.3,11.3,0,0,1,287.3,36.2Zm5.008-.766h-1.594V31.508l-1.477.32V30.594l2.922-.945h.148Zm7.25,0h-4.844V34.711l2.242-2.008a3.035,3.035,0,0,0,.629-.714,1.145,1.145,0,0,0,.191-.51q0-.659-.742-.659a.813.813,0,0,0-.621.244.861.861,0,0,0-.23.615H294.57a1.992,1.992,0,0,1,.668-1.523,2.438,2.438,0,0,1,1.723-.617,2.791,2.791,0,0,1,1.785.5,1.731,1.731,0,0,1,.629,1.434,1.859,1.859,0,0,1-.281,1,5.192,5.192,0,0,1-1.125,1.133l-1.156.9h2.742Zm7.2-2.309-2.453-.695.461-1.413,2.43.976-.156-2.724h1.531l-.156,2.778,2.367-.96.461,1.428-2.5.695,1.641,2.078-1.242.883-1.422-2.281-1.406,2.2-1.242-.844ZM323.891,41h-7.8V39.453l3.68-3.922a9.077,9.077,0,0,0,1.121-1.445,2.322,2.322,0,0,0,.363-1.172,1.737,1.737,0,0,0-.383-1.191,1.382,1.382,0,0,0-1.094-.434,1.49,1.49,0,0,0-1.207.527,2.089,2.089,0,0,0-.441,1.387h-2.266a3.729,3.729,0,0,1,.5-1.9,3.5,3.5,0,0,1,1.4-1.348,4.262,4.262,0,0,1,2.055-.488,4.036,4.036,0,0,1,2.73.844,2.985,2.985,0,0,1,.973,2.383,3.825,3.825,0,0,1-.437,1.719,9.551,9.551,0,0,1-1.5,2.039L319,39.18h4.891Zm9.039-4.7a5.763,5.763,0,0,1-.977,3.609,3.9,3.9,0,0,1-5.7.023,5.594,5.594,0,0,1-1.008-3.516V34.32a5.687,5.687,0,0,1,.988-3.617,3.91,3.91,0,0,1,5.691-.012A5.576,5.576,0,0,1,332.93,34.2Zm-2.258-2.3a4.165,4.165,0,0,0-.387-2.061,1.307,1.307,0,0,0-1.207-.645,1.284,1.284,0,0,0-1.176.614,3.9,3.9,0,0,0-.4,1.92v2.768a4.373,4.373,0,0,0,.379,2.068,1.29,1.29,0,0,0,1.215.676,1.268,1.268,0,0,0,1.2-.649,4.268,4.268,0,0,0,.383-1.986Zm7.734-2.182a2.249,2.249,0,0,1,.68-1.7,2.465,2.465,0,0,1,1.781-.652,2.5,2.5,0,0,1,1.8.645,2.292,2.292,0,0,1,.68,1.746v.563a2.221,2.221,0,0,1-.68,1.7,2.806,2.806,0,0,1-3.574,0,2.275,2.275,0,0,1-.684-1.738Zm1.5.6a1.053,1.053,0,0,0,.27.754.928.928,0,0,0,.707.285.885.885,0,0,0,.7-.289,1.119,1.119,0,0,0,.258-.773v-.578a1.1,1.1,0,0,0-.258-.758,1,1,0,0,0-1.406,0,1.118,1.118,0,0,0-.266.793Zm3.938,5.8a2.22,2.22,0,0,1,.688-1.7,2.5,2.5,0,0,1,1.781-.645,2.525,2.525,0,0,1,1.793.637,2.279,2.279,0,0,1,.684,1.754v.563a2.237,2.237,0,0,1-.672,1.691,2.476,2.476,0,0,1-1.789.645,2.506,2.506,0,0,1-1.8-.648,2.265,2.265,0,0,1-.68-1.719Zm1.5.609a1.044,1.044,0,0,0,.281.734.917.917,0,0,0,.7.3q.953,0,.953-1.055v-.594a1.062,1.062,0,0,0-.266-.754,1.009,1.009,0,0,0-1.406,0,1.1,1.1,0,0,0-.266.777Zm-4.016,1.328-1.1-.594,5.555-8.891,1.1.594Zm12.906-3.594a11.377,11.377,0,0,1-.508,3.4,9.225,9.225,0,0,1-1.461,2.883,5.263,5.263,0,0,1-2.039,1.719l-.437-1.2a5.494,5.494,0,0,0,1.75-2.578,11.938,11.938,0,0,0,.664-4.008v-.414a12.209,12.209,0,0,0-.637-4.117,5.727,5.727,0,0,0-1.777-2.672l.438-1.2a5.265,5.265,0,0,1,2,1.672,9.106,9.106,0,0,1,1.461,2.82,11.3,11.3,0,0,1,.543,3.336Zm-146.66,23.82a11.99,11.99,0,0,1,.477-3.406,8.989,8.989,0,0,1,1.406-2.863,5.251,5.251,0,0,1,2.016-1.73l.438,1.219a5.438,5.438,0,0,0-1.781,2.609,12.082,12.082,0,0,0-.641,4.125v.242a12.313,12.313,0,0,0,.633,4.141,5.544,5.544,0,0,0,1.789,2.648l-.437,1.2a5.253,5.253,0,0,1-1.98-1.684,8.838,8.838,0,0,1-1.4-2.785,11.918,11.918,0,0,1-.516-3.3ZM218.48,65h-2.258V56.3l-2.7.836V55.3l4.711-1.687h.242Zm12.328-6.367h2.82v2.039h-2.82v3.188H228.66V60.672h-2.828V58.633h2.828V55.578h2.148ZM246.676,65h-7.8V63.453l3.68-3.922a9.078,9.078,0,0,0,1.121-1.445,2.322,2.322,0,0,0,.363-1.172,1.738,1.738,0,0,0-.383-1.191,1.382,1.382,0,0,0-1.094-.434,1.49,1.49,0,0,0-1.207.527,2.089,2.089,0,0,0-.441,1.387h-2.266a3.729,3.729,0,0,1,.5-1.9,3.5,3.5,0,0,1,1.4-1.348,4.262,4.262,0,0,1,2.055-.488,4.036,4.036,0,0,1,2.73.844,2.985,2.985,0,0,1,.973,2.383,3.825,3.825,0,0,1-.437,1.719,9.552,9.552,0,0,1-1.5,2.039l-2.586,2.727h4.891Zm9.039-4.7a5.762,5.762,0,0,1-.977,3.609,3.9,3.9,0,0,1-5.7.023,5.594,5.594,0,0,1-1.008-3.516V58.32a5.687,5.687,0,0,1,.988-3.617,3.91,3.91,0,0,1,5.691-.012,5.576,5.576,0,0,1,1.008,3.512Zm-2.258-2.3a4.165,4.165,0,0,0-.387-2.061,1.307,1.307,0,0,0-1.207-.645,1.284,1.284,0,0,0-1.176.614,3.9,3.9,0,0,0-.4,1.92v2.768a4.372,4.372,0,0,0,.379,2.068,1.29,1.29,0,0,0,1.215.676,1.268,1.268,0,0,0,1.2-.649,4.268,4.268,0,0,0,.383-1.986Zm7.734-2.182a2.249,2.249,0,0,1,.68-1.7,2.465,2.465,0,0,1,1.781-.652,2.5,2.5,0,0,1,1.8.645,2.292,2.292,0,0,1,.68,1.746v.563a2.221,2.221,0,0,1-.68,1.7,2.806,2.806,0,0,1-3.574,0,2.275,2.275,0,0,1-.684-1.738Zm1.5.6a1.053,1.053,0,0,0,.27.754.928.928,0,0,0,.707.285.885.885,0,0,0,.7-.289,1.119,1.119,0,0,0,.258-.773v-.578a1.1,1.1,0,0,0-.258-.758,1,1,0,0,0-1.406,0,1.118,1.118,0,0,0-.266.793Zm3.938,5.8a2.22,2.22,0,0,1,.688-1.7,2.5,2.5,0,0,1,1.781-.645,2.525,2.525,0,0,1,1.793.637,2.279,2.279,0,0,1,.684,1.754v.563a2.237,2.237,0,0,1-.672,1.691,2.476,2.476,0,0,1-1.789.645,2.506,2.506,0,0,1-1.8-.648,2.265,2.265,0,0,1-.68-1.719Zm1.5.609a1.044,1.044,0,0,0,.281.734.917.917,0,0,0,.7.3q.953,0,.953-1.055v-.594a1.062,1.062,0,0,0-.266-.754,1.009,1.009,0,0,0-1.406,0,1.1,1.1,0,0,0-.266.777Zm-4.016,1.328-1.1-.594,5.555-8.891,1.1.594Zm12.906-3.594a11.377,11.377,0,0,1-.508,3.4,9.225,9.225,0,0,1-1.461,2.883,5.263,5.263,0,0,1-2.039,1.719l-.437-1.2a5.494,5.494,0,0,0,1.75-2.578,11.938,11.938,0,0,0,.664-4.008v-.414a12.209,12.209,0,0,0-.637-4.117,5.727,5.727,0,0,0-1.777-2.672l.438-1.2a5.265,5.265,0,0,1,2,1.672,9.106,9.106,0,0,1,1.461,2.82,11.3,11.3,0,0,1,.543,3.336Zm5.008-.766h-1.594V55.508l-1.477.32V54.594l2.922-.945h.148Zm7.25,0h-4.844V58.711l2.242-2.008a3.035,3.035,0,0,0,.629-.714,1.145,1.145,0,0,0,.191-.51q0-.659-.742-.659a.813.813,0,0,0-.621.244.861.861,0,0,0-.23.615h-1.609a1.992,1.992,0,0,1,.668-1.523,2.438,2.438,0,0,1,1.723-.617,2.791,2.791,0,0,1,1.785.5,1.731,1.731,0,0,1,.629,1.434,1.859,1.859,0,0,1-.281,1,5.192,5.192,0,0,1-1.125,1.133l-1.156.9h2.742Zm13.813.555H295V58.5h8.091ZM314.16,65H311.9V56.3l-2.7.836V55.3l4.711-1.687h.242ZM127.473,110.656h-4.109L122.582,113H120.09l4.234-11.375H126.5L130.754,113h-2.492Zm-3.477-1.9h2.844l-1.43-4.258Zm18.836-1.586h-6.984v-1.844h6.984Zm0,3.383h-6.984v-1.844h6.984ZM156.5,113h-7.8v-1.547l3.68-3.922a9.078,9.078,0,0,0,1.121-1.445,2.322,2.322,0,0,0,.363-1.172,1.738,1.738,0,0,0-.383-1.191,1.382,1.382,0,0,0-1.094-.434,1.49,1.49,0,0,0-1.207.527,2.089,2.089,0,0,0-.441,1.387h-2.266a3.729,3.729,0,0,1,.5-1.9,3.5,3.5,0,0,1,1.4-1.348,4.262,4.262,0,0,1,2.055-.488,4.036,4.036,0,0,1,2.73.844,2.985,2.985,0,0,1,.973,2.383,3.825,3.825,0,0,1-.437,1.719,9.552,9.552,0,0,1-1.5,2.039l-2.586,2.727H156.5Zm1.594-1.109a1.137,1.137,0,0,1,.363-.875,1.412,1.412,0,0,1,1.828,0,1.137,1.137,0,0,1,.363.875,1.121,1.121,0,0,1-.359.863,1.435,1.435,0,0,1-1.836,0A1.121,1.121,0,0,1,158.09,111.891Zm12.094-3.594a5.762,5.762,0,0,1-.977,3.609,3.9,3.9,0,0,1-5.7.023,5.594,5.594,0,0,1-1.008-3.516V106.32a5.687,5.687,0,0,1,.988-3.617,3.91,3.91,0,0,1,5.691-.012,5.576,5.576,0,0,1,1.008,3.512Zm-2.258-2.3a4.165,4.165,0,0,0-.387-2.061,1.307,1.307,0,0,0-1.207-.645,1.284,1.284,0,0,0-1.176.614,3.9,3.9,0,0,0-.4,1.92v2.768a4.372,4.372,0,0,0,.379,2.068,1.29,1.29,0,0,0,1.215.676,1.268,1.268,0,0,0,1.2-.649,4.268,4.268,0,0,0,.383-1.986Zm11.438,2.3a5.762,5.762,0,0,1-.977,3.609,3.9,3.9,0,0,1-5.7.023,5.594,5.594,0,0,1-1.008-3.516V106.32a5.687,5.687,0,0,1,.988-3.617,3.91,3.91,0,0,1,5.691-.012,5.576,5.576,0,0,1,1.008,3.512Zm-2.258-2.3a4.165,4.165,0,0,0-.387-2.061,1.307,1.307,0,0,0-1.207-.645,1.284,1.284,0,0,0-1.176.614,3.9,3.9,0,0,0-.4,1.92v2.768a4.372,4.372,0,0,0,.379,2.068,1.29,1.29,0,0,0,1.215.676,1.268,1.268,0,0,0,1.2-.649,4.268,4.268,0,0,0,.383-1.986Zm11.438,2.3a5.762,5.762,0,0,1-.977,3.609,3.9,3.9,0,0,1-5.7.023,5.594,5.594,0,0,1-1.008-3.516V106.32a5.687,5.687,0,0,1,.988-3.617,3.91,3.91,0,0,1,5.691-.012,5.576,5.576,0,0,1,1.008,3.512Zm-2.258-2.3a4.165,4.165,0,0,0-.387-2.061,1.307,1.307,0,0,0-1.207-.645,1.284,1.284,0,0,0-1.176.614,3.9,3.9,0,0,0-.4,1.92v2.768a4.372,4.372,0,0,0,.379,2.068,1.29,1.29,0,0,0,1.215.676,1.268,1.268,0,0,0,1.2-.649,4.268,4.268,0,0,0,.383-1.986Zm3.992,5.9a1.137,1.137,0,0,1,.363-.875,1.412,1.412,0,0,1,1.828,0,1.137,1.137,0,0,1,.363.875,1.121,1.121,0,0,1-.359.863,1.435,1.435,0,0,1-1.836,0A1.121,1.121,0,0,1,190.277,111.891Zm12.094-3.594a5.762,5.762,0,0,1-.977,3.609,3.9,3.9,0,0,1-5.7.023,5.594,5.594,0,0,1-1.008-3.516V106.32a5.687,5.687,0,0,1,.988-3.617,3.91,3.91,0,0,1,5.691-.012,5.576,5.576,0,0,1,1.008,3.512Zm-2.258-2.3a4.165,4.165,0,0,0-.387-2.061,1.307,1.307,0,0,0-1.207-.645,1.284,1.284,0,0,0-1.176.614,3.9,3.9,0,0,0-.4,1.92v2.768a4.372,4.372,0,0,0,.379,2.068,1.29,1.29,0,0,0,1.215.676,1.268,1.268,0,0,0,1.2-.649,4.268,4.268,0,0,0,.383-1.986Zm11.438,2.3a5.762,5.762,0,0,1-.977,3.609,3.9,3.9,0,0,1-5.7.023,5.594,5.594,0,0,1-1.008-3.516V106.32a5.687,5.687,0,0,1,.988-3.617,3.91,3.91,0,0,1,5.691-.012,5.576,5.576,0,0,1,1.008,3.512Zm-2.258-2.3a4.165,4.165,0,0,0-.387-2.061,1.307,1.307,0,0,0-1.207-.645,1.284,1.284,0,0,0-1.176.614,3.9,3.9,0,0,0-.4,1.92v2.768a4.372,4.372,0,0,0,.379,2.068,1.29,1.29,0,0,0,1.215.676,1.268,1.268,0,0,0,1.2-.649,4.268,4.268,0,0,0,.383-1.986Zm11.438,2.3a5.762,5.762,0,0,1-.977,3.609,3.9,3.9,0,0,1-5.7.023,5.594,5.594,0,0,1-1.008-3.516V106.32a5.687,5.687,0,0,1,.988-3.617,3.91,3.91,0,0,1,5.691-.012,5.576,5.576,0,0,1,1.008,3.512Zm-2.258-2.3a4.165,4.165,0,0,0-.387-2.061,1.307,1.307,0,0,0-1.207-.645,1.284,1.284,0,0,0-1.176.614,3.9,3.9,0,0,0-.4,1.92v2.768a4.372,4.372,0,0,0,.379,2.068,1.29,1.29,0,0,0,1.215.676,1.268,1.268,0,0,0,1.2-.649,4.268,4.268,0,0,0,.383-1.986Zm9.656-.514-2.453-.695.461-1.413,2.43.976-.156-2.724h1.531l-.156,2.778,2.367-.96.461,1.428-2.5.695,1.641,2.078-1.242.883-1.422-2.281-1.406,2.2-1.242-.844ZM242.957,113H240.7v-8.7l-2.7.836V103.3l4.711-1.687h.242Zm3.906-1.109a1.137,1.137,0,0,1,.363-.875,1.412,1.412,0,0,1,1.828,0,1.137,1.137,0,0,1,.363.875,1.121,1.121,0,0,1-.359.863,1.435,1.435,0,0,1-1.836,0A1.121,1.121,0,0,1,246.863,111.891Zm12.172-9.005L254.637,113h-2.383l4.406-9.555H251v-1.82h8.031Zm8.859,1.763a2.646,2.646,0,0,1-.414,1.469,2.98,2.98,0,0,1-1.141,1.023,3.3,3.3,0,0,1,1.313,1.1,2.816,2.816,0,0,1,.484,1.645,2.981,2.981,0,0,1-1.031,2.395,4.918,4.918,0,0,1-5.617,0,2.974,2.974,0,0,1-1.039-2.391,2.834,2.834,0,0,1,.484-1.648,3.239,3.239,0,0,1,1.3-1.094,2.95,2.95,0,0,1-1.137-1.023,2.664,2.664,0,0,1-.41-1.469,2.948,2.948,0,0,1,.969-2.316,4.457,4.457,0,0,1,5.262-.008A2.937,2.937,0,0,1,267.895,104.648Zm-2.023,5.07a1.638,1.638,0,0,0-.43-1.187,1.719,1.719,0,0,0-2.3,0,1.853,1.853,0,0,0-.008,2.363,1.762,1.762,0,0,0,2.324.016A1.631,1.631,0,0,0,265.871,109.719Zm-.234-4.961a1.563,1.563,0,0,0-.352-1.066,1.43,1.43,0,0,0-1.977-.012,1.553,1.553,0,0,0-.352,1.078,1.633,1.633,0,0,0,.352,1.094,1.391,1.391,0,0,0,1.98,0A1.645,1.645,0,0,0,265.637,104.758Zm6.32,1.555h1.2a1.7,1.7,0,0,0,1.273-.43,1.575,1.575,0,0,0,.414-1.141,1.392,1.392,0,0,0-.41-1.07,1.59,1.59,0,0,0-1.129-.383,1.666,1.666,0,0,0-1.086.355,1.137,1.137,0,0,0-.437.926h-2.258a2.777,2.777,0,0,1,.48-1.6,3.2,3.2,0,0,1,1.344-1.105,4.485,4.485,0,0,1,1.9-.4,4.253,4.253,0,0,1,2.828.863,2.945,2.945,0,0,1,1.023,2.379,2.393,2.393,0,0,1-.477,1.438,3.1,3.1,0,0,1-1.25,1.008,2.826,2.826,0,0,1,1.434,1.031,2.8,2.8,0,0,1,.473,1.625,2.994,2.994,0,0,1-1.105,2.43,4.445,4.445,0,0,1-2.926.914,4.214,4.214,0,0,1-2.785-.9,2.934,2.934,0,0,1-1.082-2.375h2.258a1.308,1.308,0,0,0,.48,1.047,2,2,0,0,0,2.445-.02,1.47,1.47,0,0,0,.457-1.129q0-1.7-1.875-1.7h-1.2ZM286.637,113h-7.8v-1.547l3.68-3.922a9.077,9.077,0,0,0,1.121-1.445,2.322,2.322,0,0,0,.363-1.172,1.737,1.737,0,0,0-.383-1.191,1.382,1.382,0,0,0-1.094-.434,1.49,1.49,0,0,0-1.207.527,2.089,2.089,0,0,0-.441,1.387h-2.266a3.729,3.729,0,0,1,.5-1.9,3.5,3.5,0,0,1,1.4-1.348,4.262,4.262,0,0,1,2.055-.488,4.036,4.036,0,0,1,2.73.844,2.985,2.985,0,0,1,.973,2.383,3.825,3.825,0,0,1-.437,1.719,9.551,9.551,0,0,1-1.5,2.039l-2.586,2.727h4.891Zm9.18,0h-7.8v-1.547l3.68-3.922a9.077,9.077,0,0,0,1.121-1.445,2.322,2.322,0,0,0,.363-1.172,1.737,1.737,0,0,0-.383-1.191,1.382,1.382,0,0,0-1.094-.434,1.49,1.49,0,0,0-1.207.527,2.089,2.089,0,0,0-.441,1.387h-2.266a3.729,3.729,0,0,1,.5-1.9,3.5,3.5,0,0,1,1.4-1.348,4.262,4.262,0,0,1,2.055-.488,4.036,4.036,0,0,1,2.73.844,2.985,2.985,0,0,1,.973,2.383,3.825,3.825,0,0,1-.437,1.719,9.551,9.551,0,0,1-1.5,2.039l-2.586,2.727h4.891Zm9.039-4.7a5.763,5.763,0,0,1-.977,3.609,3.9,3.9,0,0,1-5.7.023,5.594,5.594,0,0,1-1.008-3.516V106.32a5.687,5.687,0,0,1,.988-3.617,3.91,3.91,0,0,1,5.691-.012,5.576,5.576,0,0,1,1.008,3.512Zm-2.258-2.3a4.165,4.165,0,0,0-.387-2.061,1.307,1.307,0,0,0-1.207-.645,1.284,1.284,0,0,0-1.176.614,3.9,3.9,0,0,0-.4,1.92v2.768a4.373,4.373,0,0,0,.379,2.068,1.29,1.29,0,0,0,1.215.676,1.268,1.268,0,0,0,1.2-.649,4.268,4.268,0,0,0,.383-1.986Zm11.438,2.3a5.763,5.763,0,0,1-.977,3.609,3.9,3.9,0,0,1-5.7.023,5.594,5.594,0,0,1-1.008-3.516V106.32a5.687,5.687,0,0,1,.988-3.617,3.91,3.91,0,0,1,5.691-.012,5.576,5.576,0,0,1,1.008,3.512Zm-2.258-2.3a4.165,4.165,0,0,0-.387-2.061,1.307,1.307,0,0,0-1.207-.645,1.284,1.284,0,0,0-1.176.614,3.9,3.9,0,0,0-.4,1.92v2.768a4.373,4.373,0,0,0,.379,2.068,1.29,1.29,0,0,0,1.215.676,1.268,1.268,0,0,0,1.2-.649,4.268,4.268,0,0,0,.383-1.986Zm9.063,2.458a2.851,2.851,0,0,1-2.062.867,3.049,3.049,0,0,1-2.414-1.035,4.091,4.091,0,0,1-.906-2.793,4.357,4.357,0,0,1,.488-2.051,3.582,3.582,0,0,1,1.363-1.453,3.782,3.782,0,0,1,1.969-.52,3.617,3.617,0,0,1,2,.563,3.7,3.7,0,0,1,1.359,1.617,5.807,5.807,0,0,1,.492,2.414v.836a6.579,6.579,0,0,1-1.414,4.469,5.346,5.346,0,0,1-4.008,1.734l-.555.008v-1.883l.5-.008Q320.6,111.086,320.84,108.453Zm-1.508-.859a1.579,1.579,0,0,0,.941-.281,1.879,1.879,0,0,0,.6-.68v-.93a3.1,3.1,0,0,0-.437-1.781,1.358,1.358,0,0,0-1.172-.633,1.318,1.318,0,0,0-1.117.621,2.641,2.641,0,0,0-.437,1.559,2.57,2.57,0,0,0,.426,1.527A1.387,1.387,0,0,0,319.332,107.594Zm-80.66,19.292L234.273,137h-2.383l4.406-9.555h-5.656v-1.82h8.031Zm1.656,9.005a1.137,1.137,0,0,1,.363-.875,1.412,1.412,0,0,1,1.828,0,1.137,1.137,0,0,1,.363.875,1.121,1.121,0,0,1-.359.863,1.435,1.435,0,0,1-1.836,0A1.121,1.121,0,0,1,240.328,135.891Zm9.719-3.437a2.851,2.851,0,0,1-2.062.867,3.049,3.049,0,0,1-2.414-1.035,4.091,4.091,0,0,1-.906-2.793,4.357,4.357,0,0,1,.488-2.051,3.582,3.582,0,0,1,1.363-1.453,3.782,3.782,0,0,1,1.969-.52,3.617,3.617,0,0,1,2,.563,3.7,3.7,0,0,1,1.359,1.617,5.806,5.806,0,0,1,.492,2.414v.836a6.58,6.58,0,0,1-1.414,4.469,5.346,5.346,0,0,1-4.008,1.734l-.555.008v-1.883l.5-.008Q249.8,135.086,250.047,132.453Zm-1.508-.859a1.579,1.579,0,0,0,.941-.281,1.879,1.879,0,0,0,.6-.68v-.93a3.1,3.1,0,0,0-.437-1.781,1.358,1.358,0,0,0-1.172-.633,1.318,1.318,0,0,0-1.117.621,2.641,2.641,0,0,0-.437,1.559A2.57,2.57,0,0,0,247.34,131,1.387,1.387,0,0,0,248.539,131.594Zm13.141-4.708L257.281,137H254.9l4.406-9.555h-5.656v-1.82h8.031Zm7.57-1.377v1.859h-.219a3.836,3.836,0,0,0-2.465.8,3.238,3.238,0,0,0-1.121,2.148,3.075,3.075,0,0,1,2.289-.922,2.9,2.9,0,0,1,2.359,1.063,4.259,4.259,0,0,1,.875,2.8,4.19,4.19,0,0,1-.48,2.008,3.446,3.446,0,0,1-1.359,1.4,3.949,3.949,0,0,1-1.988.5,3.689,3.689,0,0,1-2.9-1.25,4.852,4.852,0,0,1-1.105-3.336v-.812a7.3,7.3,0,0,1,.7-3.27,5.127,5.127,0,0,1,2.008-2.2,5.884,5.884,0,0,1,3.035-.785Zm-2.2,5.7a1.8,1.8,0,0,0-.992.285,1.715,1.715,0,0,0-.656.753v.686a3.04,3.04,0,0,0,.445,1.766,1.439,1.439,0,0,0,1.25.635,1.423,1.423,0,0,0,1.176-.573,2.69,2.69,0,0,0,0-2.983A1.477,1.477,0,0,0,267.047,131.211Zm12.992-4.326L275.641,137h-2.383l4.406-9.555h-5.656v-1.82h8.031Zm9.1,5.412a5.763,5.763,0,0,1-.977,3.609,3.9,3.9,0,0,1-5.7.023,5.594,5.594,0,0,1-1.008-3.516V130.32a5.687,5.687,0,0,1,.988-3.617,3.91,3.91,0,0,1,5.691-.012,5.576,5.576,0,0,1,1.008,3.512Zm-2.258-2.3a4.165,4.165,0,0,0-.387-2.061,1.307,1.307,0,0,0-1.207-.645,1.284,1.284,0,0,0-1.176.614,3.9,3.9,0,0,0-.4,1.92v2.768a4.373,4.373,0,0,0,.379,2.068,1.29,1.29,0,0,0,1.215.676,1.268,1.268,0,0,0,1.2-.649,4.268,4.268,0,0,0,.383-1.986Zm11.438,2.3a5.763,5.763,0,0,1-.977,3.609,3.9,3.9,0,0,1-5.7.023,5.594,5.594,0,0,1-1.008-3.516V130.32a5.687,5.687,0,0,1,.988-3.617,3.91,3.91,0,0,1,5.691-.012,5.576,5.576,0,0,1,1.008,3.512Zm-2.258-2.3a4.165,4.165,0,0,0-.387-2.061,1.307,1.307,0,0,0-1.207-.645,1.284,1.284,0,0,0-1.176.614,3.9,3.9,0,0,0-.4,1.92v2.768a4.373,4.373,0,0,0,.379,2.068,1.29,1.29,0,0,0,1.215.676,1.268,1.268,0,0,0,1.2-.649,4.268,4.268,0,0,0,.383-1.986Zm10.461,2.724h1.289v1.82h-1.289V137h-2.258v-2.461H299.6l-.1-1.422,4.742-7.492h2.281Zm-4.773,0h2.516V128.7l-.148.258Zm7.609-1.312.656-5.781h6.375v1.883h-4.523l-.281,2.445a3.58,3.58,0,0,1,1.711-.43,3.279,3.279,0,0,1,2.547,1.008,4.026,4.026,0,0,1,.922,2.82,4.124,4.124,0,0,1-.465,1.973,3.281,3.281,0,0,1-1.332,1.352,4.158,4.158,0,0,1-2.047.48,4.416,4.416,0,0,1-1.914-.418,3.4,3.4,0,0,1-1.395-1.176,3.2,3.2,0,0,1-.543-1.727H311.3a1.669,1.669,0,0,0,.5,1.105,1.573,1.573,0,0,0,1.113.395,1.388,1.388,0,0,0,1.18-.551,2.552,2.552,0,0,0,.414-1.559,2.11,2.11,0,0,0-.477-1.484,1.749,1.749,0,0,0-1.352-.516,1.954,1.954,0,0,0-1.3.422l-.219.2Zm-137.5,51.25H167.75L166.969,185h-2.492l4.234-11.375h2.172L175.141,185h-2.492Zm-3.477-1.9h2.844L169.8,176.5Zm18.836-1.586h-6.984v-1.844h6.984Zm0,3.383h-6.984v-1.844h6.984ZM200.883,185h-7.8v-1.547l3.68-3.922a9.078,9.078,0,0,0,1.121-1.445,2.322,2.322,0,0,0,.363-1.172,1.738,1.738,0,0,0-.383-1.191,1.382,1.382,0,0,0-1.094-.434,1.49,1.49,0,0,0-1.207.527,2.089,2.089,0,0,0-.441,1.387h-2.266a3.729,3.729,0,0,1,.5-1.9,3.5,3.5,0,0,1,1.4-1.348,4.262,4.262,0,0,1,2.055-.488,4.036,4.036,0,0,1,2.73.844,2.985,2.985,0,0,1,.973,2.383,3.825,3.825,0,0,1-.437,1.719,9.552,9.552,0,0,1-1.5,2.039l-2.586,2.727h4.891ZM210,174.885,205.6,185h-2.383l4.406-9.555h-5.656v-1.82H210Zm9.1,5.412a5.762,5.762,0,0,1-.977,3.609,3.9,3.9,0,0,1-5.7.023,5.594,5.594,0,0,1-1.008-3.516V178.32a5.687,5.687,0,0,1,.988-3.617,3.91,3.91,0,0,1,5.691-.012A5.576,5.576,0,0,1,219.1,178.2Zm-2.258-2.3a4.165,4.165,0,0,0-.387-2.061,1.307,1.307,0,0,0-1.207-.645,1.284,1.284,0,0,0-1.176.614,3.9,3.9,0,0,0-.4,1.92v2.768a4.372,4.372,0,0,0,.379,2.068,1.29,1.29,0,0,0,1.215.676,1.268,1.268,0,0,0,1.2-.649,4.268,4.268,0,0,0,.383-1.986Zm6.078.318h1.2a1.7,1.7,0,0,0,1.273-.43,1.574,1.574,0,0,0,.414-1.141,1.392,1.392,0,0,0-.41-1.07,1.59,1.59,0,0,0-1.129-.383,1.666,1.666,0,0,0-1.086.355,1.137,1.137,0,0,0-.437.926h-2.258a2.777,2.777,0,0,1,.48-1.6,3.2,3.2,0,0,1,1.344-1.105,4.485,4.485,0,0,1,1.9-.4,4.253,4.253,0,0,1,2.828.863,2.945,2.945,0,0,1,1.023,2.379,2.394,2.394,0,0,1-.477,1.438,3.1,3.1,0,0,1-1.25,1.008,2.826,2.826,0,0,1,1.434,1.031,2.8,2.8,0,0,1,.473,1.625,2.994,2.994,0,0,1-1.105,2.43,4.445,4.445,0,0,1-2.926.914,4.214,4.214,0,0,1-2.785-.9,2.934,2.934,0,0,1-1.082-2.375h2.258a1.308,1.308,0,0,0,.48,1.047,2,2,0,0,0,2.445-.02,1.47,1.47,0,0,0,.457-1.129q0-1.7-1.875-1.7h-1.2Zm13.008-4.8v1.859h-.219a3.836,3.836,0,0,0-2.465.8,3.238,3.238,0,0,0-1.121,2.148,3.075,3.075,0,0,1,2.289-.922,2.9,2.9,0,0,1,2.359,1.063,4.259,4.259,0,0,1,.875,2.8,4.19,4.19,0,0,1-.48,2.008,3.446,3.446,0,0,1-1.359,1.4,3.949,3.949,0,0,1-1.988.5,3.689,3.689,0,0,1-2.9-1.25,4.852,4.852,0,0,1-1.105-3.336v-.812a7.3,7.3,0,0,1,.7-3.27,5.127,5.127,0,0,1,2.008-2.2,5.883,5.883,0,0,1,3.035-.785Zm-2.2,5.7a1.8,1.8,0,0,0-.992.285,1.715,1.715,0,0,0-.656.753v.686a3.04,3.04,0,0,0,.445,1.766,1.439,1.439,0,0,0,1.25.635,1.423,1.423,0,0,0,1.176-.573,2.69,2.69,0,0,0,0-2.983A1.477,1.477,0,0,0,233.727,179.211Zm12.992-4.326L242.32,185h-2.383l4.406-9.555h-5.656v-1.82h8.031Zm1.656,9.005a1.137,1.137,0,0,1,.363-.875,1.412,1.412,0,0,1,1.828,0,1.137,1.137,0,0,1,.363.875,1.121,1.121,0,0,1-.359.863,1.435,1.435,0,0,1-1.836,0A1.121,1.121,0,0,1,248.375,183.891Zm9.719-3.437a2.851,2.851,0,0,1-2.062.867,3.049,3.049,0,0,1-2.414-1.035,4.091,4.091,0,0,1-.906-2.793,4.357,4.357,0,0,1,.488-2.051,3.582,3.582,0,0,1,1.363-1.453,3.782,3.782,0,0,1,1.969-.52,3.617,3.617,0,0,1,2,.563,3.7,3.7,0,0,1,1.359,1.617,5.807,5.807,0,0,1,.492,2.414v.836a6.579,6.579,0,0,1-1.414,4.469,5.346,5.346,0,0,1-4.008,1.734l-.555.008v-1.883l.5-.008Q257.852,183.086,258.094,180.453Zm-1.508-.859a1.579,1.579,0,0,0,.941-.281,1.879,1.879,0,0,0,.6-.68v-.93a3.1,3.1,0,0,0-.437-1.781,1.358,1.358,0,0,0-1.172-.633,1.318,1.318,0,0,0-1.117.621,2.641,2.641,0,0,0-.437,1.559,2.57,2.57,0,0,0,.426,1.527A1.387,1.387,0,0,0,256.586,179.594Zm7.7-1.281h1.2a1.7,1.7,0,0,0,1.273-.43,1.575,1.575,0,0,0,.414-1.141,1.392,1.392,0,0,0-.41-1.07,1.59,1.59,0,0,0-1.129-.383,1.666,1.666,0,0,0-1.086.355,1.137,1.137,0,0,0-.437.926h-2.258a2.777,2.777,0,0,1,.48-1.6,3.2,3.2,0,0,1,1.344-1.105,4.485,4.485,0,0,1,1.9-.4,4.253,4.253,0,0,1,2.828.863,2.945,2.945,0,0,1,1.023,2.379,2.393,2.393,0,0,1-.477,1.438,3.1,3.1,0,0,1-1.25,1.008,2.826,2.826,0,0,1,1.434,1.031,2.8,2.8,0,0,1,.473,1.625,2.994,2.994,0,0,1-1.105,2.43,4.445,4.445,0,0,1-2.926.914,4.214,4.214,0,0,1-2.785-.9,2.934,2.934,0,0,1-1.082-2.375h2.258a1.308,1.308,0,0,0,.48,1.047,2,2,0,0,0,2.445-.02,1.47,1.47,0,0,0,.457-1.129q0-1.7-1.875-1.7h-1.2Zm13.563,2.406h1.289v1.82h-1.289V185h-2.258v-2.461H270.93l-.1-1.422,4.742-7.492h2.281Zm-4.773,0h2.516V176.7l-.148.258Z" transform="translate(579 4099)" fill="#12263f"/>
  </g>
</svg>
