<svg xmlns="http://www.w3.org/2000/svg" xmlns:xlink="http://www.w3.org/1999/xlink" width="500" height="101" viewBox="0 0 500 101">
  <defs>
    <filter id="Trazado_191614" x="0" y="0" width="500" height="101" filterUnits="userSpaceOnUse">
      <feOffset dy="3" input="SourceAlpha"/>
      <feGaussianBlur stdDeviation="3" result="blur"/>
      <feFlood flood-opacity="0.161"/>
      <feComposite operator="in" in2="blur"/>
      <feComposite in="SourceGraphic"/>
    </filter>
  </defs>
  <g id="Grupo_128960" data-name="Grupo 128960" transform="translate(8761 7613)">
    <g id="Grupo_128404" data-name="Grupo 128404" transform="translate(-11 231)">
      <g transform="matrix(1, 0, 0, 1, -8750, -7844)" filter="url(#Trazado_191614)">
        <path id="Trazado_191614-2" data-name="Trazado 191614" d="M20,0H462a20,20,0,0,1,20,20V63a20,20,0,0,1-20,20H20A20,20,0,0,1,0,63V20A20,20,0,0,1,20,0Z" transform="translate(9 6)" fill="#f6f6f6"/>
      </g>
    </g>
    <path id="Trazado_191622" data-name="Trazado 191622" d="M-128.759-4.008V0H-131.1V-11.375h4.438a5.134,5.134,0,0,1,2.254.469,3.454,3.454,0,0,1,1.5,1.332,3.714,3.714,0,0,1,.523,1.965,3.266,3.266,0,0,1-1.145,2.637,4.767,4.767,0,0,1-3.168.965Zm0-1.9h2.094a2.059,2.059,0,0,0,1.418-.437,1.591,1.591,0,0,0,.488-1.25,1.876,1.876,0,0,0-.492-1.352,1.839,1.839,0,0,0-1.359-.531h-2.148Zm22.977.078h-6.984V-7.672h6.984Zm0,3.383h-6.984V-4.289h6.984Zm10.188-3.148.656-5.781h6.375v1.883h-4.523l-.281,2.445a3.58,3.58,0,0,1,1.711-.43A3.279,3.279,0,0,1-89.11-6.469a4.026,4.026,0,0,1,.922,2.82,4.124,4.124,0,0,1-.465,1.973A3.281,3.281,0,0,1-89.985-.324a4.158,4.158,0,0,1-2.047.48,4.416,4.416,0,0,1-1.914-.418,3.4,3.4,0,0,1-1.395-1.176,3.2,3.2,0,0,1-.543-1.727h2.234a1.669,1.669,0,0,0,.5,1.105,1.573,1.573,0,0,0,1.113.395,1.388,1.388,0,0,0,1.18-.551,2.551,2.551,0,0,0,.414-1.559,2.11,2.11,0,0,0-.477-1.484,1.749,1.749,0,0,0-1.352-.516,1.954,1.954,0,0,0-1.3.422l-.219.2Zm9.055,4.484a1.137,1.137,0,0,1,.363-.875,1.289,1.289,0,0,1,.91-.336,1.3,1.3,0,0,1,.918.336,1.137,1.137,0,0,1,.363.875,1.121,1.121,0,0,1-.359.863,1.305,1.305,0,0,1-.922.332,1.294,1.294,0,0,1-.914-.332A1.121,1.121,0,0,1-86.54-1.109ZM-74.446-4.7a5.763,5.763,0,0,1-.977,3.609A3.409,3.409,0,0,1-78.282.156,3.433,3.433,0,0,1-81.126-1.07a5.594,5.594,0,0,1-1.008-3.516V-6.68a5.687,5.687,0,0,1,.988-3.617A3.434,3.434,0,0,1-78.3-11.531a3.437,3.437,0,0,1,2.844,1.223A5.576,5.576,0,0,1-74.446-6.8Zm-2.258-2.3a4.165,4.165,0,0,0-.387-2.061A1.307,1.307,0,0,0-78.3-9.711a1.284,1.284,0,0,0-1.176.614,3.9,3.9,0,0,0-.4,1.92v2.768A4.373,4.373,0,0,0-79.5-2.341a1.29,1.29,0,0,0,1.215.676,1.268,1.268,0,0,0,1.2-.649A4.268,4.268,0,0,0-76.7-4.3Zm11.438,2.3a5.763,5.763,0,0,1-.977,3.609A3.409,3.409,0,0,1-69.1.156,3.433,3.433,0,0,1-71.946-1.07a5.594,5.594,0,0,1-1.008-3.516V-6.68a5.687,5.687,0,0,1,.988-3.617,3.434,3.434,0,0,1,2.848-1.234,3.437,3.437,0,0,1,2.844,1.223A5.576,5.576,0,0,1-65.267-6.8Zm-2.258-2.3a4.165,4.165,0,0,0-.387-2.061,1.307,1.307,0,0,0-1.207-.645,1.284,1.284,0,0,0-1.176.614,3.9,3.9,0,0,0-.4,1.92v2.768a4.373,4.373,0,0,0,.379,2.068,1.29,1.29,0,0,0,1.215.676,1.268,1.268,0,0,0,1.2-.649A4.268,4.268,0,0,0-67.524-4.3Zm11.438,2.3a5.762,5.762,0,0,1-.977,3.609A3.409,3.409,0,0,1-59.923.156,3.433,3.433,0,0,1-62.767-1.07a5.594,5.594,0,0,1-1.008-3.516V-6.68a5.687,5.687,0,0,1,.988-3.617,3.434,3.434,0,0,1,2.848-1.234,3.437,3.437,0,0,1,2.844,1.223A5.576,5.576,0,0,1-56.087-6.8Zm-2.258-2.3a4.165,4.165,0,0,0-.387-2.061,1.307,1.307,0,0,0-1.207-.645,1.284,1.284,0,0,0-1.176.614,3.9,3.9,0,0,0-.4,1.92v2.768a4.372,4.372,0,0,0,.379,2.068,1.29,1.29,0,0,0,1.215.676,1.268,1.268,0,0,0,1.2-.649A4.268,4.268,0,0,0-58.345-4.3Zm3.992,5.9a1.137,1.137,0,0,1,.363-.875,1.289,1.289,0,0,1,.91-.336,1.3,1.3,0,0,1,.918.336,1.137,1.137,0,0,1,.363.875,1.121,1.121,0,0,1-.359.863,1.305,1.305,0,0,1-.922.332,1.294,1.294,0,0,1-.914-.332A1.121,1.121,0,0,1-54.352-1.109ZM-42.259-4.7a5.762,5.762,0,0,1-.977,3.609A3.409,3.409,0,0,1-46.095.156,3.433,3.433,0,0,1-48.938-1.07a5.594,5.594,0,0,1-1.008-3.516V-6.68a5.687,5.687,0,0,1,.988-3.617,3.434,3.434,0,0,1,2.848-1.234,3.437,3.437,0,0,1,2.844,1.223A5.576,5.576,0,0,1-42.259-6.8Zm-2.258-2.3A4.165,4.165,0,0,0-44.9-9.066a1.307,1.307,0,0,0-1.207-.645,1.284,1.284,0,0,0-1.176.614,3.9,3.9,0,0,0-.4,1.92v2.768a4.372,4.372,0,0,0,.379,2.068,1.29,1.29,0,0,0,1.215.676,1.268,1.268,0,0,0,1.2-.649A4.268,4.268,0,0,0-44.517-4.3Zm11.438,2.3a5.762,5.762,0,0,1-.977,3.609A3.409,3.409,0,0,1-36.915.156,3.433,3.433,0,0,1-39.759-1.07a5.594,5.594,0,0,1-1.008-3.516V-6.68a5.687,5.687,0,0,1,.988-3.617,3.434,3.434,0,0,1,2.848-1.234,3.437,3.437,0,0,1,2.844,1.223A5.576,5.576,0,0,1-33.079-6.8Zm-2.258-2.3a4.165,4.165,0,0,0-.387-2.061,1.307,1.307,0,0,0-1.207-.645,1.284,1.284,0,0,0-1.176.614,3.9,3.9,0,0,0-.4,1.92v2.768a4.372,4.372,0,0,0,.379,2.068,1.29,1.29,0,0,0,1.215.676,1.268,1.268,0,0,0,1.2-.649A4.268,4.268,0,0,0-35.337-4.3ZM-23.9-4.7a5.763,5.763,0,0,1-.977,3.609A3.409,3.409,0,0,1-27.735.156,3.433,3.433,0,0,1-30.579-1.07a5.594,5.594,0,0,1-1.008-3.516V-6.68A5.687,5.687,0,0,1-30.6-10.3a3.434,3.434,0,0,1,2.848-1.234,3.437,3.437,0,0,1,2.844,1.223A5.576,5.576,0,0,1-23.9-6.8Zm-2.258-2.3a4.165,4.165,0,0,0-.387-2.061,1.307,1.307,0,0,0-1.207-.645,1.284,1.284,0,0,0-1.176.614,3.9,3.9,0,0,0-.4,1.92v2.768a4.373,4.373,0,0,0,.379,2.068,1.29,1.29,0,0,0,1.215.676,1.268,1.268,0,0,0,1.2-.649A4.268,4.268,0,0,0-26.157-4.3ZM-16.5-7.52l-2.453-.695.461-1.413,2.43.976-.156-2.724h1.531L-14.845-8.6l2.367-.96.461,1.428-2.5.695,1.641,2.078-1.242.883L-15.54-6.754l-1.406,2.2-1.242-.844Zm9.539,2.895a11.99,11.99,0,0,1,.477-3.406,8.989,8.989,0,0,1,1.406-2.863,5.251,5.251,0,0,1,2.016-1.73l.438,1.219A5.438,5.438,0,0,0-4.407-8.8a12.082,12.082,0,0,0-.641,4.125v.242A12.313,12.313,0,0,0-4.415-.289,5.544,5.544,0,0,0-2.626,2.359l-.437,1.2a5.253,5.253,0,0,1-1.98-1.684,8.838,8.838,0,0,1-1.4-2.785,11.918,11.918,0,0,1-.516-3.3Zm5.617,0A11.99,11.99,0,0,1-.868-8.031,8.989,8.989,0,0,1,.538-10.895a5.251,5.251,0,0,1,2.016-1.73l.438,1.219A5.438,5.438,0,0,0,1.21-8.8,12.082,12.082,0,0,0,.569-4.672v.242A12.313,12.313,0,0,0,1.2-.289,5.544,5.544,0,0,0,2.991,2.359l-.437,1.2A5.253,5.253,0,0,1,.573,1.871,8.838,8.838,0,0,1-.829-.914a11.918,11.918,0,0,1-.516-3.3ZM13.546,0H11.288V-8.7l-2.7.836V-9.7L13.3-11.391h.242ZM25.874-6.367h2.82v2.039h-2.82v3.188H23.726V-4.328H20.9V-6.367h2.828V-9.422h2.148ZM39.429,0H37.171V-8.7l-2.7.836V-9.7l4.711-1.687h.242ZM50.78-4.7A5.762,5.762,0,0,1,49.8-1.094,3.409,3.409,0,0,1,46.944.156,3.433,3.433,0,0,1,44.1-1.07a5.594,5.594,0,0,1-1.008-3.516V-6.68a5.687,5.687,0,0,1,.988-3.617,3.434,3.434,0,0,1,2.848-1.234,3.437,3.437,0,0,1,2.844,1.223A5.576,5.576,0,0,1,50.78-6.8Zm-2.258-2.3a4.165,4.165,0,0,0-.387-2.061,1.307,1.307,0,0,0-1.207-.645,1.284,1.284,0,0,0-1.176.614,3.9,3.9,0,0,0-.4,1.92v2.768a4.372,4.372,0,0,0,.379,2.068,1.29,1.29,0,0,0,1.215.676,1.268,1.268,0,0,0,1.2-.649A4.268,4.268,0,0,0,48.523-4.3Zm7.734-2.182a2.249,2.249,0,0,1,.68-1.7,2.465,2.465,0,0,1,1.781-.652,2.5,2.5,0,0,1,1.8.645,2.292,2.292,0,0,1,.68,1.746v.563a2.221,2.221,0,0,1-.68,1.7,2.491,2.491,0,0,1-1.781.641,2.507,2.507,0,0,1-1.793-.645,2.275,2.275,0,0,1-.684-1.738Zm1.5.6a1.053,1.053,0,0,0,.27.754.928.928,0,0,0,.707.285.885.885,0,0,0,.7-.289,1.119,1.119,0,0,0,.258-.773v-.578a1.1,1.1,0,0,0-.258-.758.9.9,0,0,0-.711-.289.906.906,0,0,0-.7.285,1.119,1.119,0,0,0-.266.793Zm3.938,5.8a2.22,2.22,0,0,1,.688-1.7,2.5,2.5,0,0,1,1.781-.645,2.525,2.525,0,0,1,1.793.637,2.279,2.279,0,0,1,.684,1.754v.563a2.237,2.237,0,0,1-.672,1.691,2.476,2.476,0,0,1-1.789.645,2.506,2.506,0,0,1-1.8-.648,2.265,2.265,0,0,1-.68-1.719Zm1.5.609a1.044,1.044,0,0,0,.281.734.917.917,0,0,0,.7.3q.953,0,.953-1.055v-.594a1.062,1.062,0,0,0-.266-.754.916.916,0,0,0-.7-.285.915.915,0,0,0-.7.285,1.1,1.1,0,0,0-.266.777ZM59.179-.852l-1.1-.594,5.555-8.891,1.1.594ZM76.069-4.445a11.377,11.377,0,0,1-.508,3.4A9.225,9.225,0,0,1,74.1,1.836a5.263,5.263,0,0,1-2.039,1.719l-.437-1.2a5.494,5.494,0,0,0,1.75-2.578,11.939,11.939,0,0,0,.664-4.008v-.414A12.209,12.209,0,0,0,73.4-8.758a5.727,5.727,0,0,0-1.777-2.672l.438-1.2a5.265,5.265,0,0,1,2,1.672,9.106,9.106,0,0,1,1.461,2.82A11.3,11.3,0,0,1,76.069-4.8ZM80.6-5H79.285v-5.077l-1.572.488V-10.66l2.748-.984H80.6Zm6.7,0H82.758v-.9L84.9-8.19a5.3,5.3,0,0,0,.654-.843,1.354,1.354,0,0,0,.212-.684,1.014,1.014,0,0,0-.223-.695.806.806,0,0,0-.638-.253.869.869,0,0,0-.7.308,1.218,1.218,0,0,0-.257.809H82.626a2.175,2.175,0,0,1,.289-1.107,2.04,2.04,0,0,1,.818-.786,2.486,2.486,0,0,1,1.2-.285,2.354,2.354,0,0,1,1.593.492,1.741,1.741,0,0,1,.567,1.39,2.231,2.231,0,0,1-.255,1,5.571,5.571,0,0,1-.875,1.189l-1.508,1.59h2.853Zm7.937,1.039h-4.4v-1.82h4.4ZM106.431,0h-2.258V-8.7l-2.7.836V-9.7l4.711-1.687h.242Zm7.68-4.445a11.377,11.377,0,0,1-.508,3.4,9.225,9.225,0,0,1-1.461,2.883A5.263,5.263,0,0,1,110.1,3.555l-.437-1.2a5.494,5.494,0,0,0,1.75-2.578,11.939,11.939,0,0,0,.664-4.008v-.414a12.209,12.209,0,0,0-.637-4.117,5.727,5.727,0,0,0-1.777-2.672l.438-1.2a5.265,5.265,0,0,1,2,1.672,9.106,9.106,0,0,1,1.461,2.82A11.3,11.3,0,0,1,114.11-4.8Zm16.9-1.383h-6.984V-7.672h6.984Zm0,3.383h-6.984V-4.289h6.984ZM-65.884,19.375a11.99,11.99,0,0,1,.477-3.406A8.989,8.989,0,0,1-64,13.105a5.251,5.251,0,0,1,2.016-1.73l.438,1.219A5.438,5.438,0,0,0-63.329,15.2a12.082,12.082,0,0,0-.641,4.125v.242a12.313,12.313,0,0,0,.633,4.141,5.544,5.544,0,0,0,1.789,2.648l-.437,1.2a5.253,5.253,0,0,1-1.98-1.684,8.838,8.838,0,0,1-1.4-2.785,11.918,11.918,0,0,1-.516-3.3ZM-50.993,24h-2.258V15.3l-2.7.836V14.3l4.711-1.687h.242Zm12.328-6.367h2.82v2.039h-2.82v3.188h-2.148V19.672h-2.828V17.633h2.828V14.578h2.148ZM-25.11,24h-2.258V15.3l-2.7.836V14.3l4.711-1.687h.242Zm11.352-4.7a5.762,5.762,0,0,1-.977,3.609,3.409,3.409,0,0,1-2.859,1.25,3.433,3.433,0,0,1-2.844-1.227,5.594,5.594,0,0,1-1.008-3.516V17.32a5.687,5.687,0,0,1,.988-3.617,3.434,3.434,0,0,1,2.848-1.234,3.437,3.437,0,0,1,2.844,1.223A5.576,5.576,0,0,1-13.759,17.2Zm-2.258-2.3a4.165,4.165,0,0,0-.387-2.061,1.307,1.307,0,0,0-1.207-.645,1.284,1.284,0,0,0-1.176.614,3.9,3.9,0,0,0-.4,1.92v2.768a4.373,4.373,0,0,0,.379,2.068,1.29,1.29,0,0,0,1.215.676,1.268,1.268,0,0,0,1.2-.649,4.268,4.268,0,0,0,.383-1.986Zm7.734-2.182a2.249,2.249,0,0,1,.68-1.7,2.465,2.465,0,0,1,1.781-.652,2.5,2.5,0,0,1,1.8.645,2.292,2.292,0,0,1,.68,1.746v.563a2.221,2.221,0,0,1-.68,1.7,2.491,2.491,0,0,1-1.781.641A2.507,2.507,0,0,1-7.6,17.105a2.275,2.275,0,0,1-.684-1.738Zm1.5.6a1.053,1.053,0,0,0,.27.754.928.928,0,0,0,.707.285.885.885,0,0,0,.7-.289,1.119,1.119,0,0,0,.258-.773v-.578a1.1,1.1,0,0,0-.258-.758.9.9,0,0,0-.711-.289.906.906,0,0,0-.7.285,1.119,1.119,0,0,0-.266.793Zm3.937,5.8a2.22,2.22,0,0,1,.688-1.7,2.5,2.5,0,0,1,1.781-.645,2.525,2.525,0,0,1,1.793.637A2.279,2.279,0,0,1,2.1,21.258v.563a2.237,2.237,0,0,1-.672,1.691,2.476,2.476,0,0,1-1.789.645,2.506,2.506,0,0,1-1.8-.648,2.265,2.265,0,0,1-.68-1.719Zm1.5.609a1.044,1.044,0,0,0,.281.734.917.917,0,0,0,.7.3q.953,0,.953-1.055v-.594a1.062,1.062,0,0,0-.266-.754.916.916,0,0,0-.7-.285.915.915,0,0,0-.7.285,1.1,1.1,0,0,0-.266.777ZM-5.36,23.148l-1.1-.594,5.555-8.891,1.1.594ZM11.53,19.555a11.377,11.377,0,0,1-.508,3.4,9.225,9.225,0,0,1-1.461,2.883,5.264,5.264,0,0,1-2.039,1.719l-.437-1.2a5.494,5.494,0,0,0,1.75-2.578A11.939,11.939,0,0,0,9.5,19.773v-.414a12.208,12.208,0,0,0-.637-4.117A5.727,5.727,0,0,0,7.085,12.57l.438-1.2a5.265,5.265,0,0,1,2,1.672,9.106,9.106,0,0,1,1.461,2.82A11.3,11.3,0,0,1,11.53,19.2ZM16.063,19H14.746V13.923l-1.572.488V13.34l2.748-.984h.141Zm6.7,0H18.219v-.9l2.146-2.288a5.3,5.3,0,0,0,.654-.843,1.354,1.354,0,0,0,.212-.684,1.013,1.013,0,0,0-.223-.695.806.806,0,0,0-.638-.253.869.869,0,0,0-.7.308,1.218,1.218,0,0,0-.257.809H18.087a2.175,2.175,0,0,1,.289-1.107,2.04,2.04,0,0,1,.818-.786,2.486,2.486,0,0,1,1.2-.285,2.354,2.354,0,0,1,1.593.492,1.741,1.741,0,0,1,.567,1.39,2.231,2.231,0,0,1-.255,1,5.571,5.571,0,0,1-.875,1.189l-1.508,1.59h2.853Zm5.344-2.52-2.453-.695.461-1.413,2.43.976-.156-2.724h1.531L29.767,15.4l2.367-.96.461,1.428-2.5.695,1.641,2.078-1.242.883-1.422-2.281-1.406,2.2-1.242-.844ZM42.938,24H40.681V15.3l-2.7.836V14.3L42.7,12.609h.242ZM54.29,19.3a5.762,5.762,0,0,1-.977,3.609,3.9,3.9,0,0,1-5.7.023A5.594,5.594,0,0,1,46.6,19.414V17.32a5.687,5.687,0,0,1,.988-3.617,3.91,3.91,0,0,1,5.691-.012A5.576,5.576,0,0,1,54.29,17.2Zm-2.258-2.3a4.165,4.165,0,0,0-.387-2.061,1.307,1.307,0,0,0-1.207-.645,1.284,1.284,0,0,0-1.176.614,3.9,3.9,0,0,0-.4,1.92v2.768a4.372,4.372,0,0,0,.379,2.068,1.29,1.29,0,0,0,1.215.676,1.268,1.268,0,0,0,1.2-.649,4.268,4.268,0,0,0,.383-1.986Zm3.75-2.182a2.249,2.249,0,0,1,.68-1.7,2.465,2.465,0,0,1,1.781-.652,2.5,2.5,0,0,1,1.8.645,2.292,2.292,0,0,1,.68,1.746v.563a2.221,2.221,0,0,1-.68,1.7,2.806,2.806,0,0,1-3.574,0,2.275,2.275,0,0,1-.684-1.738Zm1.5.6a1.053,1.053,0,0,0,.27.754.928.928,0,0,0,.707.285.885.885,0,0,0,.7-.289,1.119,1.119,0,0,0,.258-.773v-.578a1.1,1.1,0,0,0-.258-.758,1,1,0,0,0-1.406,0,1.119,1.119,0,0,0-.266.793Zm3.938,5.8a2.22,2.22,0,0,1,.688-1.7,2.5,2.5,0,0,1,1.781-.645,2.525,2.525,0,0,1,1.793.637,2.279,2.279,0,0,1,.684,1.754v.563a2.237,2.237,0,0,1-.672,1.691,2.476,2.476,0,0,1-1.789.645,2.506,2.506,0,0,1-1.8-.648,2.265,2.265,0,0,1-.68-1.719Zm1.5.609a1.044,1.044,0,0,0,.281.734.917.917,0,0,0,.7.3q.953,0,.953-1.055v-.594a1.062,1.062,0,0,0-.266-.754,1.009,1.009,0,0,0-1.406,0,1.1,1.1,0,0,0-.266.777ZM58.7,23.148l-1.1-.594,5.555-8.891,1.1.594Z" transform="translate(-8571 -7568)" fill="#12263f"/>
    <path id="Trazado_191623" data-name="Trazado 191623" d="M-49.43-6.687h1.2a1.7,1.7,0,0,0,1.273-.43,1.574,1.574,0,0,0,.414-1.141,1.392,1.392,0,0,0-.41-1.07,1.59,1.59,0,0,0-1.129-.383,1.666,1.666,0,0,0-1.086.355,1.137,1.137,0,0,0-.437.926h-2.258a2.777,2.777,0,0,1,.48-1.6,3.2,3.2,0,0,1,1.344-1.105,4.485,4.485,0,0,1,1.9-.4,4.253,4.253,0,0,1,2.828.863,2.945,2.945,0,0,1,1.023,2.379,2.394,2.394,0,0,1-.477,1.438,3.1,3.1,0,0,1-1.25,1.008,2.826,2.826,0,0,1,1.434,1.031A2.8,2.8,0,0,1-44.1-3.187a2.994,2.994,0,0,1-1.105,2.43,4.445,4.445,0,0,1-2.926.914,4.214,4.214,0,0,1-2.785-.9A2.934,2.934,0,0,1-52-3.117h2.258a1.308,1.308,0,0,0,.48,1.047,1.771,1.771,0,0,0,1.184.406,1.779,1.779,0,0,0,1.262-.426,1.47,1.47,0,0,0,.457-1.129q0-1.7-1.875-1.7h-1.2Zm13.563,2.406h1.289v1.82h-1.289V0h-2.258V-2.461h-4.664l-.1-1.422,4.742-7.492h2.281Zm-4.773,0h2.516V-8.3l-.148.258Zm7.484,3.172a1.137,1.137,0,0,1,.363-.875,1.289,1.289,0,0,1,.91-.336,1.3,1.3,0,0,1,.918.336,1.137,1.137,0,0,1,.363.875,1.121,1.121,0,0,1-.359.863,1.305,1.305,0,0,1-.922.332A1.294,1.294,0,0,1-32.8-.246,1.121,1.121,0,0,1-33.156-1.109ZM-21.062-4.7a5.763,5.763,0,0,1-.977,3.609A3.409,3.409,0,0,1-24.9.156,3.433,3.433,0,0,1-27.742-1.07,5.594,5.594,0,0,1-28.75-4.586V-6.68a5.687,5.687,0,0,1,.988-3.617,3.434,3.434,0,0,1,2.848-1.234,3.437,3.437,0,0,1,2.844,1.223A5.576,5.576,0,0,1-21.062-6.8Zm-2.258-2.3a4.165,4.165,0,0,0-.387-2.061,1.307,1.307,0,0,0-1.207-.645A1.284,1.284,0,0,0-26.09-9.1a3.9,3.9,0,0,0-.4,1.92v2.768a4.373,4.373,0,0,0,.379,2.068,1.29,1.29,0,0,0,1.215.676,1.268,1.268,0,0,0,1.2-.649A4.268,4.268,0,0,0-23.32-4.3Zm9.906-4.487v1.859h-.219a3.836,3.836,0,0,0-2.465.8,3.238,3.238,0,0,0-1.121,2.148,3.075,3.075,0,0,1,2.289-.922A2.9,2.9,0,0,1-12.57-6.547a4.259,4.259,0,0,1,.875,2.8,4.19,4.19,0,0,1-.48,2.008,3.446,3.446,0,0,1-1.359,1.4,3.949,3.949,0,0,1-1.988.5,3.689,3.689,0,0,1-2.9-1.25A4.852,4.852,0,0,1-19.531-4.43v-.812a7.3,7.3,0,0,1,.7-3.27,5.127,5.127,0,0,1,2.008-2.2,5.884,5.884,0,0,1,3.035-.785Zm-2.2,5.7a1.8,1.8,0,0,0-.992.285,1.715,1.715,0,0,0-.656.753v.686A3.04,3.04,0,0,0-16.82-2.3a1.439,1.439,0,0,0,1.25.635,1.423,1.423,0,0,0,1.176-.573,2.337,2.337,0,0,0,.449-1.485,2.333,2.333,0,0,0-.453-1.5A1.477,1.477,0,0,0-15.617-5.789ZM-2.945-8.352a2.646,2.646,0,0,1-.414,1.469A2.98,2.98,0,0,1-4.5-5.859a3.3,3.3,0,0,1,1.313,1.1A2.816,2.816,0,0,1-2.7-3.117,2.981,2.981,0,0,1-3.734-.723a4.183,4.183,0,0,1-2.8.879A4.2,4.2,0,0,1-9.352-.727a2.974,2.974,0,0,1-1.039-2.391,2.834,2.834,0,0,1,.484-1.648A3.239,3.239,0,0,1-8.6-5.859,2.95,2.95,0,0,1-9.738-6.883a2.664,2.664,0,0,1-.41-1.469,2.948,2.948,0,0,1,.969-2.316,3.814,3.814,0,0,1,2.633-.863,3.839,3.839,0,0,1,2.629.855A2.937,2.937,0,0,1-2.945-8.352Zm-2.023,5.07A1.638,1.638,0,0,0-5.4-4.469a1.532,1.532,0,0,0-1.156-.445A1.529,1.529,0,0,0-7.7-4.473a1.635,1.635,0,0,0-.43,1.191,1.634,1.634,0,0,0,.422,1.172,1.537,1.537,0,0,0,1.172.445,1.533,1.533,0,0,0,1.152-.43A1.631,1.631,0,0,0-4.969-3.281ZM-5.2-8.242a1.563,1.563,0,0,0-.352-1.066,1.247,1.247,0,0,0-.992-.4,1.256,1.256,0,0,0-.984.391,1.553,1.553,0,0,0-.352,1.078,1.633,1.633,0,0,0,.352,1.094,1.23,1.23,0,0,0,.992.414,1.219,1.219,0,0,0,.988-.414A1.645,1.645,0,0,0-5.2-8.242ZM-.969-1.109a1.137,1.137,0,0,1,.363-.875A1.289,1.289,0,0,1,.3-2.32a1.3,1.3,0,0,1,.918.336,1.137,1.137,0,0,1,.363.875,1.121,1.121,0,0,1-.359.863A1.305,1.305,0,0,1,.3.086,1.294,1.294,0,0,1-.609-.246,1.121,1.121,0,0,1-.969-1.109ZM10.148-4.281h1.289v1.82H10.148V0H7.891V-2.461H3.227l-.1-1.422,4.742-7.492h2.281Zm-4.773,0H7.891V-8.3l-.148.258Zm7.609-1.312.656-5.781h6.375v1.883H15.492l-.281,2.445a3.58,3.58,0,0,1,1.711-.43,3.279,3.279,0,0,1,2.547,1.008,4.026,4.026,0,0,1,.922,2.82,4.124,4.124,0,0,1-.465,1.973A3.281,3.281,0,0,1,18.594-.324a4.158,4.158,0,0,1-2.047.48,4.416,4.416,0,0,1-1.914-.418,3.4,3.4,0,0,1-1.395-1.176A3.2,3.2,0,0,1,12.7-3.164H14.93a1.669,1.669,0,0,0,.5,1.105,1.573,1.573,0,0,0,1.113.395,1.388,1.388,0,0,0,1.18-.551,2.551,2.551,0,0,0,.414-1.559,2.11,2.11,0,0,0-.477-1.484A1.749,1.749,0,0,0,16.3-5.773a1.954,1.954,0,0,0-1.3.422l-.219.2ZM27.109-4.547a2.851,2.851,0,0,1-2.062.867,3.049,3.049,0,0,1-2.414-1.035,4.091,4.091,0,0,1-.906-2.793,4.357,4.357,0,0,1,.488-2.051,3.582,3.582,0,0,1,1.363-1.453,3.782,3.782,0,0,1,1.969-.52,3.617,3.617,0,0,1,2,.563,3.7,3.7,0,0,1,1.359,1.617A5.806,5.806,0,0,1,29.4-6.937V-6.1a6.579,6.579,0,0,1-1.414,4.469A5.346,5.346,0,0,1,23.977.1l-.555.008V-1.773l.5-.008Q26.867-1.914,27.109-4.547ZM25.6-5.406a1.579,1.579,0,0,0,.941-.281,1.879,1.879,0,0,0,.6-.68V-7.3A3.1,3.1,0,0,0,26.7-9.078a1.358,1.358,0,0,0-1.172-.633,1.318,1.318,0,0,0-1.117.621,2.641,2.641,0,0,0-.437,1.559A2.57,2.57,0,0,0,24.4-6,1.387,1.387,0,0,0,25.6-5.406Zm6.086,8.258-1.18-.617.281-.508a4.059,4.059,0,0,0,.539-1.9v-1.75h1.906L33.227-.359a4.059,4.059,0,0,1-.437,1.75A4.486,4.486,0,0,1,31.688,2.852ZM40.4,0H38.141V-8.7l-2.7.836V-9.7l4.711-1.687H40.4Zm9.18,0H47.32V-8.7l-2.7.836V-9.7l4.711-1.687h.242Z" transform="translate(-8375 -7568)" fill="#12263f"/>
    <path id="Trazado_191624" data-name="Trazado 191624" d="M0,0,216,2" transform="translate(-8673.5 -7563.5)" fill="none" stroke="#707070" stroke-width="1"/>
  </g>
</svg>
