<svg xmlns="http://www.w3.org/2000/svg" xmlns:xlink="http://www.w3.org/1999/xlink" width="608" height="175" viewBox="0 0 608 175">
  <defs>
    <filter id="Trazado_192567" x="0" y="0" width="608" height="175" filterUnits="userSpaceOnUse">
      <feOffset dy="3" input="SourceAlpha"/>
      <feGaussianBlur stdDeviation="3" result="blur"/>
      <feFlood flood-opacity="0.161"/>
      <feComposite operator="in" in2="blur"/>
      <feComposite in="SourceGraphic"/>
    </filter>
  </defs>
  <g id="Grupo_129149" data-name="Grupo 129149" transform="translate(-4812 5703)">
    <g transform="matrix(1, 0, 0, 1, 4812, -5703)" filter="url(#Trazado_192567)">
      <path id="Trazado_192567-2" data-name="Trazado 192567" d="M20,0H570a20,20,0,0,1,20,20V137a20,20,0,0,1-20,20H20A20,20,0,0,1,0,137V20A20,20,0,0,1,20,0Z" transform="translate(9 6)" fill="#fff"/>
    </g>
    <path id="Trazado_192571" data-name="Trazado 192571" d="M30.687,23.749,29.427,31h-5.01L28.109,9.672l7.661.015a7.722,7.722,0,0,1,5.6,1.975,6.087,6.087,0,0,1,1.794,5.122,6.963,6.963,0,0,1-1.377,3.731,7.626,7.626,0,0,1-3.171,2.414,11.225,11.225,0,0,1-4.417.834Zm.688-3.955,3.018.029a3.571,3.571,0,0,0,3.721-4.185,2.254,2.254,0,0,0-.681-1.417,2.333,2.333,0,0,0-1.487-.58l-3.5-.015ZM52.059,31a4.3,4.3,0,0,1-.205-1.436,4.889,4.889,0,0,1-3.882,1.729,4.777,4.777,0,0,1-3.428-1.377,4.139,4.139,0,0,1-1.274-3.267,4.649,4.649,0,0,1,2.153-3.962A10.152,10.152,0,0,1,51.107,21.3l1.611.029.176-.894.059-.776a1.258,1.258,0,0,0-1.333-1.377,1.852,1.852,0,0,0-1.948,1.743l-4.834.015a4.591,4.591,0,0,1,1.04-2.776,6.164,6.164,0,0,1,2.629-1.816,9.187,9.187,0,0,1,3.538-.593,7.085,7.085,0,0,1,3.157.754,4.7,4.7,0,0,1,2.029,1.978,5.052,5.052,0,0,1,.513,2.922l-1.187,7.456-.073.908a4,4,0,0,0,.278,1.846L56.747,31Zm-2.754-3.193A3.108,3.108,0,0,0,51.9,26.5l.483-2.549-1.245-.015a3.282,3.282,0,0,0-1.992.681,2.583,2.583,0,0,0-.981,1.78,1.3,1.3,0,0,0,.227.989A1.16,1.16,0,0,0,49.305,27.807Zm18.34-1.348q.19-.967-1.494-1.45l-1.04-.264a8.009,8.009,0,0,1-3.735-1.89,3.74,3.74,0,0,1-1.113-2.886,4.6,4.6,0,0,1,2.029-3.713,7.721,7.721,0,0,1,4.768-1.4,7.153,7.153,0,0,1,4.534,1.421,4.635,4.635,0,0,1,1.765,3.75l-4.8-.015q.059-1.875-1.655-1.875a2.361,2.361,0,0,0-1.362.432,1.679,1.679,0,0,0-.747,1.15q-.249,1.187,2.095,1.626a12.174,12.174,0,0,1,3.149,1.121,4.7,4.7,0,0,1,1.7,1.575,3.916,3.916,0,0,1,.542,2.256,4.236,4.236,0,0,1-.937,2.563,6.07,6.07,0,0,1-2.585,1.8,9.261,9.261,0,0,1-3.669.63,7.448,7.448,0,0,1-3.186-.718,5.681,5.681,0,0,1-2.3-1.912,4.965,4.965,0,0,1-.857-2.776l4.482.029A1.851,1.851,0,0,0,65.331,28a2.769,2.769,0,0,0,1.523-.4A1.742,1.742,0,0,0,67.645,26.459ZM78.851,31H74.017l2.754-15.85H81.6ZM77.2,11.151a2.235,2.235,0,0,1,.754-1.787,2.708,2.708,0,0,1,1.9-.718,2.8,2.8,0,0,1,1.882.645,2.2,2.2,0,0,1,.784,1.685,2.24,2.24,0,0,1-.747,1.794,2.717,2.717,0,0,1-1.9.71,2.831,2.831,0,0,1-1.868-.637A2.171,2.171,0,0,1,77.2,11.151Zm11.88,13.916,3.97-9.917h5.2L90.746,31H85.838L83.3,15.15h4.951Zm17.036-10.21a6.656,6.656,0,0,1,3.677,1.062,5.983,5.983,0,0,1,2.278,2.878,8.883,8.883,0,0,1,.52,4.1l-.029.322a9.393,9.393,0,0,1-2.71,5.889,7.625,7.625,0,0,1-5.684,2.183,6.629,6.629,0,0,1-3.647-1.047A6.021,6.021,0,0,1,98.238,27.4a8.632,8.632,0,0,1-.535-4.072,9.771,9.771,0,0,1,2.673-6.211A7.578,7.578,0,0,1,106.112,14.857Zm-3.589,8.474-.044.863q-.205,3.261,1.992,3.32,2.842.088,3.3-4.607l.059-1.331a3.592,3.592,0,0,0-.491-2.1,1.788,1.788,0,0,0-1.531-.812,2.52,2.52,0,0,0-2.19,1.089A7.13,7.13,0,0,0,102.523,23.331ZM129.8,11.21l-.688,3.94h2.534l-.6,3.428h-2.534l-1.23,7.28a1.941,1.941,0,0,0,.1,1.128q.2.381.989.41a11.455,11.455,0,0,0,1.26-.073l-.352,3.574a7.789,7.789,0,0,1-2.593.366,4.271,4.271,0,0,1-3.354-1.318,4.5,4.5,0,0,1-.908-3.5l1.289-7.866h-1.963l.586-3.428h1.963l.688-3.94Zm9.9,3.647a6.656,6.656,0,0,1,3.677,1.062,5.983,5.983,0,0,1,2.278,2.878,8.883,8.883,0,0,1,.52,4.1l-.029.322a9.393,9.393,0,0,1-2.71,5.889,7.625,7.625,0,0,1-5.684,2.183,6.629,6.629,0,0,1-3.647-1.047,6.021,6.021,0,0,1-2.278-2.849,8.632,8.632,0,0,1-.535-4.072,9.771,9.771,0,0,1,2.673-6.211A7.578,7.578,0,0,1,139.7,14.857Zm-3.589,8.474-.044.863q-.205,3.261,1.992,3.32,2.842.088,3.3-4.607l.059-1.331a3.592,3.592,0,0,0-.491-2.1,1.788,1.788,0,0,0-1.531-.812,2.52,2.52,0,0,0-2.19,1.089A7.13,7.13,0,0,0,136.112,23.331ZM155.99,11.21l-.688,3.94h2.534l-.6,3.428H154.7l-1.23,7.28a1.941,1.941,0,0,0,.1,1.128q.2.381.989.41a11.455,11.455,0,0,0,1.26-.073l-.352,3.574a7.789,7.789,0,0,1-2.593.366,4.271,4.271,0,0,1-3.354-1.318,4.5,4.5,0,0,1-.908-3.5l1.289-7.866h-1.963l.586-3.428h1.963l.688-3.94ZM166.024,31a4.3,4.3,0,0,1-.205-1.436,4.889,4.889,0,0,1-3.882,1.729,4.777,4.777,0,0,1-3.428-1.377,4.139,4.139,0,0,1-1.274-3.267,4.649,4.649,0,0,1,2.153-3.962,10.152,10.152,0,0,1,5.684-1.384l1.611.029.176-.894.059-.776a1.258,1.258,0,0,0-1.333-1.377,1.852,1.852,0,0,0-1.948,1.743l-4.834.015a4.591,4.591,0,0,1,1.04-2.776,6.164,6.164,0,0,1,2.629-1.816,9.187,9.187,0,0,1,3.538-.593,7.085,7.085,0,0,1,3.157.754,4.7,4.7,0,0,1,2.029,1.978,5.052,5.052,0,0,1,.513,2.922l-1.187,7.456-.073.908a4,4,0,0,0,.278,1.846l-.015.278Zm-2.754-3.193a3.108,3.108,0,0,0,2.593-1.3l.483-2.549-1.245-.015a3.282,3.282,0,0,0-1.992.681,2.583,2.583,0,0,0-.981,1.78,1.3,1.3,0,0,0,.227.989A1.16,1.16,0,0,0,163.27,27.807ZM177.757,31h-4.834l3.9-22.5h4.834Z" transform="translate(5083.978 -5659.5)" fill="#12263f"/>
    <path id="Trazado_191526" data-name="Trazado 191526" d="M-7037.859-7551h190.978" transform="translate(12128.859 1933.5)" fill="none" stroke="#13273e" stroke-linecap="round" stroke-width="2"/>
    <path id="Trazado_192568" data-name="Trazado 192568" d="M31.834,27H25.023l-1.89,4H17.611L28.9,9.672h4.717L37.562,31H32.347ZM26.9,23.046h4.424l-.937-7.354Zm19.5,4.438a2.073,2.073,0,0,0,1.626-.575,2.861,2.861,0,0,0,.747-1.564l4.512-.015a5.931,5.931,0,0,1-1.033,3.12A6.241,6.241,0,0,1,49.7,30.583a7.535,7.535,0,0,1-3.435.71,5.95,5.95,0,0,1-4.878-2.278,7.877,7.877,0,0,1-1.392-5.735l.044-.352a10.619,10.619,0,0,1,1.348-4.255,7.71,7.71,0,0,1,2.849-2.864,7.389,7.389,0,0,1,3.948-.952,5.893,5.893,0,0,1,4.373,1.765A6.259,6.259,0,0,1,54.1,21.229l-4.512-.015q.073-2.505-1.8-2.549-2.549-.088-2.93,4.278l-.132,1.489-.015.555Q44.71,27.441,46.395,27.484ZM63.358,11.21l-.688,3.94H65.2l-.6,3.428H62.069l-1.23,7.28a1.941,1.941,0,0,0,.1,1.128q.2.381.989.41a11.455,11.455,0,0,0,1.26-.073L62.83,30.9a7.789,7.789,0,0,1-2.593.366,4.271,4.271,0,0,1-3.354-1.318,4.5,4.5,0,0,1-.908-3.5l1.289-7.866H55.3l.586-3.428H57.85l.688-3.94ZM69.539,31H64.705l2.754-15.85h4.834ZM67.884,11.151a2.235,2.235,0,0,1,.754-1.787,2.708,2.708,0,0,1,1.9-.718,2.8,2.8,0,0,1,1.882.645,2.2,2.2,0,0,1,.784,1.685,2.24,2.24,0,0,1-.747,1.794,2.717,2.717,0,0,1-1.9.71,2.831,2.831,0,0,1-1.868-.637A2.171,2.171,0,0,1,67.884,11.151Zm11.88,13.916,3.97-9.917h5.2L81.434,31H76.527L73.992,15.15h4.951ZM96.8,14.857a6.656,6.656,0,0,1,3.677,1.062,5.983,5.983,0,0,1,2.278,2.878,8.883,8.883,0,0,1,.52,4.1l-.029.322a9.393,9.393,0,0,1-2.71,5.889,7.625,7.625,0,0,1-5.684,2.183A6.629,6.629,0,0,1,91.2,30.246,6.021,6.021,0,0,1,88.927,27.4a8.632,8.632,0,0,1-.535-4.072,9.771,9.771,0,0,1,2.673-6.211A7.578,7.578,0,0,1,96.8,14.857Zm-3.589,8.474-.044.863q-.205,3.261,1.992,3.32,2.842.088,3.3-4.607l.059-1.331a3.592,3.592,0,0,0-.491-2.1,1.788,1.788,0,0,0-1.531-.812,2.52,2.52,0,0,0-2.19,1.089A7.13,7.13,0,0,0,93.211,23.331ZM120.487,11.21l-.688,3.94h2.534l-.6,3.428H119.2l-1.23,7.28a1.941,1.941,0,0,0,.1,1.128q.2.381.989.41a11.455,11.455,0,0,0,1.26-.073l-.352,3.574a7.789,7.789,0,0,1-2.593.366,4.271,4.271,0,0,1-3.354-1.318,4.5,4.5,0,0,1-.908-3.5l1.289-7.866H112.43l.586-3.428h1.963l.688-3.94Zm9.9,3.647a6.656,6.656,0,0,1,3.677,1.062,5.983,5.983,0,0,1,2.278,2.878,8.883,8.883,0,0,1,.52,4.1l-.029.322a9.393,9.393,0,0,1-2.71,5.889,7.625,7.625,0,0,1-5.684,2.183,6.629,6.629,0,0,1-3.647-1.047,6.021,6.021,0,0,1-2.278-2.849,8.632,8.632,0,0,1-.535-4.072,9.771,9.771,0,0,1,2.673-6.211A7.578,7.578,0,0,1,130.389,14.857ZM126.8,23.331l-.044.863q-.205,3.261,1.992,3.32,2.842.088,3.3-4.607l.059-1.331a3.592,3.592,0,0,0-.491-2.1,1.788,1.788,0,0,0-1.531-.812,2.52,2.52,0,0,0-2.19,1.089A7.13,7.13,0,0,0,126.8,23.331ZM146.678,11.21l-.688,3.94h2.534l-.6,3.428h-2.534l-1.23,7.28a1.941,1.941,0,0,0,.1,1.128q.2.381.989.41a11.455,11.455,0,0,0,1.26-.073l-.352,3.574a7.789,7.789,0,0,1-2.593.366,4.271,4.271,0,0,1-3.354-1.318,4.5,4.5,0,0,1-.908-3.5l1.289-7.866h-1.963l.586-3.428h1.963l.688-3.94ZM156.712,31a4.3,4.3,0,0,1-.205-1.436,4.889,4.889,0,0,1-3.882,1.729,4.777,4.777,0,0,1-3.428-1.377,4.139,4.139,0,0,1-1.274-3.267,4.649,4.649,0,0,1,2.153-3.962A10.152,10.152,0,0,1,155.76,21.3l1.611.029.176-.894.059-.776a1.258,1.258,0,0,0-1.333-1.377,1.852,1.852,0,0,0-1.948,1.743l-4.834.015a4.591,4.591,0,0,1,1.04-2.776,6.164,6.164,0,0,1,2.629-1.816,9.187,9.187,0,0,1,3.538-.593,7.085,7.085,0,0,1,3.157.754,4.7,4.7,0,0,1,2.029,1.978,5.052,5.052,0,0,1,.513,2.922l-1.187,7.456-.073.908a4,4,0,0,0,.278,1.846L161.4,31Zm-2.754-3.193a3.108,3.108,0,0,0,2.593-1.3l.483-2.549-1.245-.015a3.282,3.282,0,0,0-1.992.681,2.583,2.583,0,0,0-.981,1.78,1.3,1.3,0,0,0,.227.989A1.16,1.16,0,0,0,153.958,27.807ZM168.446,31h-4.834l3.9-22.5h4.834Z" transform="translate(5091 -5613.5)" fill="#12263f"/>
    <path id="Trazado_192569" data-name="Trazado 192569" d="M19.03,18.9h4.849l-.732,4.233H18.313L17.3,28.861H12.8l1-5.728H8.938L9.67,18.9h4.863l.967-5.566H20ZM41.926,31H37.092l2.725-15.674-4.966,1.406.674-3.911,9.434-3.149.542-.015Zm13.813.293a6.354,6.354,0,0,1-3.171-.857,5.3,5.3,0,0,1-2.087-2.388,9.036,9.036,0,0,1-.791-3.582,13.651,13.651,0,0,1,.088-2.183l.557-3.721a12.613,12.613,0,0,1,2.886-6.877,7.137,7.137,0,0,1,5.64-2.307,5.631,5.631,0,0,1,4.358,1.875,7.768,7.768,0,0,1,1.692,4.951,14.915,14.915,0,0,1-.1,2.183l-.586,3.794a12.5,12.5,0,0,1-2.908,6.87A7.14,7.14,0,0,1,55.739,31.293ZM60.09,17.729a16.836,16.836,0,0,0,.146-1.8q0-2.681-1.7-2.769-2.607-.132-3.237,4.468L54.523,22.9a16.68,16.68,0,0,0-.146,1.8q-.073,2.71,1.685,2.813,2.651.132,3.267-4.585ZM72.731,31.293a6.354,6.354,0,0,1-3.171-.857,5.3,5.3,0,0,1-2.087-2.388,9.036,9.036,0,0,1-.791-3.582,13.651,13.651,0,0,1,.088-2.183l.557-3.721a12.613,12.613,0,0,1,2.886-6.877,7.137,7.137,0,0,1,5.64-2.307,5.631,5.631,0,0,1,4.358,1.875A7.768,7.768,0,0,1,81.9,16.205a14.915,14.915,0,0,1-.1,2.183l-.586,3.794a12.5,12.5,0,0,1-2.908,6.87A7.14,7.14,0,0,1,72.731,31.293Zm4.351-13.564a16.836,16.836,0,0,0,.146-1.8q0-2.681-1.7-2.769-2.607-.132-3.237,4.468L71.516,22.9a16.68,16.68,0,0,0-.146,1.8q-.073,2.71,1.685,2.813,2.651.132,3.267-4.585Z" transform="translate(5281.978 -5636)" fill="#12263f"/>
    <path id="Trazado_192570" data-name="Trazado 192570" d="M15.684,23.456H12.9L11.583,31H6.573L10.264,9.672l7.529.015a8.273,8.273,0,0,1,5.574,1.69,5.258,5.258,0,0,1,1.75,4.617,6.881,6.881,0,0,1-1.333,3.826A7.847,7.847,0,0,1,20.5,22.212l2.871,8.538V31H18.028ZM13.575,19.5l2.93.029a3.691,3.691,0,0,0,2.087-.587,3.233,3.233,0,0,0,1.267-1.608,3.779,3.779,0,0,0,.22-1.975A1.967,1.967,0,0,0,18,13.642l-3.4-.015ZM34.419,31a4.3,4.3,0,0,1-.205-1.436,4.889,4.889,0,0,1-3.882,1.729A4.777,4.777,0,0,1,26.9,29.916a4.139,4.139,0,0,1-1.274-3.267,4.649,4.649,0,0,1,2.153-3.962A10.152,10.152,0,0,1,33.467,21.3l1.611.029.176-.894.059-.776a1.258,1.258,0,0,0-1.333-1.377,1.852,1.852,0,0,0-1.948,1.743l-4.834.015a4.591,4.591,0,0,1,1.04-2.776,6.164,6.164,0,0,1,2.629-1.816,9.187,9.187,0,0,1,3.538-.593,7.085,7.085,0,0,1,3.157.754,4.7,4.7,0,0,1,2.029,1.978,5.052,5.052,0,0,1,.513,2.922l-1.187,7.456-.073.908a4,4,0,0,0,.278,1.846L39.107,31Zm-2.754-3.193a3.108,3.108,0,0,0,2.593-1.3l.483-2.549L33.5,23.939a3.282,3.282,0,0,0-1.992.681,2.583,2.583,0,0,0-.981,1.78,1.3,1.3,0,0,0,.227.989A1.16,1.16,0,0,0,31.666,27.807Zm15.806-.645,6.943.029L53.755,31H40.66l.513-2.959,8.335-9.053-6.46-.029.659-3.809H56.348l-.5,2.886Zm17.959-12.3a6.656,6.656,0,0,1,3.677,1.062A5.983,5.983,0,0,1,71.385,18.8a8.883,8.883,0,0,1,.52,4.1l-.029.322a9.393,9.393,0,0,1-2.71,5.889,7.625,7.625,0,0,1-5.684,2.183,6.629,6.629,0,0,1-3.647-1.047A6.021,6.021,0,0,1,57.557,27.4a8.632,8.632,0,0,1-.535-4.072A9.771,9.771,0,0,1,59.7,17.113,7.578,7.578,0,0,1,65.43,14.857Zm-3.589,8.474-.044.863q-.205,3.261,1.992,3.32,2.842.088,3.3-4.607l.059-1.331a3.592,3.592,0,0,0-.491-2.1,1.788,1.788,0,0,0-1.531-.812,2.52,2.52,0,0,0-2.19,1.089A7.13,7.13,0,0,0,61.841,23.331ZM67.173,8.5h5.376l-4.673,4.6-4.219-.007ZM79.83,15.136l-.337,1.9a5.634,5.634,0,0,1,4.585-2.2,3.784,3.784,0,0,1,3.274,1.633,6.836,6.836,0,0,1,.784,4.548L86.465,31H81.631l1.685-10.017a5.18,5.18,0,0,0,.029-.939q-.1-1.393-1.641-1.393a3.012,3.012,0,0,0-2.329,1.129L77.4,31H72.579l2.754-15.85Zm17.593,7.91a11.528,11.528,0,0,1,2.285-6.006,5.663,5.663,0,0,1,4.775-2.183,4.319,4.319,0,0,1,3.354,1.7L109.375,8.5h4.834l-3.9,22.5h-4.292l.205-1.714a4.947,4.947,0,0,1-3.94,2.021A4.366,4.366,0,0,1,98.7,29.616a7.46,7.46,0,0,1-1.384-4.46,13.719,13.719,0,0,1,.059-1.8Zm4.8.337a11.5,11.5,0,0,0-.1,1.641q0,2.432,1.641,2.476a3.073,3.073,0,0,0,2.534-1.362l1.084-6.079a1.951,1.951,0,0,0-1.934-1.392,2.464,2.464,0,0,0-2.175,1.165A7.511,7.511,0,0,0,102.227,23.383Zm18.794,7.91a7.368,7.368,0,0,1-3.787-1,6.322,6.322,0,0,1-2.512-2.754,7.4,7.4,0,0,1-.674-3.889l.044-.41a9.715,9.715,0,0,1,2.717-6.189,7.517,7.517,0,0,1,5.691-2.19,6.129,6.129,0,0,1,3.486,1.034,5.78,5.78,0,0,1,2.124,2.773,8.492,8.492,0,0,1,.439,3.968l-.278,2.01h-9.434a3.09,3.09,0,0,0,.7,2.021,2.582,2.582,0,0,0,1.963.82,4.988,4.988,0,0,0,3.765-1.611l2.021,2.673a5.964,5.964,0,0,1-2.5,1.994,8.772,8.772,0,0,1-3.508.752Zm1.172-12.627a2.479,2.479,0,0,0-1.78.641,5.381,5.381,0,0,0-1.311,2.245h4.819l.088-.423a3.215,3.215,0,0,0,.029-.962A1.7,1.7,0,0,0,122.193,18.666Zm15.132,4.38a11.528,11.528,0,0,1,2.285-6.006,5.663,5.663,0,0,1,4.775-2.183,4.319,4.319,0,0,1,3.354,1.7L149.278,8.5h4.834l-3.9,22.5h-4.292l.205-1.714a4.947,4.947,0,0,1-3.94,2.021,4.366,4.366,0,0,1-3.582-1.692,7.46,7.46,0,0,1-1.384-4.46,13.719,13.719,0,0,1,.059-1.8Zm4.8.337a11.5,11.5,0,0,0-.1,1.641q0,2.432,1.641,2.476a3.073,3.073,0,0,0,2.534-1.362l1.084-6.079a1.951,1.951,0,0,0-1.934-1.392,2.464,2.464,0,0,0-2.175,1.165A7.511,7.511,0,0,0,142.129,23.383Zm18.794,7.91a7.368,7.368,0,0,1-3.787-1,6.322,6.322,0,0,1-2.512-2.754,7.4,7.4,0,0,1-.674-3.889l.044-.41a9.715,9.715,0,0,1,2.717-6.189,7.517,7.517,0,0,1,5.691-2.19,6.129,6.129,0,0,1,3.486,1.034,5.78,5.78,0,0,1,2.124,2.773,8.492,8.492,0,0,1,.439,3.968l-.278,2.01h-9.434a3.09,3.09,0,0,0,.7,2.021,2.582,2.582,0,0,0,1.963.82,4.988,4.988,0,0,0,3.765-1.611l2.021,2.673a5.964,5.964,0,0,1-2.5,1.994,8.772,8.772,0,0,1-3.508.752ZM162.1,18.666a2.479,2.479,0,0,0-1.78.641A5.381,5.381,0,0,0,159,21.552h4.819l.088-.423a3.215,3.215,0,0,0,.029-.962A1.7,1.7,0,0,0,162.1,18.666Zm16.743,10.605a5.246,5.246,0,0,1-4.277,2.036,4.153,4.153,0,0,1-3.508-1.626,6.005,6.005,0,0,1-.916-4.277l1.714-10.254h4.819l-1.743,10.325a3.44,3.44,0,0,0,0,.777,1.276,1.276,0,0,0,1.421,1.246,3.114,3.114,0,0,0,2.593-1.2L180.9,15.15h4.849L183,31h-4.482Zm7.544-6.226a11.528,11.528,0,0,1,2.285-6.006,5.663,5.663,0,0,1,4.775-2.183,4.319,4.319,0,0,1,3.354,1.7L198.335,8.5h4.834l-3.9,22.5h-4.292l.205-1.714a4.947,4.947,0,0,1-3.94,2.021,4.366,4.366,0,0,1-3.582-1.692,7.46,7.46,0,0,1-1.384-4.46,13.719,13.719,0,0,1,.059-1.8Zm4.8.337a11.5,11.5,0,0,0-.1,1.641q0,2.432,1.641,2.476a3.073,3.073,0,0,0,2.534-1.362l1.084-6.079a1.951,1.951,0,0,0-1.934-1.392,2.464,2.464,0,0,0-2.175,1.165A7.511,7.511,0,0,0,191.187,23.383ZM211.036,31a4.3,4.3,0,0,1-.205-1.436,4.889,4.889,0,0,1-3.882,1.729,4.777,4.777,0,0,1-3.428-1.377,4.139,4.139,0,0,1-1.274-3.267,4.649,4.649,0,0,1,2.153-3.962,10.152,10.152,0,0,1,5.684-1.384l1.611.029.176-.894.059-.776a1.258,1.258,0,0,0-1.333-1.377,1.852,1.852,0,0,0-1.948,1.743l-4.834.015a4.591,4.591,0,0,1,1.04-2.776,6.164,6.164,0,0,1,2.629-1.816,9.187,9.187,0,0,1,3.538-.593,7.085,7.085,0,0,1,3.157.754,4.7,4.7,0,0,1,2.029,1.978,5.052,5.052,0,0,1,.513,2.922l-1.187,7.456-.073.908a4,4,0,0,0,.278,1.846l-.015.278Zm-2.754-3.193a3.108,3.108,0,0,0,2.593-1.3l.483-2.549-1.245-.015a3.282,3.282,0,0,0-1.992.681,2.583,2.583,0,0,0-.981,1.78,1.3,1.3,0,0,0,.227.989A1.16,1.16,0,0,0,208.282,27.807Zm32.3-7.383h-13.2l.674-3.809h13.184Zm-1.113,6.431h-13.2l.674-3.809h13.184Z" transform="translate(4842 -5637)" fill="#12263f"/>
  </g>
</svg>
