<svg xmlns="http://www.w3.org/2000/svg" xmlns:xlink="http://www.w3.org/1999/xlink" width="906" height="175" viewBox="0 0 906 175">
  <defs>
    <filter id="Trazado_191627" x="0" y="0" width="906" height="175" filterUnits="userSpaceOnUse">
      <feOffset dy="3" input="SourceAlpha"/>
      <feGaussianBlur stdDeviation="3" result="blur"/>
      <feFlood flood-opacity="0.161"/>
      <feComposite operator="in" in2="blur"/>
      <feComposite in="SourceGraphic"/>
    </filter>
  </defs>
  <g id="Grupo_128961" data-name="Grupo 128961" transform="translate(-4663 5234)">
    <g transform="matrix(1, 0, 0, 1, 4663, -5234)" filter="url(#Trazado_191627)">
      <path id="Trazado_191627-2" data-name="Trazado 191627" d="M20,0H868a20,20,0,0,1,20,20V137a20,20,0,0,1-20,20H20A20,20,0,0,1,0,137V20A20,20,0,0,1,20,0Z" transform="translate(9 6)" fill="#fff"/>
    </g>
    <path id="Trazado_191629" data-name="Trazado 191629" d="M20.551,31.293a7.224,7.224,0,0,1-5.332-2.2,8.949,8.949,0,0,1-2.271-5.684,16.247,16.247,0,0,1,.278-4.138,14.539,14.539,0,0,1,1.509-4.387,11.041,11.041,0,0,1,2.71-3.34,9.268,9.268,0,0,1,6.27-2.168,7.711,7.711,0,0,1,3.816,1,7,7,0,0,1,2.615,2.761,9.918,9.918,0,0,1,1.143,4.1,16.811,16.811,0,0,1-.2,3.7A15.243,15.243,0,0,1,29.933,24.9a12.089,12.089,0,0,1-2.175,3.318,10.007,10.007,0,0,1-3.142,2.278A9.088,9.088,0,0,1,20.551,31.293ZM26.264,17.2q-.146-3.662-2.842-3.809a3.922,3.922,0,0,0-3.442,1.648,10.579,10.579,0,0,0-1.8,5.164,18.026,18.026,0,0,0-.205,3.267q.146,3.721,2.871,3.823a3.8,3.8,0,0,0,3.076-1.282,8.291,8.291,0,0,0,1.86-3.984A19.14,19.14,0,0,0,26.264,17.2Zm21.152,5.9a11.485,11.485,0,0,1-2.271,6.064,5.681,5.681,0,0,1-4.775,2.139,4.2,4.2,0,0,1-3.6-1.963L36.166,31H31.8L35.712,8.5h4.819l-1.567,7.954a4.783,4.783,0,0,1,3.56-1.6,4.465,4.465,0,0,1,3.633,1.663,7.251,7.251,0,0,1,1.377,4.446A16.123,16.123,0,0,1,47.46,22.8Zm-4.79-.285a15.172,15.172,0,0,0,.132-1.7q0-2.355-1.685-2.457a2.887,2.887,0,0,0-2.5,1.272l-1.143,6.318A1.938,1.938,0,0,0,39.418,27.5q2.358.073,2.974-3.071l.205-1.3ZM53.378,31H48.544l3.9-22.5h4.834Zm8.145,0H56.688l2.754-15.85h4.834ZM59.867,11.151a2.235,2.235,0,0,1,.754-1.787,2.708,2.708,0,0,1,1.9-.718,2.8,2.8,0,0,1,1.882.645,2.2,2.2,0,0,1,.784,1.685,2.24,2.24,0,0,1-.747,1.794,2.717,2.717,0,0,1-1.9.71,2.831,2.831,0,0,1-1.868-.637A2.171,2.171,0,0,1,59.867,11.151ZM65.4,23.046a12.043,12.043,0,0,1,1.311-4.321A7.607,7.607,0,0,1,69.3,15.8a6.226,6.226,0,0,1,3.516-.959,4.328,4.328,0,0,1,3.6,1.714l.513-1.421,4.453.015L78.793,30.385a7.446,7.446,0,0,1-2.827,5.083,9,9,0,0,1-5.947,1.772,8.491,8.491,0,0,1-3.062-.63,6.6,6.6,0,0,1-2.534-1.816l2.285-2.842a4.149,4.149,0,0,0,3.311,1.655q3.208.059,4.072-3.413l.117-.483a4.956,4.956,0,0,1-3.618,1.582,4.887,4.887,0,0,1-2.681-.769,5.056,5.056,0,0,1-1.816-2.175,8.46,8.46,0,0,1-.747-3.164A13.755,13.755,0,0,1,65.4,23.046Zm4.761,1.567a3.844,3.844,0,0,0,.483,2.095,1.639,1.639,0,0,0,1.406.776A3.221,3.221,0,0,0,74.53,26.43l1.245-6.724a2.135,2.135,0,0,0-1.963-1.055,2.8,2.8,0,0,0-2.358,1.194,6.436,6.436,0,0,0-1.2,3.215Q70.165,23.983,70.165,24.613ZM90.409,31a4.3,4.3,0,0,1-.205-1.436,4.889,4.889,0,0,1-3.882,1.729,4.777,4.777,0,0,1-3.428-1.377,4.139,4.139,0,0,1-1.274-3.267,4.649,4.649,0,0,1,2.153-3.962A10.152,10.152,0,0,1,89.457,21.3l1.611.029.176-.894.059-.776a1.258,1.258,0,0,0-1.333-1.377,1.852,1.852,0,0,0-1.948,1.743l-4.834.015a4.591,4.591,0,0,1,1.04-2.776,6.164,6.164,0,0,1,2.629-1.816,9.187,9.187,0,0,1,3.538-.593,7.085,7.085,0,0,1,3.157.754,4.7,4.7,0,0,1,2.029,1.978,5.052,5.052,0,0,1,.513,2.922l-1.187,7.456-.073.908a4,4,0,0,0,.278,1.846L95.1,31Zm-2.754-3.193a3.108,3.108,0,0,0,2.593-1.3l.483-2.549-1.245-.015a3.282,3.282,0,0,0-1.992.681,2.583,2.583,0,0,0-.981,1.78,1.3,1.3,0,0,0,.227.989A1.16,1.16,0,0,0,87.655,27.807Zm16.743-.322a2.073,2.073,0,0,0,1.626-.575,2.861,2.861,0,0,0,.747-1.564l4.512-.015a5.931,5.931,0,0,1-1.033,3.12,6.241,6.241,0,0,1-2.549,2.131,7.535,7.535,0,0,1-3.435.71,5.95,5.95,0,0,1-4.878-2.278A7.877,7.877,0,0,1,98,23.28l.044-.352a10.619,10.619,0,0,1,1.348-4.255,7.71,7.71,0,0,1,2.849-2.864,7.389,7.389,0,0,1,3.948-.952,5.893,5.893,0,0,1,4.373,1.765,6.259,6.259,0,0,1,1.545,4.607l-4.512-.015q.073-2.505-1.8-2.549-2.549-.088-2.93,4.278l-.132,1.489-.015.555Q102.714,27.441,104.4,27.484ZM117.406,31h-4.834l2.754-15.85h4.834Zm-1.655-19.849a2.235,2.235,0,0,1,.754-1.787,2.708,2.708,0,0,1,1.9-.718,2.8,2.8,0,0,1,1.882.645,2.2,2.2,0,0,1,.784,1.685,2.24,2.24,0,0,1-.747,1.794,2.717,2.717,0,0,1-1.9.71,2.831,2.831,0,0,1-1.868-.637A2.171,2.171,0,0,1,115.751,11.151Zm13.96,3.706a6.656,6.656,0,0,1,3.677,1.062,5.983,5.983,0,0,1,2.278,2.878,8.883,8.883,0,0,1,.52,4.1l-.029.322a9.393,9.393,0,0,1-2.71,5.889,7.625,7.625,0,0,1-5.684,2.183,6.629,6.629,0,0,1-3.647-1.047,6.021,6.021,0,0,1-2.278-2.849,8.632,8.632,0,0,1-.535-4.072,9.771,9.771,0,0,1,2.673-6.211A7.578,7.578,0,0,1,129.711,14.857Zm-3.589,8.474-.044.863q-.205,3.261,1.992,3.32,2.842.088,3.3-4.607l.059-1.331a3.592,3.592,0,0,0-.491-2.1,1.788,1.788,0,0,0-1.531-.812,2.52,2.52,0,0,0-2.19,1.089A7.13,7.13,0,0,0,126.122,23.331Zm17.988-8.2-.337,1.9a5.634,5.634,0,0,1,4.585-2.2,3.784,3.784,0,0,1,3.274,1.633,6.836,6.836,0,0,1,.784,4.548L150.746,31h-4.834L147.6,20.983a5.18,5.18,0,0,0,.029-.939q-.1-1.393-1.641-1.393a3.012,3.012,0,0,0-2.329,1.129L141.679,31h-4.819l2.754-15.85ZM161.4,31.293a7.368,7.368,0,0,1-3.787-1,6.322,6.322,0,0,1-2.512-2.754,7.4,7.4,0,0,1-.674-3.889l.044-.41a9.715,9.715,0,0,1,2.717-6.189,7.517,7.517,0,0,1,5.691-2.19,6.129,6.129,0,0,1,3.486,1.034,5.78,5.78,0,0,1,2.124,2.773,8.492,8.492,0,0,1,.439,3.968l-.278,2.01h-9.434a3.09,3.09,0,0,0,.7,2.021,2.582,2.582,0,0,0,1.963.82,4.988,4.988,0,0,0,3.765-1.611l2.021,2.673a5.964,5.964,0,0,1-2.5,1.994,8.772,8.772,0,0,1-3.508.752Zm1.172-12.627a2.479,2.479,0,0,0-1.78.641,5.381,5.381,0,0,0-1.311,2.245H164.3l.088-.423a3.215,3.215,0,0,0,.029-.962A1.7,1.7,0,0,0,162.567,18.666Zm15.879,7.793q.19-.967-1.494-1.45l-1.04-.264a8.009,8.009,0,0,1-3.735-1.89,3.74,3.74,0,0,1-1.113-2.886,4.6,4.6,0,0,1,2.029-3.713,7.721,7.721,0,0,1,4.768-1.4,7.153,7.153,0,0,1,4.534,1.421,4.635,4.635,0,0,1,1.765,3.75l-4.8-.015q.059-1.875-1.655-1.875a2.361,2.361,0,0,0-1.362.432,1.679,1.679,0,0,0-.747,1.15q-.249,1.187,2.095,1.626a12.174,12.174,0,0,1,3.149,1.121,4.7,4.7,0,0,1,1.7,1.575,3.916,3.916,0,0,1,.542,2.256,4.236,4.236,0,0,1-.937,2.563,6.07,6.07,0,0,1-2.585,1.8,9.261,9.261,0,0,1-3.669.63,7.448,7.448,0,0,1-3.186-.718,5.681,5.681,0,0,1-2.3-1.912,4.965,4.965,0,0,1-.857-2.776l4.482.029A1.851,1.851,0,0,0,176.132,28a2.769,2.769,0,0,0,1.523-.4A1.742,1.742,0,0,0,178.446,26.459ZM193.08,31l2.153-12.422h-2.227l.6-3.428,2.08.015.117-.6A7.771,7.771,0,0,1,198.537,9.8a8.459,8.459,0,0,1,5.471-1.626,22.15,22.15,0,0,1,5.039.835l-1.025,3.926a12.738,12.738,0,0,0-3.984-.688,3.877,3.877,0,0,0-2.183.608,3.027,3.027,0,0,0-1.245,1.868l-.1.439,3.179-.015-.615,3.428h-3L197.914,31Zm14.487,0h-4.834l2.739-15.85h4.849Zm10.2-15.864-.337,1.9a5.634,5.634,0,0,1,4.585-2.2,3.784,3.784,0,0,1,3.274,1.633,6.836,6.836,0,0,1,.784,4.548L224.4,31h-4.834l1.685-10.017a5.18,5.18,0,0,0,.029-.939q-.1-1.393-1.641-1.393a3.012,3.012,0,0,0-2.329,1.129L215.331,31h-4.819l2.754-15.85ZM236.1,31a4.3,4.3,0,0,1-.205-1.436,4.889,4.889,0,0,1-3.882,1.729,4.777,4.777,0,0,1-3.428-1.377,4.139,4.139,0,0,1-1.274-3.267,4.649,4.649,0,0,1,2.153-3.962A10.152,10.152,0,0,1,235.15,21.3l1.611.029.176-.894.059-.776a1.258,1.258,0,0,0-1.333-1.377,1.852,1.852,0,0,0-1.948,1.743l-4.834.015a4.591,4.591,0,0,1,1.04-2.776,6.164,6.164,0,0,1,2.629-1.816,9.187,9.187,0,0,1,3.538-.593,7.085,7.085,0,0,1,3.157.754,4.7,4.7,0,0,1,2.029,1.978,5.052,5.052,0,0,1,.513,2.922L240.6,27.968l-.073.908a4,4,0,0,0,.278,1.846L240.79,31Zm-2.754-3.193a3.108,3.108,0,0,0,2.593-1.3l.483-2.549-1.245-.015a3.282,3.282,0,0,0-1.992.681,2.583,2.583,0,0,0-.981,1.78,1.3,1.3,0,0,0,.227.989A1.16,1.16,0,0,0,233.349,27.807ZM249.9,15.136l-.337,1.9a5.634,5.634,0,0,1,4.585-2.2,3.784,3.784,0,0,1,3.274,1.633,6.836,6.836,0,0,1,.784,4.548L256.537,31H251.7l1.685-10.017a5.18,5.18,0,0,0,.029-.939q-.1-1.393-1.641-1.393a3.012,3.012,0,0,0-2.329,1.129L247.47,31H242.65L245.4,15.15Zm16.743,12.349a2.073,2.073,0,0,0,1.626-.575,2.861,2.861,0,0,0,.747-1.564l4.512-.015a5.931,5.931,0,0,1-1.033,3.12,6.241,6.241,0,0,1-2.549,2.131,7.535,7.535,0,0,1-3.435.71,5.95,5.95,0,0,1-4.878-2.278,7.877,7.877,0,0,1-1.392-5.735l.044-.352a10.619,10.619,0,0,1,1.348-4.255,7.71,7.71,0,0,1,2.849-2.864,7.389,7.389,0,0,1,3.948-.952,5.893,5.893,0,0,1,4.373,1.765,6.259,6.259,0,0,1,1.545,4.607l-4.512-.015q.073-2.505-1.8-2.549-2.549-.088-2.93,4.278l-.132,1.489-.015.555Q264.96,27.441,266.645,27.484ZM279.652,31h-4.834l2.754-15.85h4.834ZM278,11.151a2.235,2.235,0,0,1,.754-1.787,2.708,2.708,0,0,1,1.9-.718,2.8,2.8,0,0,1,1.882.645,2.2,2.2,0,0,1,.784,1.685,2.24,2.24,0,0,1-.747,1.794,2.717,2.717,0,0,1-1.9.71,2.831,2.831,0,0,1-1.868-.637A2.171,2.171,0,0,1,278,11.151Zm12.6,20.142a7.368,7.368,0,0,1-3.787-1,6.322,6.322,0,0,1-2.512-2.754,7.4,7.4,0,0,1-.674-3.889l.044-.41a9.715,9.715,0,0,1,2.717-6.189,7.517,7.517,0,0,1,5.691-2.19,6.129,6.129,0,0,1,3.486,1.034,5.78,5.78,0,0,1,2.124,2.773,8.492,8.492,0,0,1,.439,3.968l-.278,2.01h-9.434a3.09,3.09,0,0,0,.7,2.021,2.582,2.582,0,0,0,1.963.82,4.988,4.988,0,0,0,3.765-1.611l2.021,2.673a5.964,5.964,0,0,1-2.5,1.994,8.772,8.772,0,0,1-3.508.752Zm1.172-12.627a2.479,2.479,0,0,0-1.78.641,5.381,5.381,0,0,0-1.311,2.245H293.5l.088-.423a3.215,3.215,0,0,0,.029-.962A1.7,1.7,0,0,0,291.767,18.666Zm18.384.952a13.788,13.788,0,0,0-1.494-.146,3.721,3.721,0,0,0-3.311,1.494L303.559,31h-4.819l2.754-15.85,4.5-.015-.366,2.08q1.553-2.4,3.662-2.4a6.906,6.906,0,0,1,1.494.205ZM318.383,31a4.3,4.3,0,0,1-.205-1.436,4.889,4.889,0,0,1-3.882,1.729,4.777,4.777,0,0,1-3.428-1.377,4.139,4.139,0,0,1-1.274-3.267,4.649,4.649,0,0,1,2.153-3.962,10.152,10.152,0,0,1,5.684-1.384l1.611.029.176-.894.059-.776a1.258,1.258,0,0,0-1.333-1.377A1.852,1.852,0,0,0,316,20.028l-4.834.015a4.591,4.591,0,0,1,1.04-2.776,6.164,6.164,0,0,1,2.629-1.816,9.187,9.187,0,0,1,3.538-.593,7.085,7.085,0,0,1,3.157.754,4.7,4.7,0,0,1,2.029,1.978,5.052,5.052,0,0,1,.513,2.922l-1.187,7.456-.073.908a4,4,0,0,0,.278,1.846L323.07,31Zm-2.754-3.193a3.108,3.108,0,0,0,2.593-1.3l.483-2.549-1.245-.015a3.282,3.282,0,0,0-1.992.681,2.583,2.583,0,0,0-.981,1.78,1.3,1.3,0,0,0,.227.989A1.16,1.16,0,0,0,315.629,27.807Zm18.34-1.348q.19-.967-1.494-1.45l-1.04-.264a8.009,8.009,0,0,1-3.735-1.89,3.74,3.74,0,0,1-1.113-2.886,4.6,4.6,0,0,1,2.029-3.713,7.721,7.721,0,0,1,4.768-1.4,7.153,7.153,0,0,1,4.534,1.421,4.635,4.635,0,0,1,1.765,3.75l-4.8-.015q.059-1.875-1.655-1.875a2.361,2.361,0,0,0-1.362.432,1.679,1.679,0,0,0-.747,1.15q-.249,1.187,2.095,1.626a12.174,12.174,0,0,1,3.149,1.121,4.7,4.7,0,0,1,1.7,1.575A3.916,3.916,0,0,1,338.6,26.3a4.236,4.236,0,0,1-.937,2.563,6.07,6.07,0,0,1-2.585,1.8,9.261,9.261,0,0,1-3.669.63,7.448,7.448,0,0,1-3.186-.718,5.681,5.681,0,0,1-2.3-1.912,4.965,4.965,0,0,1-.857-2.776l4.482.029A1.851,1.851,0,0,0,331.654,28a2.769,2.769,0,0,0,1.523-.4A1.742,1.742,0,0,0,333.969,26.459Z" transform="translate(5093 -5190.5)" fill="#12263f"/>
    <path id="Trazado_191526" data-name="Trazado 191526" d="M-7037.859-7551h330.346" transform="translate(12138.491 2402.5)" fill="none" stroke="#13273e" stroke-linecap="round" stroke-width="2"/>
    <path id="Trazado_191630" data-name="Trazado 191630" d="M87.54,25.141,94.073,9.672h5.742L89.5,31H84.024L80.45,9.672h5.42Zm17.988,6.152a7.368,7.368,0,0,1-3.787-1,6.322,6.322,0,0,1-2.512-2.754,7.4,7.4,0,0,1-.674-3.889l.044-.41a9.715,9.715,0,0,1,2.717-6.189,7.517,7.517,0,0,1,5.691-2.19,6.129,6.129,0,0,1,3.486,1.034,5.78,5.78,0,0,1,2.124,2.773,8.492,8.492,0,0,1,.439,3.968l-.278,2.01h-9.434a3.09,3.09,0,0,0,.7,2.021,2.582,2.582,0,0,0,1.963.82,4.988,4.988,0,0,0,3.765-1.611l2.021,2.673a5.964,5.964,0,0,1-2.5,1.994,8.772,8.772,0,0,1-3.508.752ZM106.7,18.666a2.479,2.479,0,0,0-1.78.641,5.381,5.381,0,0,0-1.311,2.245h4.819l.088-.423a3.215,3.215,0,0,0,.029-.962A1.7,1.7,0,0,0,106.7,18.666Zm14.092-3.53-.337,1.9a5.634,5.634,0,0,1,4.585-2.2,3.784,3.784,0,0,1,3.274,1.633,6.836,6.836,0,0,1,.784,4.548L127.427,31h-4.834l1.685-10.017a5.18,5.18,0,0,0,.029-.939q-.1-1.393-1.641-1.393a3.012,3.012,0,0,0-2.329,1.129L118.36,31h-4.819l2.754-15.85Zm18.442-3.926-.688,3.94h2.534l-.6,3.428h-2.534l-1.23,7.28a1.941,1.941,0,0,0,.1,1.128q.2.381.989.41a11.455,11.455,0,0,0,1.26-.073l-.352,3.574a7.789,7.789,0,0,1-2.593.366,4.271,4.271,0,0,1-3.354-1.318,4.5,4.5,0,0,1-.908-3.5l1.289-7.866h-1.963l.586-3.428h1.963l.688-3.94ZM149.268,31a4.3,4.3,0,0,1-.205-1.436,4.889,4.889,0,0,1-3.882,1.729,4.777,4.777,0,0,1-3.428-1.377,4.139,4.139,0,0,1-1.274-3.267,4.649,4.649,0,0,1,2.153-3.962,10.152,10.152,0,0,1,5.684-1.384l1.611.029.176-.894.059-.776a1.258,1.258,0,0,0-1.333-1.377,1.852,1.852,0,0,0-1.948,1.743l-4.834.015a4.591,4.591,0,0,1,1.04-2.776,6.164,6.164,0,0,1,2.629-1.816,9.187,9.187,0,0,1,3.538-.593,7.085,7.085,0,0,1,3.157.754,4.7,4.7,0,0,1,2.029,1.978,5.052,5.052,0,0,1,.513,2.922l-1.187,7.456-.073.908a4,4,0,0,0,.278,1.846l-.015.278Zm-2.754-3.193a3.108,3.108,0,0,0,2.593-1.3l.483-2.549-1.245-.015a3.282,3.282,0,0,0-1.992.681,2.583,2.583,0,0,0-.981,1.78,1.3,1.3,0,0,0,.227.989A1.16,1.16,0,0,0,146.514,27.807Zm18.34-1.348q.19-.967-1.494-1.45l-1.04-.264a8.009,8.009,0,0,1-3.735-1.89,3.74,3.74,0,0,1-1.113-2.886,4.6,4.6,0,0,1,2.029-3.713,7.721,7.721,0,0,1,4.768-1.4,7.153,7.153,0,0,1,4.534,1.421,4.635,4.635,0,0,1,1.765,3.75l-4.8-.015q.059-1.875-1.655-1.875a2.361,2.361,0,0,0-1.362.432,1.679,1.679,0,0,0-.747,1.15q-.249,1.187,2.095,1.626a12.174,12.174,0,0,1,3.149,1.121,4.7,4.7,0,0,1,1.7,1.575,3.916,3.916,0,0,1,.542,2.256,4.236,4.236,0,0,1-.937,2.563,6.07,6.07,0,0,1-2.585,1.8,9.261,9.261,0,0,1-3.669.63,7.448,7.448,0,0,1-3.186-.718,5.681,5.681,0,0,1-2.3-1.912,4.965,4.965,0,0,1-.857-2.776l4.482.029A1.851,1.851,0,0,0,162.54,28a2.769,2.769,0,0,0,1.523-.4A1.742,1.742,0,0,0,164.854,26.459Zm20.669-11.323-.337,1.9a5.634,5.634,0,0,1,4.585-2.2,3.784,3.784,0,0,1,3.274,1.633,6.836,6.836,0,0,1,.784,4.548L192.159,31h-4.834l1.685-10.017a5.18,5.18,0,0,0,.029-.939q-.1-1.393-1.641-1.393a3.012,3.012,0,0,0-2.329,1.129L183.092,31h-4.819l2.754-15.85Zm17.285,16.157a7.368,7.368,0,0,1-3.787-1,6.322,6.322,0,0,1-2.512-2.754,7.4,7.4,0,0,1-.674-3.889l.044-.41a9.715,9.715,0,0,1,2.717-6.189,7.517,7.517,0,0,1,5.691-2.19,6.129,6.129,0,0,1,3.486,1.034,5.78,5.78,0,0,1,2.124,2.773,8.492,8.492,0,0,1,.439,3.968l-.278,2.01h-9.434a3.09,3.09,0,0,0,.7,2.021,2.582,2.582,0,0,0,1.963.82,4.988,4.988,0,0,0,3.765-1.611l2.021,2.673a5.964,5.964,0,0,1-2.5,1.994,8.772,8.772,0,0,1-3.508.752Zm1.172-12.627a2.479,2.479,0,0,0-1.78.641,5.381,5.381,0,0,0-1.311,2.245h4.819l.088-.423a3.215,3.215,0,0,0,.029-.962A1.7,1.7,0,0,0,203.98,18.666Zm15.981-7.456-.688,3.94h2.534l-.6,3.428h-2.534l-1.23,7.28a1.941,1.941,0,0,0,.1,1.128q.2.381.989.41a11.455,11.455,0,0,0,1.26-.073l-.352,3.574a7.789,7.789,0,0,1-2.593.366,4.271,4.271,0,0,1-3.354-1.318,4.5,4.5,0,0,1-.908-3.5l1.289-7.866h-1.963l.586-3.428h1.963l.688-3.94ZM230,31a4.3,4.3,0,0,1-.205-1.436,4.889,4.889,0,0,1-3.882,1.729,4.777,4.777,0,0,1-3.428-1.377,4.139,4.139,0,0,1-1.274-3.267,4.649,4.649,0,0,1,2.153-3.962,10.152,10.152,0,0,1,5.684-1.384l1.611.029.176-.894.059-.776a1.258,1.258,0,0,0-1.333-1.377,1.852,1.852,0,0,0-1.948,1.743l-4.834.015a4.591,4.591,0,0,1,1.04-2.776,6.164,6.164,0,0,1,2.629-1.816,9.187,9.187,0,0,1,3.538-.593,7.085,7.085,0,0,1,3.157.754,4.7,4.7,0,0,1,2.029,1.978,5.052,5.052,0,0,1,.513,2.922l-1.187,7.456-.073.908a4,4,0,0,0,.278,1.846l-.015.278Zm-2.754-3.193a3.108,3.108,0,0,0,2.593-1.3l.483-2.549-1.245-.015a3.282,3.282,0,0,0-1.992.681,2.583,2.583,0,0,0-.981,1.78,1.3,1.3,0,0,0,.227.989A1.16,1.16,0,0,0,227.242,27.807Zm18.34-1.348q.19-.967-1.494-1.45l-1.04-.264a8.009,8.009,0,0,1-3.735-1.89A3.74,3.74,0,0,1,238.2,19.97a4.6,4.6,0,0,1,2.029-3.713,7.721,7.721,0,0,1,4.768-1.4,7.153,7.153,0,0,1,4.534,1.421,4.635,4.635,0,0,1,1.765,3.75l-4.8-.015q.059-1.875-1.655-1.875a2.361,2.361,0,0,0-1.362.432,1.679,1.679,0,0,0-.747,1.15q-.249,1.187,2.095,1.626a12.174,12.174,0,0,1,3.149,1.121,4.7,4.7,0,0,1,1.7,1.575,3.916,3.916,0,0,1,.542,2.256,4.236,4.236,0,0,1-.937,2.563,6.07,6.07,0,0,1-2.585,1.8,9.261,9.261,0,0,1-3.669.63,7.448,7.448,0,0,1-3.186-.718,5.681,5.681,0,0,1-2.3-1.912,4.965,4.965,0,0,1-.857-2.776l4.482.029A1.851,1.851,0,0,0,243.267,28a2.769,2.769,0,0,0,1.523-.4A1.742,1.742,0,0,0,245.582,26.459Z" transform="translate(5100.632 -5144.5)" fill="#12263f"/>
    <path id="Trazado_191631" data-name="Trazado 191631" d="M15.31,16.886l-4.38-1.3,1.333-2.62,4.321,1.961.557-5.254H20.2l-1.26,5.122,4.6-1.8L24,15.935l-4.951,1.317,2.49,3.97-2.563,1.6L17.111,18.5,13.8,22.6l-2.358-1.8ZM40.915,31H36.081l2.725-15.674L33.84,16.732l.674-3.911,9.434-3.149.542-.015Zm13.813.293a6.354,6.354,0,0,1-3.171-.857,5.3,5.3,0,0,1-2.087-2.388,9.036,9.036,0,0,1-.791-3.582,13.651,13.651,0,0,1,.088-2.183l.557-3.721a12.613,12.613,0,0,1,2.886-6.877,7.137,7.137,0,0,1,5.64-2.307,5.631,5.631,0,0,1,4.358,1.875A7.768,7.768,0,0,1,63.9,16.205a14.915,14.915,0,0,1-.1,2.183l-.586,3.794a12.5,12.5,0,0,1-2.908,6.87A7.14,7.14,0,0,1,54.729,31.293Zm4.351-13.564a16.836,16.836,0,0,0,.146-1.8q0-2.681-1.7-2.769-2.607-.132-3.237,4.468L53.513,22.9a16.68,16.68,0,0,0-.146,1.8q-.073,2.71,1.685,2.813,2.651.132,3.267-4.585ZM71.721,31.293a6.354,6.354,0,0,1-3.171-.857,5.3,5.3,0,0,1-2.087-2.388,9.036,9.036,0,0,1-.791-3.582,13.651,13.651,0,0,1,.088-2.183l.557-3.721A12.613,12.613,0,0,1,69.2,11.686a7.137,7.137,0,0,1,5.64-2.307A5.631,5.631,0,0,1,79.2,11.254a7.768,7.768,0,0,1,1.692,4.951,14.915,14.915,0,0,1-.1,2.183L80.2,22.182a12.5,12.5,0,0,1-2.908,6.87A7.14,7.14,0,0,1,71.721,31.293Zm4.351-13.564a16.836,16.836,0,0,0,.146-1.8q0-2.681-1.7-2.769-2.607-.132-3.237,4.468L70.5,22.9a16.68,16.68,0,0,0-.146,1.8q-.073,2.71,1.685,2.813,2.651.132,3.267-4.585Z" transform="translate(5430.978 -5167)" fill="#12263f"/>
    <path id="Trazado_191628" data-name="Trazado 191628" d="M-175.291-9.053h-7.837l-.894,5.1h9.272L-175.437,0h-14.282l3.691-21.328h14.312l-.688,3.97h-9.287l-.791,4.5h7.852Zm8.936-6.812-.337,1.9a5.634,5.634,0,0,1,4.585-2.2,3.784,3.784,0,0,1,3.274,1.633,6.836,6.836,0,0,1,.784,4.548L-159.719,0h-4.834l1.685-10.017a5.18,5.18,0,0,0,.029-.939q-.1-1.393-1.641-1.393a3.012,3.012,0,0,0-2.329,1.129L-168.787,0h-4.819l2.754-15.85Zm10.2,7.91a11.528,11.528,0,0,1,2.285-6.006,5.663,5.663,0,0,1,4.775-2.183,4.319,4.319,0,0,1,3.354,1.7l1.538-8.057h4.834l-3.9,22.5h-4.292l.205-1.714A4.947,4.947,0,0,1-151.3.308a4.366,4.366,0,0,1-3.582-1.692,7.46,7.46,0,0,1-1.384-4.46,13.719,13.719,0,0,1,.059-1.8Zm4.8.337a11.5,11.5,0,0,0-.1,1.641q0,2.432,1.641,2.476a3.073,3.073,0,0,0,2.534-1.362l1.084-6.079a1.951,1.951,0,0,0-1.934-1.392,2.464,2.464,0,0,0-2.175,1.165A7.511,7.511,0,0,0-151.355-7.617Zm18.794,7.91a7.368,7.368,0,0,1-3.787-1,6.322,6.322,0,0,1-2.512-2.754,7.4,7.4,0,0,1-.674-3.889l.044-.41a9.715,9.715,0,0,1,2.717-6.189,7.517,7.517,0,0,1,5.691-2.19,6.129,6.129,0,0,1,3.486,1.034,5.78,5.78,0,0,1,2.124,2.773,8.492,8.492,0,0,1,.439,3.968l-.278,2.01h-9.434a3.09,3.09,0,0,0,.7,2.021,2.582,2.582,0,0,0,1.963.82,4.988,4.988,0,0,0,3.765-1.611l2.021,2.673a5.964,5.964,0,0,1-2.5,1.994A8.772,8.772,0,0,1-132.3.293Zm1.172-12.627a2.479,2.479,0,0,0-1.78.641,5.381,5.381,0,0,0-1.311,2.245h4.819l.088-.423a3.215,3.215,0,0,0,.029-.962A1.7,1.7,0,0,0-131.389-12.334Zm16.743,10.605A5.246,5.246,0,0,1-118.923.308a4.153,4.153,0,0,1-3.508-1.626,6.005,6.005,0,0,1-.916-4.277l1.714-10.254h4.819l-1.743,10.325a3.44,3.44,0,0,0,0,.777A1.276,1.276,0,0,0-117.136-3.5a3.114,3.114,0,0,0,2.593-1.2l1.963-11.146h4.849L-110.486,0h-4.482Zm7.544-6.226a11.528,11.528,0,0,1,2.285-6.006,5.663,5.663,0,0,1,4.775-2.183,4.319,4.319,0,0,1,3.354,1.7l1.538-8.057h4.834L-94.211,0H-98.5l.205-1.714a4.947,4.947,0,0,1-3.94,2.021,4.366,4.366,0,0,1-3.582-1.692,7.46,7.46,0,0,1-1.384-4.46,13.719,13.719,0,0,1,.059-1.8Zm4.8.337a11.5,11.5,0,0,0-.1,1.641q0,2.432,1.641,2.476a3.073,3.073,0,0,0,2.534-1.362l1.084-6.079a1.951,1.951,0,0,0-1.934-1.392,2.464,2.464,0,0,0-2.175,1.165A7.511,7.511,0,0,0-102.3-7.617ZM-82.449,0a4.3,4.3,0,0,1-.205-1.436A4.889,4.889,0,0,1-86.536.293a4.777,4.777,0,0,1-3.428-1.377,4.139,4.139,0,0,1-1.274-3.267,4.649,4.649,0,0,1,2.153-3.962A10.152,10.152,0,0,1-83.4-9.7l1.611.029.176-.894.059-.776a1.258,1.258,0,0,0-1.333-1.377,1.852,1.852,0,0,0-1.948,1.743l-4.834.015a4.591,4.591,0,0,1,1.04-2.776A6.164,6.164,0,0,1-86-15.549a9.187,9.187,0,0,1,3.538-.593,7.085,7.085,0,0,1,3.157.754,4.7,4.7,0,0,1,2.029,1.978,5.052,5.052,0,0,1,.513,2.922l-1.187,7.456-.073.908a4,4,0,0,0,.278,1.846L-77.761,0ZM-85.2-3.193A3.108,3.108,0,0,0-82.61-4.5l.483-2.549-1.245-.015a3.282,3.282,0,0,0-1.992.681,2.583,2.583,0,0,0-.981,1.78,1.3,1.3,0,0,0,.227.989A1.16,1.16,0,0,0-85.2-3.193Zm16.67-12.671-.322,1.9a5.69,5.69,0,0,1,4.629-2.183,4.181,4.181,0,0,1,2.358.674,3.071,3.071,0,0,1,1.23,1.714,6.032,6.032,0,0,1,4.819-2.388,3.735,3.735,0,0,1,3.259,1.648,6.862,6.862,0,0,1,.769,4.519L-53.445,0h-4.834l1.685-9.978.059-.863q0-1.448-1.362-1.492a3.121,3.121,0,0,0-2.373,1.3L-62.19,0h-4.834l1.67-9.949.059-.878q0-1.507-1.362-1.507A3.1,3.1,0,0,0-69-11.032L-70.95,0h-4.819l2.754-15.85ZM-45.505,0h-4.834l2.754-15.85h4.834Zm-1.655-19.849a2.235,2.235,0,0,1,.754-1.787,2.708,2.708,0,0,1,1.9-.718,2.8,2.8,0,0,1,1.882.645,2.2,2.2,0,0,1,.784,1.685,2.24,2.24,0,0,1-.747,1.794,2.717,2.717,0,0,1-1.9.71,2.831,2.831,0,0,1-1.868-.637A2.171,2.171,0,0,1-47.161-19.849ZM-34.563.293a7.368,7.368,0,0,1-3.787-1,6.322,6.322,0,0,1-2.512-2.754,7.4,7.4,0,0,1-.674-3.889l.044-.41a9.715,9.715,0,0,1,2.717-6.189,7.517,7.517,0,0,1,5.691-2.19A6.129,6.129,0,0,1-29.6-15.108a5.78,5.78,0,0,1,2.124,2.773,8.492,8.492,0,0,1,.439,3.968l-.278,2.01h-9.434a3.09,3.09,0,0,0,.7,2.021,2.582,2.582,0,0,0,1.963.82,4.988,4.988,0,0,0,3.765-1.611l2.021,2.673a5.964,5.964,0,0,1-2.5,1.994A8.772,8.772,0,0,1-34.3.293Zm1.172-12.627a2.479,2.479,0,0,0-1.78.641,5.381,5.381,0,0,0-1.311,2.245h4.819l.088-.423a3.215,3.215,0,0,0,.029-.962A1.7,1.7,0,0,0-33.391-12.334Zm14.092-3.53-.337,1.9a5.634,5.634,0,0,1,4.585-2.2,3.784,3.784,0,0,1,3.274,1.633,6.836,6.836,0,0,1,.784,4.548L-12.664,0H-17.5l1.685-10.017a5.18,5.18,0,0,0,.029-.939q-.1-1.393-1.641-1.393a3.012,3.012,0,0,0-2.329,1.129L-21.731,0H-26.55L-23.8-15.85ZM-.857-19.79l-.688,3.94H.989l-.6,3.428H-2.146l-1.23,7.28a1.941,1.941,0,0,0,.1,1.128q.2.381.989.41a11.455,11.455,0,0,0,1.26-.073L-1.384-.1A7.789,7.789,0,0,1-3.977.264,4.271,4.271,0,0,1-7.332-1.055a4.5,4.5,0,0,1-.908-3.5l1.289-7.866H-8.914l.586-3.428h1.963l.688-3.94Zm9.9,3.647a6.656,6.656,0,0,1,3.677,1.062A5.983,5.983,0,0,1,15-12.2a8.883,8.883,0,0,1,.52,4.1l-.029.322a9.393,9.393,0,0,1-2.71,5.889A7.625,7.625,0,0,1,7.1.293,6.629,6.629,0,0,1,3.45-.754,6.021,6.021,0,0,1,1.172-3.6,8.632,8.632,0,0,1,.637-7.676a9.771,9.771,0,0,1,2.673-6.211A7.578,7.578,0,0,1,9.045-16.143ZM5.457-7.669l-.044.863Q5.208-3.545,7.4-3.486q2.842.088,3.3-4.607l.059-1.331a3.592,3.592,0,0,0-.491-2.1,1.788,1.788,0,0,0-1.531-.812,2.52,2.52,0,0,0-2.19,1.089A7.13,7.13,0,0,0,5.457-7.669ZM24.807,0,26.96-12.422H24.734l.6-3.428,2.08.015.117-.6A7.771,7.771,0,0,1,30.264-21.2a8.459,8.459,0,0,1,5.471-1.626,22.15,22.15,0,0,1,5.039.835l-1.025,3.926a12.738,12.738,0,0,0-3.984-.688,3.877,3.877,0,0,0-2.183.608,3.027,3.027,0,0,0-1.245,1.868l-.1.439,3.179-.015L34.8-12.422h-3L29.641,0ZM39.294,0H34.46L37.2-15.85h4.849Zm10.2-15.864-.337,1.9a5.634,5.634,0,0,1,4.585-2.2,3.784,3.784,0,0,1,3.274,1.633A6.836,6.836,0,0,1,57.8-9.976L56.125,0H51.292l1.685-10.017a5.18,5.18,0,0,0,.029-.939q-.1-1.393-1.641-1.393a3.012,3.012,0,0,0-2.329,1.129L47.058,0H42.239l2.754-15.85ZM67.83,0a4.3,4.3,0,0,1-.205-1.436A4.889,4.889,0,0,1,63.743.293a4.777,4.777,0,0,1-3.428-1.377,4.139,4.139,0,0,1-1.274-3.267,4.649,4.649,0,0,1,2.153-3.962A10.152,10.152,0,0,1,66.877-9.7l1.611.029.176-.894.059-.776a1.258,1.258,0,0,0-1.333-1.377,1.852,1.852,0,0,0-1.948,1.743l-4.834.015a4.591,4.591,0,0,1,1.04-2.776,6.164,6.164,0,0,1,2.629-1.816,9.187,9.187,0,0,1,3.538-.593,7.085,7.085,0,0,1,3.157.754A4.7,4.7,0,0,1,73-13.411a5.052,5.052,0,0,1,.513,2.922L72.327-3.032l-.073.908a4,4,0,0,0,.278,1.846L72.517,0ZM65.076-3.193a3.108,3.108,0,0,0,2.593-1.3l.483-2.549-1.245-.015a3.282,3.282,0,0,0-1.992.681,2.583,2.583,0,0,0-.981,1.78,1.3,1.3,0,0,0,.227.989A1.16,1.16,0,0,0,65.076-3.193ZM81.628-15.864l-.337,1.9a5.634,5.634,0,0,1,4.585-2.2,3.784,3.784,0,0,1,3.274,1.633,6.836,6.836,0,0,1,.784,4.548L88.264,0H83.43l1.685-10.017a5.18,5.18,0,0,0,.029-.939q-.1-1.393-1.641-1.393a3.012,3.012,0,0,0-2.329,1.129L79.2,0H74.377l2.754-15.85ZM98.372-3.516A2.073,2.073,0,0,0,100-4.09a2.861,2.861,0,0,0,.747-1.564l4.512-.015a5.931,5.931,0,0,1-1.033,3.12,6.241,6.241,0,0,1-2.549,2.131,7.535,7.535,0,0,1-3.435.71,5.95,5.95,0,0,1-4.878-2.278A7.877,7.877,0,0,1,91.97-7.72l.044-.352a10.619,10.619,0,0,1,1.348-4.255,7.71,7.71,0,0,1,2.849-2.864,7.389,7.389,0,0,1,3.948-.952,5.893,5.893,0,0,1,4.373,1.765,6.259,6.259,0,0,1,1.545,4.607l-4.512-.015q.073-2.505-1.8-2.549-2.549-.088-2.93,4.278L96.7-6.567l-.015.555Q96.687-3.559,98.372-3.516ZM111.379,0h-4.834L109.3-15.85h4.834Zm-1.655-19.849a2.235,2.235,0,0,1,.754-1.787,2.708,2.708,0,0,1,1.9-.718,2.8,2.8,0,0,1,1.882.645,2.2,2.2,0,0,1,.784,1.685,2.24,2.24,0,0,1-.747,1.794,2.717,2.717,0,0,1-1.9.71,2.831,2.831,0,0,1-1.868-.637A2.171,2.171,0,0,1,109.724-19.849ZM122.322.293a7.368,7.368,0,0,1-3.787-1,6.322,6.322,0,0,1-2.512-2.754,7.4,7.4,0,0,1-.674-3.889l.044-.41a9.715,9.715,0,0,1,2.717-6.189,7.517,7.517,0,0,1,5.691-2.19,6.129,6.129,0,0,1,3.486,1.034,5.78,5.78,0,0,1,2.124,2.773,8.492,8.492,0,0,1,.439,3.968l-.278,2.01h-9.434a3.09,3.09,0,0,0,.7,2.021,2.582,2.582,0,0,0,1.963.82,4.988,4.988,0,0,0,3.765-1.611l2.021,2.673a5.964,5.964,0,0,1-2.5,1.994,8.772,8.772,0,0,1-3.508.752Zm1.172-12.627a2.479,2.479,0,0,0-1.78.641A5.381,5.381,0,0,0,120.4-9.448h4.819l.088-.423a3.215,3.215,0,0,0,.029-.962A1.7,1.7,0,0,0,123.494-12.334Zm18.384.952a13.788,13.788,0,0,0-1.494-.146,3.721,3.721,0,0,0-3.311,1.494L135.286,0h-4.819l2.754-15.85,4.5-.015-.366,2.08q1.553-2.4,3.662-2.4a6.906,6.906,0,0,1,1.494.205Zm8.452-4.761a6.656,6.656,0,0,1,3.677,1.062,5.983,5.983,0,0,1,2.278,2.878,8.883,8.883,0,0,1,.52,4.1l-.029.322a9.393,9.393,0,0,1-2.71,5.889A7.625,7.625,0,0,1,148.381.293a6.629,6.629,0,0,1-3.647-1.047A6.021,6.021,0,0,1,142.456-3.6a8.632,8.632,0,0,1-.535-4.072,9.771,9.771,0,0,1,2.673-6.211A7.578,7.578,0,0,1,150.33-16.143Zm-3.589,8.474-.044.863q-.205,3.261,1.992,3.32,2.842.088,3.3-4.607l.059-1.331a3.592,3.592,0,0,0-.491-2.1,1.788,1.788,0,0,0-1.531-.812,2.52,2.52,0,0,0-2.19,1.089A7.13,7.13,0,0,0,146.741-7.669Zm33.735-2.907h-13.2l.674-3.809h13.184Zm-1.113,6.431h-13.2l.674-3.809h13.184Z" transform="translate(4899 -5139)" fill="#12263f"/>
  </g>
</svg>
