<svg xmlns="http://www.w3.org/2000/svg" xmlns:xlink="http://www.w3.org/1999/xlink" width="889" height="175" viewBox="0 0 889 175">
  <defs>
    <filter id="Trazado_192577" x="0" y="0" width="889" height="175" filterUnits="userSpaceOnUse">
      <feOffset dy="3" input="SourceAlpha"/>
      <feGaussianBlur stdDeviation="3" result="blur"/>
      <feFlood flood-opacity="0.161"/>
      <feComposite operator="in" in2="blur"/>
      <feComposite in="SourceGraphic"/>
    </filter>
  </defs>
  <g id="Grupo_129151" data-name="Grupo 129151" transform="translate(-4671 4765)">
    <g transform="matrix(1, 0, 0, 1, 4671, -4765)" filter="url(#Trazado_192577)">
      <path id="Trazado_192577-2" data-name="Trazado 192577" d="M20,0H851a20,20,0,0,1,20,20V137a20,20,0,0,1-20,20H20A20,20,0,0,1,0,137V20A20,20,0,0,1,20,0Z" transform="translate(9 6)" fill="#fff"/>
    </g>
    <path id="Trazado_192581" data-name="Trazado 192581" d="M22.274,28.378a7.679,7.679,0,0,1-3.5,2.175,15.238,15.238,0,0,1-5.1.725,7.736,7.736,0,0,1-4.526-1.348,7.174,7.174,0,0,1-2.637-3.677,11.967,11.967,0,0,1-.425-5.317l.117-.879A13.537,13.537,0,0,1,9.7,12.191,9.02,9.02,0,0,1,16.6,9.364,7.767,7.767,0,0,1,22.1,11.283a7.87,7.87,0,0,1,2.139,5.376l-4.8-.015a3.913,3.913,0,0,0-.842-2.494,2.878,2.878,0,0,0-2.1-.831,3.893,3.893,0,0,0-3.34,1.588,10.082,10.082,0,0,0-1.8,4.748,18.713,18.713,0,0,0-.293,4.1q.22,3.527,3.179,3.571a5.375,5.375,0,0,0,3.135-.864l.659-3.325H14.554l.615-3.53h8.481ZM33.29,31a4.3,4.3,0,0,1-.205-1.436A4.889,4.889,0,0,1,29.2,31.293a4.777,4.777,0,0,1-3.428-1.377A4.139,4.139,0,0,1,24.5,26.649a4.649,4.649,0,0,1,2.153-3.962A10.152,10.152,0,0,1,32.337,21.3l1.611.029.176-.894.059-.776a1.258,1.258,0,0,0-1.333-1.377A1.852,1.852,0,0,0,30.9,20.028l-4.834.015a4.591,4.591,0,0,1,1.04-2.776,6.164,6.164,0,0,1,2.629-1.816,9.187,9.187,0,0,1,3.538-.593,7.085,7.085,0,0,1,3.157.754,4.7,4.7,0,0,1,2.029,1.978,5.052,5.052,0,0,1,.513,2.922l-1.187,7.456-.073.908a4,4,0,0,0,.278,1.846L37.977,31Zm-2.754-3.193a3.108,3.108,0,0,0,2.593-1.3l.483-2.549-1.245-.015a3.282,3.282,0,0,0-1.992.681,2.583,2.583,0,0,0-.981,1.78,1.3,1.3,0,0,0,.227.989A1.16,1.16,0,0,0,30.536,27.807Zm18.34-1.348q.19-.967-1.494-1.45l-1.04-.264a8.009,8.009,0,0,1-3.735-1.89,3.74,3.74,0,0,1-1.113-2.886,4.6,4.6,0,0,1,2.029-3.713,7.721,7.721,0,0,1,4.768-1.4,7.153,7.153,0,0,1,4.534,1.421,4.635,4.635,0,0,1,1.765,3.75l-4.8-.015q.059-1.875-1.655-1.875a2.361,2.361,0,0,0-1.362.432,1.679,1.679,0,0,0-.747,1.15q-.249,1.187,2.095,1.626a12.174,12.174,0,0,1,3.149,1.121,4.7,4.7,0,0,1,1.7,1.575A3.916,3.916,0,0,1,53.5,26.3a4.236,4.236,0,0,1-.937,2.563,6.07,6.07,0,0,1-2.585,1.8,9.261,9.261,0,0,1-3.669.63,7.448,7.448,0,0,1-3.186-.718,5.681,5.681,0,0,1-2.3-1.912,4.965,4.965,0,0,1-.857-2.776l4.482.029A1.851,1.851,0,0,0,46.561,28a2.769,2.769,0,0,0,1.523-.4A1.742,1.742,0,0,0,48.875,26.459ZM64.037,11.21l-.688,3.94h2.534l-.6,3.428H62.748l-1.23,7.28a1.941,1.941,0,0,0,.1,1.128q.2.381.989.41a11.455,11.455,0,0,0,1.26-.073L63.509,30.9a7.789,7.789,0,0,1-2.593.366,4.271,4.271,0,0,1-3.354-1.318,4.5,4.5,0,0,1-.908-3.5l1.289-7.866H55.98l.586-3.428h1.963l.688-3.94Zm9.9,3.647a6.656,6.656,0,0,1,3.677,1.062A5.983,5.983,0,0,1,79.894,18.8a8.883,8.883,0,0,1,.52,4.1l-.029.322a9.393,9.393,0,0,1-2.71,5.889,7.625,7.625,0,0,1-5.684,2.183,6.629,6.629,0,0,1-3.647-1.047A6.021,6.021,0,0,1,66.065,27.4a8.632,8.632,0,0,1-.535-4.072A9.771,9.771,0,0,1,68.2,17.113,7.578,7.578,0,0,1,73.939,14.857ZM70.35,23.331l-.044.863q-.205,3.261,1.992,3.32,2.842.088,3.3-4.607l.059-1.331a3.592,3.592,0,0,0-.491-2.1,1.788,1.788,0,0,0-1.531-.812,2.52,2.52,0,0,0-2.19,1.089A7.13,7.13,0,0,0,70.35,23.331Zm19.775,3.128q.19-.967-1.494-1.45l-1.04-.264a8.009,8.009,0,0,1-3.735-1.89,3.74,3.74,0,0,1-1.113-2.886,4.6,4.6,0,0,1,2.029-3.713,7.721,7.721,0,0,1,4.768-1.4,7.153,7.153,0,0,1,4.534,1.421,4.635,4.635,0,0,1,1.765,3.75l-4.8-.015q.059-1.875-1.655-1.875a2.361,2.361,0,0,0-1.362.432,1.679,1.679,0,0,0-.747,1.15q-.249,1.187,2.095,1.626a12.174,12.174,0,0,1,3.149,1.121,4.7,4.7,0,0,1,1.7,1.575,3.916,3.916,0,0,1,.542,2.256,4.236,4.236,0,0,1-.937,2.563,6.07,6.07,0,0,1-2.585,1.8,9.261,9.261,0,0,1-3.669.63,7.448,7.448,0,0,1-3.186-.718,5.681,5.681,0,0,1-2.3-1.912,4.965,4.965,0,0,1-.857-2.776l4.482.029A1.851,1.851,0,0,0,87.811,28a2.769,2.769,0,0,0,1.523-.4A1.742,1.742,0,0,0,90.125,26.459ZM104.759,31l2.153-12.422h-2.227l.6-3.428,2.08.015.117-.6A7.771,7.771,0,0,1,110.216,9.8a8.459,8.459,0,0,1,5.471-1.626,22.15,22.15,0,0,1,5.039.835L119.7,12.938a12.738,12.738,0,0,0-3.984-.688,3.877,3.877,0,0,0-2.183.608,3.027,3.027,0,0,0-1.245,1.868l-.1.439,3.179-.015-.615,3.428h-3L109.593,31Zm14.487,0h-4.834l2.739-15.85H122Zm10.2-15.864-.337,1.9a5.634,5.634,0,0,1,4.585-2.2,3.784,3.784,0,0,1,3.274,1.633,6.836,6.836,0,0,1,.784,4.548L136.078,31h-4.834l1.685-10.017a5.18,5.18,0,0,0,.029-.939q-.1-1.393-1.641-1.393a3.012,3.012,0,0,0-2.329,1.129L127.01,31h-4.819l2.754-15.85ZM147.782,31a4.3,4.3,0,0,1-.205-1.436,4.889,4.889,0,0,1-3.882,1.729,4.777,4.777,0,0,1-3.428-1.377,4.139,4.139,0,0,1-1.274-3.267,4.649,4.649,0,0,1,2.153-3.962A10.152,10.152,0,0,1,146.83,21.3l1.611.029.176-.894.059-.776a1.258,1.258,0,0,0-1.333-1.377,1.852,1.852,0,0,0-1.948,1.743l-4.834.015a4.591,4.591,0,0,1,1.04-2.776,6.164,6.164,0,0,1,2.629-1.816,9.187,9.187,0,0,1,3.538-.593,7.085,7.085,0,0,1,3.157.754,4.7,4.7,0,0,1,2.029,1.978,5.052,5.052,0,0,1,.513,2.922l-1.187,7.456-.073.908a4,4,0,0,0,.278,1.846l-.015.278Zm-2.754-3.193a3.108,3.108,0,0,0,2.593-1.3l.483-2.549-1.245-.015a3.282,3.282,0,0,0-1.992.681,2.583,2.583,0,0,0-.981,1.78,1.3,1.3,0,0,0,.227.989A1.16,1.16,0,0,0,145.028,27.807Zm16.553-12.671-.337,1.9a5.634,5.634,0,0,1,4.585-2.2,3.784,3.784,0,0,1,3.274,1.633,6.836,6.836,0,0,1,.784,4.548L168.216,31h-4.834l1.685-10.017a5.18,5.18,0,0,0,.029-.939q-.1-1.393-1.641-1.393a3.012,3.012,0,0,0-2.329,1.129L159.149,31H154.33l2.754-15.85Zm16.743,12.349a2.073,2.073,0,0,0,1.626-.575,2.861,2.861,0,0,0,.747-1.564l4.512-.015a5.931,5.931,0,0,1-1.033,3.12,6.241,6.241,0,0,1-2.549,2.131,7.535,7.535,0,0,1-3.435.71,5.95,5.95,0,0,1-4.878-2.278,7.877,7.877,0,0,1-1.392-5.735l.044-.352a10.619,10.619,0,0,1,1.348-4.255,7.71,7.71,0,0,1,2.849-2.864,7.389,7.389,0,0,1,3.948-.952,5.893,5.893,0,0,1,4.373,1.765,6.259,6.259,0,0,1,1.545,4.607l-4.512-.015q.073-2.505-1.8-2.549-2.549-.088-2.93,4.278l-.132,1.489-.015.555Q176.639,27.441,178.324,27.484ZM191.332,31H186.5l2.754-15.85h4.834Zm-1.655-19.849a2.235,2.235,0,0,1,.754-1.787,2.708,2.708,0,0,1,1.9-.718,2.8,2.8,0,0,1,1.882.645,2.2,2.2,0,0,1,.784,1.685,2.24,2.24,0,0,1-.747,1.794,2.717,2.717,0,0,1-1.9.71,2.831,2.831,0,0,1-1.868-.637A2.171,2.171,0,0,1,189.676,11.151Zm12.6,20.142a7.368,7.368,0,0,1-3.787-1,6.322,6.322,0,0,1-2.512-2.754,7.4,7.4,0,0,1-.674-3.889l.044-.41a9.715,9.715,0,0,1,2.717-6.189,7.517,7.517,0,0,1,5.691-2.19,6.129,6.129,0,0,1,3.486,1.034,5.78,5.78,0,0,1,2.124,2.773,8.492,8.492,0,0,1,.439,3.968l-.278,2.01h-9.434a3.09,3.09,0,0,0,.7,2.021,2.582,2.582,0,0,0,1.963.82,4.988,4.988,0,0,0,3.765-1.611l2.021,2.673a5.964,5.964,0,0,1-2.5,1.994,8.772,8.772,0,0,1-3.508.752Zm1.172-12.627a2.479,2.479,0,0,0-1.78.641,5.381,5.381,0,0,0-1.311,2.245h4.819l.088-.423a3.215,3.215,0,0,0,.029-.962A1.7,1.7,0,0,0,203.446,18.666Zm18.384.952a13.788,13.788,0,0,0-1.494-.146,3.721,3.721,0,0,0-3.311,1.494L215.238,31h-4.819l2.754-15.85,4.5-.015-.366,2.08q1.553-2.4,3.662-2.4a6.906,6.906,0,0,1,1.494.205Zm8.452-4.761a6.656,6.656,0,0,1,3.677,1.062,5.983,5.983,0,0,1,2.278,2.878,8.883,8.883,0,0,1,.52,4.1l-.029.322a9.393,9.393,0,0,1-2.71,5.889,7.625,7.625,0,0,1-5.684,2.183,6.629,6.629,0,0,1-3.647-1.047,6.021,6.021,0,0,1-2.278-2.849,8.632,8.632,0,0,1-.535-4.072,9.771,9.771,0,0,1,2.673-6.211A7.578,7.578,0,0,1,230.282,14.857Zm-3.589,8.474-.044.863q-.205,3.261,1.992,3.32,2.842.088,3.3-4.607L232,21.576a3.592,3.592,0,0,0-.491-2.1,1.788,1.788,0,0,0-1.531-.812,2.52,2.52,0,0,0-2.19,1.089A7.13,7.13,0,0,0,226.693,23.331Zm19.775,3.128q.19-.967-1.494-1.45l-1.04-.264a8.009,8.009,0,0,1-3.735-1.89,3.74,3.74,0,0,1-1.113-2.886,4.6,4.6,0,0,1,2.029-3.713,7.721,7.721,0,0,1,4.768-1.4,7.153,7.153,0,0,1,4.534,1.421,4.635,4.635,0,0,1,1.765,3.75l-4.8-.015q.059-1.875-1.655-1.875a2.361,2.361,0,0,0-1.362.432,1.679,1.679,0,0,0-.747,1.15q-.249,1.187,2.095,1.626a12.174,12.174,0,0,1,3.149,1.121,4.7,4.7,0,0,1,1.7,1.575A3.916,3.916,0,0,1,251.1,26.3a4.236,4.236,0,0,1-.937,2.563,6.07,6.07,0,0,1-2.585,1.8,9.261,9.261,0,0,1-3.669.63,7.448,7.448,0,0,1-3.186-.718,5.681,5.681,0,0,1-2.3-1.912,4.965,4.965,0,0,1-.857-2.776l4.482.029A1.851,1.851,0,0,0,244.154,28a2.769,2.769,0,0,0,1.523-.4A1.742,1.742,0,0,0,246.468,26.459Z" transform="translate(5164.632 -4721.5)" fill="#12263f"/>
    <path id="Trazado_191526" data-name="Trazado 191526" d="M-7037.859-7551h257.346" transform="translate(12202.491 2871.5)" fill="none" stroke="#13273e" stroke-linecap="round" stroke-width="2"/>
    <path id="Trazado_192578" data-name="Trazado 192578" d="M50.856,25.141,57.389,9.672h5.742L52.819,31H47.34L43.766,9.672h5.42Zm17.988,6.152a7.368,7.368,0,0,1-3.787-1,6.322,6.322,0,0,1-2.512-2.754,7.4,7.4,0,0,1-.674-3.889l.044-.41a9.715,9.715,0,0,1,2.717-6.189,7.517,7.517,0,0,1,5.691-2.19,6.129,6.129,0,0,1,3.486,1.034,5.78,5.78,0,0,1,2.124,2.773,8.492,8.492,0,0,1,.439,3.968l-.278,2.01H66.662a3.09,3.09,0,0,0,.7,2.021,2.582,2.582,0,0,0,1.963.82,4.988,4.988,0,0,0,3.765-1.611l2.021,2.673a5.964,5.964,0,0,1-2.5,1.994,8.772,8.772,0,0,1-3.508.752Zm1.172-12.627a2.479,2.479,0,0,0-1.78.641,5.381,5.381,0,0,0-1.311,2.245h4.819l.088-.423a3.215,3.215,0,0,0,.029-.962A1.7,1.7,0,0,0,70.016,18.666Zm14.092-3.53-.337,1.9a5.634,5.634,0,0,1,4.585-2.2,3.784,3.784,0,0,1,3.274,1.633,6.836,6.836,0,0,1,.784,4.548L90.744,31H85.91l1.685-10.017a5.18,5.18,0,0,0,.029-.939q-.1-1.393-1.641-1.393a3.012,3.012,0,0,0-2.329,1.129L81.676,31H76.857l2.754-15.85ZM102.55,11.21l-.688,3.94H104.4l-.6,3.428h-2.534l-1.23,7.28a1.941,1.941,0,0,0,.1,1.128q.2.381.989.41a11.455,11.455,0,0,0,1.26-.073l-.352,3.574a7.789,7.789,0,0,1-2.593.366,4.271,4.271,0,0,1-3.354-1.318,4.5,4.5,0,0,1-.908-3.5l1.289-7.866H94.494l.586-3.428h1.963l.688-3.94ZM112.584,31a4.3,4.3,0,0,1-.205-1.436,4.889,4.889,0,0,1-3.882,1.729,4.777,4.777,0,0,1-3.428-1.377,4.139,4.139,0,0,1-1.274-3.267,4.649,4.649,0,0,1,2.153-3.962,10.152,10.152,0,0,1,5.684-1.384l1.611.029.176-.894.059-.776a1.258,1.258,0,0,0-1.333-1.377,1.852,1.852,0,0,0-1.948,1.743l-4.834.015a4.591,4.591,0,0,1,1.04-2.776,6.164,6.164,0,0,1,2.629-1.816,9.187,9.187,0,0,1,3.538-.593,7.085,7.085,0,0,1,3.157.754,4.7,4.7,0,0,1,2.029,1.978,5.052,5.052,0,0,1,.513,2.922l-1.187,7.456-.073.908a4,4,0,0,0,.278,1.846l-.015.278Zm-2.754-3.193a3.108,3.108,0,0,0,2.593-1.3l.483-2.549-1.245-.015a3.282,3.282,0,0,0-1.992.681,2.583,2.583,0,0,0-.981,1.78,1.3,1.3,0,0,0,.227.989A1.16,1.16,0,0,0,109.831,27.807Zm18.34-1.348q.19-.967-1.494-1.45l-1.04-.264a8.009,8.009,0,0,1-3.735-1.89,3.74,3.74,0,0,1-1.113-2.886,4.6,4.6,0,0,1,2.029-3.713,7.721,7.721,0,0,1,4.768-1.4,7.153,7.153,0,0,1,4.534,1.421,4.635,4.635,0,0,1,1.765,3.75l-4.8-.015q.059-1.875-1.655-1.875a2.361,2.361,0,0,0-1.362.432,1.679,1.679,0,0,0-.747,1.15q-.249,1.187,2.095,1.626a12.174,12.174,0,0,1,3.149,1.121,4.7,4.7,0,0,1,1.7,1.575A3.916,3.916,0,0,1,132.8,26.3a4.236,4.236,0,0,1-.937,2.563,6.07,6.07,0,0,1-2.585,1.8,9.261,9.261,0,0,1-3.669.63,7.448,7.448,0,0,1-3.186-.718,5.681,5.681,0,0,1-2.3-1.912,4.965,4.965,0,0,1-.857-2.776l4.482.029A1.851,1.851,0,0,0,125.856,28a2.769,2.769,0,0,0,1.523-.4A1.742,1.742,0,0,0,128.17,26.459Zm20.669-11.323-.337,1.9a5.634,5.634,0,0,1,4.585-2.2,3.784,3.784,0,0,1,3.274,1.633,6.836,6.836,0,0,1,.784,4.548L155.475,31h-4.834l1.685-10.017a5.18,5.18,0,0,0,.029-.939q-.1-1.393-1.641-1.393a3.012,3.012,0,0,0-2.329,1.129L146.408,31h-4.819l2.754-15.85Zm17.285,16.157a7.368,7.368,0,0,1-3.787-1,6.322,6.322,0,0,1-2.512-2.754,7.4,7.4,0,0,1-.674-3.889l.044-.41a9.715,9.715,0,0,1,2.717-6.189,7.517,7.517,0,0,1,5.691-2.19,6.129,6.129,0,0,1,3.486,1.034,5.78,5.78,0,0,1,2.124,2.773,8.492,8.492,0,0,1,.439,3.968l-.278,2.01h-9.434a3.09,3.09,0,0,0,.7,2.021,2.582,2.582,0,0,0,1.963.82,4.988,4.988,0,0,0,3.765-1.611l2.021,2.673a5.964,5.964,0,0,1-2.5,1.994,8.772,8.772,0,0,1-3.508.752ZM167.3,18.666a2.479,2.479,0,0,0-1.78.641,5.381,5.381,0,0,0-1.311,2.245h4.819l.088-.423a3.215,3.215,0,0,0,.029-.962A1.7,1.7,0,0,0,167.3,18.666Zm15.981-7.456-.688,3.94h2.534l-.6,3.428h-2.534l-1.23,7.28a1.941,1.941,0,0,0,.1,1.128q.2.381.989.41a11.455,11.455,0,0,0,1.26-.073L182.75,30.9a7.789,7.789,0,0,1-2.593.366,4.271,4.271,0,0,1-3.354-1.318,4.5,4.5,0,0,1-.908-3.5l1.289-7.866h-1.963l.586-3.428h1.963l.688-3.94ZM193.312,31a4.3,4.3,0,0,1-.205-1.436,4.889,4.889,0,0,1-3.882,1.729,4.777,4.777,0,0,1-3.428-1.377,4.139,4.139,0,0,1-1.274-3.267,4.649,4.649,0,0,1,2.153-3.962A10.152,10.152,0,0,1,192.36,21.3l1.611.029.176-.894.059-.776a1.258,1.258,0,0,0-1.333-1.377,1.852,1.852,0,0,0-1.948,1.743l-4.834.015a4.591,4.591,0,0,1,1.04-2.776,6.164,6.164,0,0,1,2.629-1.816,9.187,9.187,0,0,1,3.538-.593,7.085,7.085,0,0,1,3.157.754,4.7,4.7,0,0,1,2.029,1.978A5.052,5.052,0,0,1,199,20.512l-1.187,7.456-.073.908a4,4,0,0,0,.278,1.846L198,31Zm-2.754-3.193a3.108,3.108,0,0,0,2.593-1.3l.483-2.549-1.245-.015a3.282,3.282,0,0,0-1.992.681,2.583,2.583,0,0,0-.981,1.78,1.3,1.3,0,0,0,.227.989A1.16,1.16,0,0,0,190.558,27.807Zm18.34-1.348q.19-.967-1.494-1.45l-1.04-.264a8.009,8.009,0,0,1-3.735-1.89,3.74,3.74,0,0,1-1.113-2.886,4.6,4.6,0,0,1,2.029-3.713,7.721,7.721,0,0,1,4.768-1.4,7.153,7.153,0,0,1,4.534,1.421,4.635,4.635,0,0,1,1.765,3.75l-4.8-.015q.059-1.875-1.655-1.875a2.361,2.361,0,0,0-1.362.432,1.679,1.679,0,0,0-.747,1.15q-.249,1.187,2.095,1.626a12.174,12.174,0,0,1,3.149,1.121,4.7,4.7,0,0,1,1.7,1.575,3.916,3.916,0,0,1,.542,2.256,4.236,4.236,0,0,1-.937,2.563,6.07,6.07,0,0,1-2.585,1.8,9.261,9.261,0,0,1-3.669.63,7.448,7.448,0,0,1-3.186-.718,5.681,5.681,0,0,1-2.3-1.912,4.965,4.965,0,0,1-.857-2.776l4.482.029A1.851,1.851,0,0,0,206.583,28a2.769,2.769,0,0,0,1.523-.4A1.742,1.742,0,0,0,208.9,26.459Z" transform="translate(5164.632 -4675.5)" fill="#12263f"/>
    <path id="Trazado_192579" data-name="Trazado 192579" d="M19.03,18.9h4.849l-.732,4.233H18.313L17.3,28.861H12.8l1-5.728H8.938L9.67,18.9h4.863l.967-5.566H20ZM41.926,31H37.092l2.725-15.674-4.966,1.406.674-3.911,9.434-3.149.542-.015Zm13.813.293a6.354,6.354,0,0,1-3.171-.857,5.3,5.3,0,0,1-2.087-2.388,9.036,9.036,0,0,1-.791-3.582,13.651,13.651,0,0,1,.088-2.183l.557-3.721a12.613,12.613,0,0,1,2.886-6.877,7.137,7.137,0,0,1,5.64-2.307,5.631,5.631,0,0,1,4.358,1.875,7.768,7.768,0,0,1,1.692,4.951,14.915,14.915,0,0,1-.1,2.183l-.586,3.794a12.5,12.5,0,0,1-2.908,6.87A7.14,7.14,0,0,1,55.739,31.293ZM60.09,17.729a16.836,16.836,0,0,0,.146-1.8q0-2.681-1.7-2.769-2.607-.132-3.237,4.468L54.523,22.9a16.68,16.68,0,0,0-.146,1.8q-.073,2.71,1.685,2.813,2.651.132,3.267-4.585ZM72.731,31.293a6.354,6.354,0,0,1-3.171-.857,5.3,5.3,0,0,1-2.087-2.388,9.036,9.036,0,0,1-.791-3.582,13.651,13.651,0,0,1,.088-2.183l.557-3.721a12.613,12.613,0,0,1,2.886-6.877,7.137,7.137,0,0,1,5.64-2.307,5.631,5.631,0,0,1,4.358,1.875A7.768,7.768,0,0,1,81.9,16.205a14.915,14.915,0,0,1-.1,2.183l-.586,3.794a12.5,12.5,0,0,1-2.908,6.87A7.14,7.14,0,0,1,72.731,31.293Zm4.351-13.564a16.836,16.836,0,0,0,.146-1.8q0-2.681-1.7-2.769-2.607-.132-3.237,4.468L71.516,22.9a16.68,16.68,0,0,0-.146,1.8q-.073,2.71,1.685,2.813,2.651.132,3.267-4.585Z" transform="translate(5421.978 -4698)" fill="#12263f"/>
    <path id="Trazado_192580" data-name="Trazado 192580" d="M11.76,31H6.75L10.456,9.672h5ZM22.38,15.136l-.322,1.9a5.69,5.69,0,0,1,4.629-2.183,4.181,4.181,0,0,1,2.358.674,3.071,3.071,0,0,1,1.23,1.714,6.032,6.032,0,0,1,4.819-2.388,3.735,3.735,0,0,1,3.259,1.648,6.862,6.862,0,0,1,.769,4.519L37.468,31H32.634l1.685-9.978.059-.863q0-1.448-1.362-1.492a3.121,3.121,0,0,0-2.373,1.3L28.723,31H23.889l1.67-9.949.059-.878q0-1.507-1.362-1.507a3.1,3.1,0,0,0-2.344,1.3L19.963,31H15.144L17.9,15.15Zm33.6,7.954a13.166,13.166,0,0,1-1.3,4.431,7.246,7.246,0,0,1-2.468,2.886,5.7,5.7,0,0,1-3.289.9,4.306,4.306,0,0,1-3.369-1.641l-1.436,7.427H39.3L43.107,15.15l4.453-.015-.249,1.509a4.659,4.659,0,0,1,3.765-1.787,4.436,4.436,0,0,1,3.611,1.655,7.314,7.314,0,0,1,1.384,4.438A17.123,17.123,0,0,1,55.983,23.09ZM51.3,21.127q-.073-2.417-1.641-2.461a2.841,2.841,0,0,0-2.534,1.245L45.993,26.2a1.956,1.956,0,0,0,2.021,1.3q2.563.044,3.149-4.409Q51.3,21.684,51.3,21.127ZM65.783,31a4.3,4.3,0,0,1-.205-1.436A4.889,4.889,0,0,1,61.7,31.293a4.777,4.777,0,0,1-3.428-1.377,4.139,4.139,0,0,1-1.274-3.267,4.649,4.649,0,0,1,2.153-3.962A10.152,10.152,0,0,1,64.831,21.3l1.611.029.176-.894.059-.776a1.258,1.258,0,0,0-1.333-1.377A1.852,1.852,0,0,0,63.4,20.028l-4.834.015a4.591,4.591,0,0,1,1.04-2.776,6.164,6.164,0,0,1,2.629-1.816,9.187,9.187,0,0,1,3.538-.593,7.085,7.085,0,0,1,3.157.754,4.7,4.7,0,0,1,2.029,1.978,5.052,5.052,0,0,1,.513,2.922L70.28,27.968l-.073.908a4,4,0,0,0,.278,1.846L70.471,31Zm-2.754-3.193a3.108,3.108,0,0,0,2.593-1.3l.483-2.549-1.245-.015a3.282,3.282,0,0,0-1.992.681,2.583,2.583,0,0,0-.981,1.78,1.3,1.3,0,0,0,.227.989A1.16,1.16,0,0,0,63.029,27.807Zm16.743-.322A2.073,2.073,0,0,0,81.4,26.91a2.861,2.861,0,0,0,.747-1.564l4.512-.015a5.931,5.931,0,0,1-1.033,3.12,6.241,6.241,0,0,1-2.549,2.131,7.535,7.535,0,0,1-3.435.71,5.95,5.95,0,0,1-4.878-2.278,7.877,7.877,0,0,1-1.392-5.735l.044-.352a10.619,10.619,0,0,1,1.348-4.255,7.71,7.71,0,0,1,2.849-2.864,7.389,7.389,0,0,1,3.948-.952,5.893,5.893,0,0,1,4.373,1.765,6.259,6.259,0,0,1,1.545,4.607l-4.512-.015q.073-2.505-1.8-2.549-2.549-.088-2.93,4.278L78.1,24.433l-.015.555Q78.088,27.441,79.772,27.484ZM96.735,11.21l-.688,3.94h2.534l-.6,3.428H95.446l-1.23,7.28a1.941,1.941,0,0,0,.1,1.128q.2.381.989.41a11.455,11.455,0,0,0,1.26-.073L96.208,30.9a7.789,7.789,0,0,1-2.593.366,4.271,4.271,0,0,1-3.354-1.318,4.5,4.5,0,0,1-.908-3.5l1.289-7.866H88.679l.586-3.428h1.963l.688-3.94Zm9.9,3.647a6.656,6.656,0,0,1,3.677,1.062,5.983,5.983,0,0,1,2.278,2.878,8.883,8.883,0,0,1,.52,4.1l-.029.322a9.393,9.393,0,0,1-2.71,5.889,7.625,7.625,0,0,1-5.684,2.183,6.629,6.629,0,0,1-3.647-1.047A6.021,6.021,0,0,1,98.764,27.4a8.632,8.632,0,0,1-.535-4.072,9.771,9.771,0,0,1,2.673-6.211A7.578,7.578,0,0,1,106.638,14.857Zm-3.589,8.474-.044.863q-.205,3.261,1.992,3.32,2.842.088,3.3-4.607l.059-1.331a3.592,3.592,0,0,0-.491-2.1,1.788,1.788,0,0,0-1.531-.812,2.52,2.52,0,0,0-2.19,1.089A7.13,7.13,0,0,0,103.049,23.331Zm19.028-.285a11.528,11.528,0,0,1,2.285-6.006,5.663,5.663,0,0,1,4.775-2.183,4.319,4.319,0,0,1,3.354,1.7L134.03,8.5h4.834l-3.9,22.5h-4.292l.205-1.714a4.947,4.947,0,0,1-3.94,2.021,4.366,4.366,0,0,1-3.582-1.692,7.46,7.46,0,0,1-1.384-4.46,13.719,13.719,0,0,1,.059-1.8Zm4.8.337a11.5,11.5,0,0,0-.1,1.641q0,2.432,1.641,2.476a3.073,3.073,0,0,0,2.534-1.362l1.084-6.079a1.951,1.951,0,0,0-1.934-1.392,2.464,2.464,0,0,0-2.175,1.165A7.511,7.511,0,0,0,126.882,23.383Zm18.794,7.91a7.368,7.368,0,0,1-3.787-1,6.322,6.322,0,0,1-2.512-2.754,7.4,7.4,0,0,1-.674-3.889l.044-.41a9.715,9.715,0,0,1,2.717-6.189,7.517,7.517,0,0,1,5.691-2.19,6.129,6.129,0,0,1,3.486,1.034,5.78,5.78,0,0,1,2.124,2.773,8.492,8.492,0,0,1,.439,3.968l-.278,2.01h-9.434a3.09,3.09,0,0,0,.7,2.021,2.582,2.582,0,0,0,1.963.82,4.988,4.988,0,0,0,3.765-1.611l2.021,2.673a5.964,5.964,0,0,1-2.5,1.994,8.772,8.772,0,0,1-3.508.752Zm1.172-12.627a2.479,2.479,0,0,0-1.78.641,5.381,5.381,0,0,0-1.311,2.245h4.819l.088-.423a3.215,3.215,0,0,0,.029-.962A1.7,1.7,0,0,0,146.848,18.666ZM166.271,31h-4.834l3.9-22.5h4.834Zm12,0a4.3,4.3,0,0,1-.205-1.436,4.889,4.889,0,0,1-3.882,1.729,4.777,4.777,0,0,1-3.428-1.377,4.139,4.139,0,0,1-1.274-3.267,4.649,4.649,0,0,1,2.153-3.962,10.152,10.152,0,0,1,5.684-1.384l1.611.029.176-.894.059-.776a1.258,1.258,0,0,0-1.333-1.377,1.852,1.852,0,0,0-1.948,1.743l-4.834.015a4.591,4.591,0,0,1,1.04-2.776,6.164,6.164,0,0,1,2.629-1.816,9.187,9.187,0,0,1,3.538-.593,7.085,7.085,0,0,1,3.157.754,4.7,4.7,0,0,1,2.029,1.978,5.052,5.052,0,0,1,.513,2.922l-1.187,7.456-.073.908a4,4,0,0,0,.278,1.846l-.015.278Zm-2.754-3.193a3.108,3.108,0,0,0,2.593-1.3l.483-2.549-1.245-.015a3.282,3.282,0,0,0-1.992.681,2.583,2.583,0,0,0-.981,1.78,1.3,1.3,0,0,0,.227.989A1.16,1.16,0,0,0,175.515,27.807Zm24.141-.322a2.073,2.073,0,0,0,1.626-.575,2.861,2.861,0,0,0,.747-1.564l4.512-.015a5.931,5.931,0,0,1-1.033,3.12,6.241,6.241,0,0,1-2.549,2.131,7.535,7.535,0,0,1-3.435.71,5.95,5.95,0,0,1-4.878-2.278,7.877,7.877,0,0,1-1.392-5.735l.044-.352a10.619,10.619,0,0,1,1.348-4.255,7.71,7.71,0,0,1,2.849-2.864,7.389,7.389,0,0,1,3.948-.952,5.893,5.893,0,0,1,4.373,1.765,6.259,6.259,0,0,1,1.545,4.607l-4.512-.015q.073-2.505-1.8-2.549-2.549-.088-2.93,4.278l-.132,1.489-.015.555Q197.971,27.441,199.655,27.484ZM216.516,31a4.3,4.3,0,0,1-.205-1.436,4.889,4.889,0,0,1-3.882,1.729A4.777,4.777,0,0,1,209,29.916a4.139,4.139,0,0,1-1.274-3.267,4.649,4.649,0,0,1,2.153-3.962,10.152,10.152,0,0,1,5.684-1.384l1.611.029.176-.894.059-.776a1.258,1.258,0,0,0-1.333-1.377,1.852,1.852,0,0,0-1.948,1.743l-4.834.015a4.591,4.591,0,0,1,1.04-2.776,6.164,6.164,0,0,1,2.629-1.816,9.187,9.187,0,0,1,3.538-.593,7.085,7.085,0,0,1,3.157.754,4.7,4.7,0,0,1,2.029,1.978,5.052,5.052,0,0,1,.513,2.922l-1.187,7.456-.073.908a4,4,0,0,0,.278,1.846L221.2,31Zm-2.754-3.193a3.108,3.108,0,0,0,2.593-1.3l.483-2.549-1.245-.015a3.282,3.282,0,0,0-1.992.681,2.583,2.583,0,0,0-.981,1.78,1.3,1.3,0,0,0,.227.989A1.16,1.16,0,0,0,213.762,27.807Zm20.845-8.188a13.788,13.788,0,0,0-1.494-.146,3.721,3.721,0,0,0-3.311,1.494L228.015,31H223.2l2.754-15.85,4.5-.015-.366,2.08q1.553-2.4,3.662-2.4a6.906,6.906,0,0,1,1.494.205Zm.557,3.428a12.043,12.043,0,0,1,1.311-4.321A7.607,7.607,0,0,1,239.06,15.8a6.226,6.226,0,0,1,3.516-.959,4.328,4.328,0,0,1,3.6,1.714l.513-1.421,4.453.015-2.593,15.234a7.446,7.446,0,0,1-2.827,5.083,9,9,0,0,1-5.947,1.772,8.491,8.491,0,0,1-3.062-.63,6.6,6.6,0,0,1-2.534-1.816l2.285-2.842a4.149,4.149,0,0,0,3.311,1.655q3.208.059,4.072-3.413l.117-.483a4.956,4.956,0,0,1-3.618,1.582,4.887,4.887,0,0,1-2.681-.769,5.056,5.056,0,0,1-1.816-2.175,8.46,8.46,0,0,1-.747-3.164A13.755,13.755,0,0,1,235.163,23.046Zm4.761,1.567a3.844,3.844,0,0,0,.483,2.095,1.639,1.639,0,0,0,1.406.776,3.221,3.221,0,0,0,2.476-1.055l1.245-6.724a2.135,2.135,0,0,0-1.963-1.055,2.8,2.8,0,0,0-2.358,1.194,6.436,6.436,0,0,0-1.2,3.215Q239.924,23.983,239.924,24.613ZM260.168,31a4.3,4.3,0,0,1-.205-1.436,4.889,4.889,0,0,1-3.882,1.729,4.777,4.777,0,0,1-3.428-1.377,4.139,4.139,0,0,1-1.274-3.267,4.649,4.649,0,0,1,2.153-3.962,10.152,10.152,0,0,1,5.684-1.384l1.611.029.176-.894.059-.776a1.258,1.258,0,0,0-1.333-1.377,1.852,1.852,0,0,0-1.948,1.743l-4.834.015a4.591,4.591,0,0,1,1.04-2.776,6.164,6.164,0,0,1,2.629-1.816,9.187,9.187,0,0,1,3.538-.593,7.085,7.085,0,0,1,3.157.754,4.7,4.7,0,0,1,2.029,1.978,5.052,5.052,0,0,1,.513,2.922l-1.187,7.456-.073.908a4,4,0,0,0,.278,1.846l-.015.278Zm-2.754-3.193a3.108,3.108,0,0,0,2.593-1.3l.483-2.549-1.245-.015a3.282,3.282,0,0,0-1.992.681,2.583,2.583,0,0,0-.981,1.78,1.3,1.3,0,0,0,.227.989A1.16,1.16,0,0,0,257.414,27.807ZM282.727,31l2.153-12.422h-2.227l.6-3.428,2.08.015.117-.6A7.771,7.771,0,0,1,288.183,9.8a8.459,8.459,0,0,1,5.471-1.626,22.15,22.15,0,0,1,5.039.835l-1.025,3.926a12.738,12.738,0,0,0-3.984-.688,3.877,3.877,0,0,0-2.183.608,3.027,3.027,0,0,0-1.245,1.868l-.1.439,3.179-.015-.615,3.428h-3L287.561,31Zm14.487,0H292.38l2.739-15.85h4.849Zm10.2-15.864-.337,1.9a5.634,5.634,0,0,1,4.585-2.2,3.784,3.784,0,0,1,3.274,1.633,6.836,6.836,0,0,1,.784,4.548L314.045,31h-4.834L310.9,20.983a5.18,5.18,0,0,0,.029-.939q-.1-1.393-1.641-1.393a3.012,3.012,0,0,0-2.329,1.129L304.978,31h-4.819l2.754-15.85ZM325.749,31a4.3,4.3,0,0,1-.205-1.436,4.889,4.889,0,0,1-3.882,1.729,4.777,4.777,0,0,1-3.428-1.377,4.139,4.139,0,0,1-1.274-3.267,4.649,4.649,0,0,1,2.153-3.962A10.152,10.152,0,0,1,324.8,21.3l1.611.029.176-.894.059-.776a1.258,1.258,0,0,0-1.333-1.377,1.852,1.852,0,0,0-1.948,1.743l-4.834.015a4.591,4.591,0,0,1,1.04-2.776,6.164,6.164,0,0,1,2.629-1.816,9.187,9.187,0,0,1,3.538-.593,7.085,7.085,0,0,1,3.157.754,4.7,4.7,0,0,1,2.029,1.978,5.052,5.052,0,0,1,.513,2.922l-1.187,7.456-.073.908a4,4,0,0,0,.278,1.846l-.015.278ZM323,27.807a3.108,3.108,0,0,0,2.593-1.3l.483-2.549-1.245-.015a3.282,3.282,0,0,0-1.992.681,2.583,2.583,0,0,0-.981,1.78,1.3,1.3,0,0,0,.227.989A1.16,1.16,0,0,0,323,27.807Zm16.553-12.671-.337,1.9a5.634,5.634,0,0,1,4.585-2.2,3.784,3.784,0,0,1,3.274,1.633,6.836,6.836,0,0,1,.784,4.548L346.184,31H341.35l1.685-10.017a5.18,5.18,0,0,0,.029-.939q-.1-1.393-1.641-1.393a3.012,3.012,0,0,0-2.329,1.129L337.116,31H332.3l2.754-15.85Zm16.743,12.349a2.073,2.073,0,0,0,1.626-.575,2.861,2.861,0,0,0,.747-1.564l4.512-.015a5.931,5.931,0,0,1-1.033,3.12,6.241,6.241,0,0,1-2.549,2.131,7.535,7.535,0,0,1-3.435.71,5.95,5.95,0,0,1-4.878-2.278,7.877,7.877,0,0,1-1.392-5.735l.044-.352a10.619,10.619,0,0,1,1.348-4.255,7.71,7.71,0,0,1,2.849-2.864,7.389,7.389,0,0,1,3.948-.952,5.893,5.893,0,0,1,4.373,1.765A6.259,6.259,0,0,1,364,21.229l-4.512-.015q.073-2.505-1.8-2.549-2.549-.088-2.93,4.278l-.132,1.489-.015.555Q354.606,27.441,356.291,27.484ZM369.3,31h-4.834l2.754-15.85h4.834Zm-1.655-19.849a2.235,2.235,0,0,1,.754-1.787,2.708,2.708,0,0,1,1.9-.718,2.8,2.8,0,0,1,1.882.645,2.2,2.2,0,0,1,.784,1.685,2.24,2.24,0,0,1-.747,1.794,2.717,2.717,0,0,1-1.9.71,2.831,2.831,0,0,1-1.868-.637A2.171,2.171,0,0,1,367.644,11.151Zm12.6,20.142a7.368,7.368,0,0,1-3.787-1,6.322,6.322,0,0,1-2.512-2.754,7.4,7.4,0,0,1-.674-3.889l.044-.41a9.715,9.715,0,0,1,2.717-6.189,7.517,7.517,0,0,1,5.691-2.19,6.129,6.129,0,0,1,3.486,1.034,5.78,5.78,0,0,1,2.124,2.773,8.492,8.492,0,0,1,.439,3.968l-.278,2.01h-9.434a3.09,3.09,0,0,0,.7,2.021,2.582,2.582,0,0,0,1.963.82,4.988,4.988,0,0,0,3.765-1.611l2.021,2.673a5.964,5.964,0,0,1-2.5,1.994,8.772,8.772,0,0,1-3.508.752Zm1.172-12.627a2.479,2.479,0,0,0-1.78.641,5.381,5.381,0,0,0-1.311,2.245h4.819l.088-.423a3.215,3.215,0,0,0,.029-.962A1.7,1.7,0,0,0,381.413,18.666Zm18.384.952a13.788,13.788,0,0,0-1.494-.146,3.721,3.721,0,0,0-3.311,1.494L393.205,31h-4.819l2.754-15.85,4.5-.015-.366,2.08q1.553-2.4,3.662-2.4a6.906,6.906,0,0,1,1.494.205Zm8.452-4.761a6.656,6.656,0,0,1,3.677,1.062A5.983,5.983,0,0,1,414.2,18.8a8.883,8.883,0,0,1,.52,4.1l-.029.322a9.393,9.393,0,0,1-2.71,5.889,7.625,7.625,0,0,1-5.684,2.183,6.629,6.629,0,0,1-3.647-1.047,6.021,6.021,0,0,1-2.278-2.849,8.632,8.632,0,0,1-.535-4.072,9.771,9.771,0,0,1,2.673-6.211A7.578,7.578,0,0,1,408.249,14.857Zm-3.589,8.474-.044.863q-.205,3.261,1.992,3.32,2.842.088,3.3-4.607l.059-1.331a3.592,3.592,0,0,0-.491-2.1,1.788,1.788,0,0,0-1.531-.812,2.52,2.52,0,0,0-2.19,1.089A7.13,7.13,0,0,0,404.66,23.331ZM438.4,20.424H425.2l.674-3.809h13.184Zm-1.113,6.431h-13.2l.674-3.809h13.184Z" transform="translate(4717.978 -4699)" fill="#12263f"/>
  </g>
</svg>
