<svg xmlns="http://www.w3.org/2000/svg" xmlns:xlink="http://www.w3.org/1999/xlink" width="957" height="175" viewBox="0 0 957 175">
  <defs>
    <filter id="Trazado_192563" x="0" y="0" width="957" height="175" filterUnits="userSpaceOnUse">
      <feOffset dy="3" input="SourceAlpha"/>
      <feGaussianBlur stdDeviation="3" result="blur"/>
      <feFlood flood-opacity="0.161"/>
      <feComposite operator="in" in2="blur"/>
      <feComposite in="SourceGraphic"/>
    </filter>
  </defs>
  <g id="Grupo_129148" data-name="Grupo 129148" transform="translate(-4637 7099)">
    <g transform="matrix(1, 0, 0, 1, 4637, -7099)" filter="url(#Trazado_192563)">
      <path id="Trazado_192563-2" data-name="Trazado 192563" d="M20,0H919a20,20,0,0,1,20,20V137a20,20,0,0,1-20,20H20A20,20,0,0,1,0,137V20A20,20,0,0,1,20,0Z" transform="translate(9 6)" fill="#fff"/>
    </g>
    <path id="Trazado_192565" data-name="Trazado 192565" d="M25.869,27H19.057l-1.89,4H11.645L22.939,9.672h4.717L31.6,31H26.382Zm-4.937-3.955h4.424l-.937-7.354Zm19.5,4.438a2.073,2.073,0,0,0,1.626-.575,2.861,2.861,0,0,0,.747-1.564l4.512-.015a5.931,5.931,0,0,1-1.033,3.12,6.241,6.241,0,0,1-2.549,2.131,7.535,7.535,0,0,1-3.435.71,5.95,5.95,0,0,1-4.878-2.278,7.877,7.877,0,0,1-1.392-5.735l.044-.352a10.619,10.619,0,0,1,1.348-4.255,7.71,7.71,0,0,1,2.849-2.864,7.389,7.389,0,0,1,3.948-.952,5.893,5.893,0,0,1,4.373,1.765,6.259,6.259,0,0,1,1.545,4.607l-4.512-.015q.073-2.505-1.8-2.549-2.549-.088-2.93,4.278l-.132,1.489-.015.555Q38.745,27.441,40.429,27.484ZM57.392,11.21,56.7,15.15h2.534l-.6,3.428H56.1l-1.23,7.28a1.941,1.941,0,0,0,.1,1.128q.2.381.989.41a11.455,11.455,0,0,0,1.26-.073L56.865,30.9a7.789,7.789,0,0,1-2.593.366,4.271,4.271,0,0,1-3.354-1.318,4.5,4.5,0,0,1-.908-3.5L51.3,18.578H49.336l.586-3.428h1.963l.688-3.94ZM63.574,31H58.74l2.754-15.85h4.834ZM61.919,11.151a2.235,2.235,0,0,1,.754-1.787,2.708,2.708,0,0,1,1.9-.718,2.8,2.8,0,0,1,1.882.645,2.2,2.2,0,0,1,.784,1.685,2.24,2.24,0,0,1-.747,1.794,2.717,2.717,0,0,1-1.9.71,2.831,2.831,0,0,1-1.868-.637A2.171,2.171,0,0,1,61.919,11.151ZM73.8,25.067l3.97-9.917h5.2L75.469,31H70.561L68.027,15.15h4.951Zm17.036-10.21a6.656,6.656,0,0,1,3.677,1.062A5.983,5.983,0,0,1,96.789,18.8a8.883,8.883,0,0,1,.52,4.1l-.029.322a9.393,9.393,0,0,1-2.71,5.889,7.625,7.625,0,0,1-5.684,2.183,6.629,6.629,0,0,1-3.647-1.047A6.021,6.021,0,0,1,82.961,27.4a8.632,8.632,0,0,1-.535-4.072A9.771,9.771,0,0,1,85.1,17.113,7.578,7.578,0,0,1,90.835,14.857Zm-3.589,8.474-.044.863q-.205,3.261,1.992,3.32,2.842.088,3.3-4.607l.059-1.331a3.592,3.592,0,0,0-.491-2.1,1.788,1.788,0,0,0-1.531-.812,2.52,2.52,0,0,0-2.19,1.089A7.13,7.13,0,0,0,87.246,23.331Zm25.576,4.153a2.073,2.073,0,0,0,1.626-.575,2.861,2.861,0,0,0,.747-1.564l4.512-.015a5.931,5.931,0,0,1-1.033,3.12,6.241,6.241,0,0,1-2.549,2.131,7.535,7.535,0,0,1-3.435.71,5.95,5.95,0,0,1-4.878-2.278,7.877,7.877,0,0,1-1.392-5.735l.044-.352a10.619,10.619,0,0,1,1.348-4.255,7.71,7.71,0,0,1,2.849-2.864,7.389,7.389,0,0,1,3.948-.952,5.893,5.893,0,0,1,4.373,1.765,6.259,6.259,0,0,1,1.545,4.607l-4.512-.015q.073-2.505-1.8-2.549-2.549-.088-2.93,4.278l-.132,1.489-.015.555Q111.137,27.441,112.822,27.484ZM129.99,14.857a6.656,6.656,0,0,1,3.677,1.062,5.983,5.983,0,0,1,2.278,2.878,8.883,8.883,0,0,1,.52,4.1l-.029.322a9.393,9.393,0,0,1-2.71,5.889,7.625,7.625,0,0,1-5.684,2.183,6.629,6.629,0,0,1-3.647-1.047,6.021,6.021,0,0,1-2.278-2.849,8.632,8.632,0,0,1-.535-4.072,9.771,9.771,0,0,1,2.673-6.211A7.578,7.578,0,0,1,129.99,14.857ZM126.4,23.331l-.044.863q-.205,3.261,1.992,3.32,2.842.088,3.3-4.607l.059-1.331a3.592,3.592,0,0,0-.491-2.1,1.788,1.788,0,0,0-1.531-.812,2.52,2.52,0,0,0-2.19,1.089A7.13,7.13,0,0,0,126.4,23.331Zm22.28-3.713a13.788,13.788,0,0,0-1.494-.146,3.721,3.721,0,0,0-3.311,1.494L142.09,31H137.27l2.754-15.85,4.5-.015-.366,2.08q1.553-2.4,3.662-2.4a6.906,6.906,0,0,1,1.494.205Zm11.177,0a13.788,13.788,0,0,0-1.494-.146,3.721,3.721,0,0,0-3.311,1.494L153.266,31h-4.819L151.2,15.15l4.5-.015-.366,2.08q1.553-2.4,3.662-2.4a6.906,6.906,0,0,1,1.494.205ZM164.677,31h-4.834L162.6,15.15h4.834Zm-1.655-19.849a2.235,2.235,0,0,1,.754-1.787,2.708,2.708,0,0,1,1.9-.718,2.8,2.8,0,0,1,1.882.645,2.2,2.2,0,0,1,.784,1.685,2.24,2.24,0,0,1-.747,1.794,2.717,2.717,0,0,1-1.9.71,2.831,2.831,0,0,1-1.868-.637A2.171,2.171,0,0,1,163.022,11.151Zm12.6,20.142a7.368,7.368,0,0,1-3.787-1,6.322,6.322,0,0,1-2.512-2.754,7.4,7.4,0,0,1-.674-3.889l.044-.41a9.715,9.715,0,0,1,2.717-6.189,7.517,7.517,0,0,1,5.691-2.19,6.129,6.129,0,0,1,3.486,1.034,5.78,5.78,0,0,1,2.124,2.773,8.492,8.492,0,0,1,.439,3.968l-.278,2.01h-9.434a3.09,3.09,0,0,0,.7,2.021,2.582,2.582,0,0,0,1.963.82,4.988,4.988,0,0,0,3.765-1.611l2.021,2.673a5.964,5.964,0,0,1-2.5,1.994,8.772,8.772,0,0,1-3.508.752Zm1.172-12.627a2.479,2.479,0,0,0-1.78.641,5.381,5.381,0,0,0-1.311,2.245h4.819l.088-.423a3.215,3.215,0,0,0,.029-.962A1.7,1.7,0,0,0,176.792,18.666Zm14.092-3.53-.337,1.9a5.634,5.634,0,0,1,4.585-2.2,3.784,3.784,0,0,1,3.274,1.633,6.836,6.836,0,0,1,.784,4.548L197.519,31h-4.834l1.685-10.017a5.18,5.18,0,0,0,.029-.939q-.1-1.393-1.641-1.393a3.012,3.012,0,0,0-2.329,1.129L188.452,31h-4.819l2.754-15.85Zm18.442-3.926-.688,3.94h2.534l-.6,3.428h-2.534l-1.23,7.28a1.941,1.941,0,0,0,.1,1.128q.2.381.989.41a11.455,11.455,0,0,0,1.26-.073L208.8,30.9a7.789,7.789,0,0,1-2.593.366,4.271,4.271,0,0,1-3.354-1.318,4.5,4.5,0,0,1-.908-3.5l1.289-7.866h-1.963l.586-3.428h1.963l.688-3.94Zm8.979,20.083a7.368,7.368,0,0,1-3.787-1,6.322,6.322,0,0,1-2.512-2.754,7.4,7.4,0,0,1-.674-3.889l.044-.41a9.715,9.715,0,0,1,2.717-6.189,7.517,7.517,0,0,1,5.691-2.19,6.129,6.129,0,0,1,3.486,1.034,5.78,5.78,0,0,1,2.124,2.773,8.492,8.492,0,0,1,.439,3.968l-.278,2.01h-9.434a3.09,3.09,0,0,0,.7,2.021,2.582,2.582,0,0,0,1.963.82,4.988,4.988,0,0,0,3.765-1.611l2.021,2.673a5.964,5.964,0,0,1-2.5,1.994,8.772,8.772,0,0,1-3.508.752Zm1.172-12.627a2.479,2.479,0,0,0-1.78.641,5.381,5.381,0,0,0-1.311,2.245h4.819l.088-.423a3.215,3.215,0,0,0,.029-.962A1.7,1.7,0,0,0,219.477,18.666Zm31.556,3.867H236l.809-3.867h15.029ZM264.917,31h-5.01l3.706-21.328h5Zm10.5-15.864-.337,1.9a5.634,5.634,0,0,1,4.585-2.2,3.784,3.784,0,0,1,3.274,1.633,6.836,6.836,0,0,1,.784,4.548L282.055,31h-4.834l1.685-10.017a5.18,5.18,0,0,0,.029-.939q-.1-1.393-1.641-1.393a3.012,3.012,0,0,0-2.329,1.129L272.988,31h-4.819l2.754-15.85Zm16.567,9.932,3.97-9.917h5.2L293.657,31H288.75l-2.534-15.85h4.951Zm15.894,6.226a7.368,7.368,0,0,1-3.787-1,6.322,6.322,0,0,1-2.512-2.754,7.4,7.4,0,0,1-.674-3.889l.044-.41a9.715,9.715,0,0,1,2.717-6.189,7.517,7.517,0,0,1,5.691-2.19,6.129,6.129,0,0,1,3.486,1.034,5.78,5.78,0,0,1,2.124,2.773,8.492,8.492,0,0,1,.439,3.968l-.278,2.01H305.7a3.09,3.09,0,0,0,.7,2.021,2.582,2.582,0,0,0,1.963.82,4.988,4.988,0,0,0,3.765-1.611l2.021,2.673a5.964,5.964,0,0,1-2.5,1.994,8.772,8.772,0,0,1-3.508.752Zm1.172-12.627a2.479,2.479,0,0,0-1.78.641,5.381,5.381,0,0,0-1.311,2.245h4.819l.088-.423a3.215,3.215,0,0,0,.029-.962A1.7,1.7,0,0,0,309.052,18.666Zm14.092-3.53-.337,1.9a5.634,5.634,0,0,1,4.585-2.2,3.784,3.784,0,0,1,3.274,1.633,6.836,6.836,0,0,1,.784,4.548L329.78,31h-4.834l1.685-10.017a5.18,5.18,0,0,0,.029-.939q-.1-1.393-1.641-1.393a3.012,3.012,0,0,0-2.329,1.129L320.713,31h-4.819l2.754-15.85Zm18.442-3.926-.688,3.94h2.534l-.6,3.428H340.3l-1.23,7.28a1.941,1.941,0,0,0,.1,1.128q.2.381.989.41a11.455,11.455,0,0,0,1.26-.073l-.352,3.574a7.789,7.789,0,0,1-2.593.366,4.271,4.271,0,0,1-3.354-1.318,4.5,4.5,0,0,1-.908-3.5l1.289-7.866H333.53l.586-3.428h1.963l.688-3.94ZM351.621,31a4.3,4.3,0,0,1-.205-1.436,4.889,4.889,0,0,1-3.882,1.729,4.777,4.777,0,0,1-3.428-1.377,4.139,4.139,0,0,1-1.274-3.267,4.649,4.649,0,0,1,2.153-3.962,10.152,10.152,0,0,1,5.684-1.384l1.611.029.176-.894.059-.776a1.258,1.258,0,0,0-1.333-1.377,1.852,1.852,0,0,0-1.948,1.743l-4.834.015a4.591,4.591,0,0,1,1.04-2.776,6.164,6.164,0,0,1,2.629-1.816,9.187,9.187,0,0,1,3.538-.593,7.085,7.085,0,0,1,3.157.754,4.7,4.7,0,0,1,2.029,1.978,5.052,5.052,0,0,1,.513,2.922l-1.187,7.456-.073.908a4,4,0,0,0,.278,1.846l-.015.278Zm-2.754-3.193a3.108,3.108,0,0,0,2.593-1.3l.483-2.549-1.245-.015a3.282,3.282,0,0,0-1.992.681,2.583,2.583,0,0,0-.981,1.78,1.3,1.3,0,0,0,.227.989A1.16,1.16,0,0,0,348.867,27.807Zm20.845-8.188a13.788,13.788,0,0,0-1.494-.146,3.721,3.721,0,0,0-3.311,1.494L363.12,31H358.3l2.754-15.85,4.5-.015-.366,2.08q1.553-2.4,3.662-2.4a6.906,6.906,0,0,1,1.494.205ZM374.531,31H369.7l2.754-15.85h4.834Zm-1.655-19.849a2.235,2.235,0,0,1,.754-1.787,2.708,2.708,0,0,1,1.9-.718,2.8,2.8,0,0,1,1.882.645,2.2,2.2,0,0,1,.784,1.685,2.24,2.24,0,0,1-.747,1.794,2.717,2.717,0,0,1-1.9.71,2.831,2.831,0,0,1-1.868-.637A2.171,2.171,0,0,1,372.876,11.151Zm13.96,3.706a6.656,6.656,0,0,1,3.677,1.062A5.983,5.983,0,0,1,392.79,18.8a8.883,8.883,0,0,1,.52,4.1l-.029.322a9.393,9.393,0,0,1-2.71,5.889,7.625,7.625,0,0,1-5.684,2.183,6.629,6.629,0,0,1-3.647-1.047,6.021,6.021,0,0,1-2.278-2.849,8.632,8.632,0,0,1-.535-4.072,9.771,9.771,0,0,1,2.673-6.211A7.578,7.578,0,0,1,386.836,14.857Zm-3.589,8.474-.044.863q-.205,3.261,1.992,3.32,2.842.088,3.3-4.607l.059-1.331a3.592,3.592,0,0,0-.491-2.1,1.788,1.788,0,0,0-1.531-.812,2.52,2.52,0,0,0-2.19,1.089A7.13,7.13,0,0,0,383.247,23.331Zm19.775,3.128q.19-.967-1.494-1.45l-1.04-.264a8.009,8.009,0,0,1-3.735-1.89,3.74,3.74,0,0,1-1.113-2.886,4.6,4.6,0,0,1,2.029-3.713,7.721,7.721,0,0,1,4.768-1.4,7.153,7.153,0,0,1,4.534,1.421,4.635,4.635,0,0,1,1.765,3.75l-4.8-.015q.059-1.875-1.655-1.875a2.361,2.361,0,0,0-1.362.432,1.679,1.679,0,0,0-.747,1.15q-.249,1.187,2.095,1.626a12.174,12.174,0,0,1,3.149,1.121,4.7,4.7,0,0,1,1.7,1.575,3.916,3.916,0,0,1,.542,2.256,4.236,4.236,0,0,1-.937,2.563,6.07,6.07,0,0,1-2.585,1.8,9.261,9.261,0,0,1-3.669.63,7.448,7.448,0,0,1-3.186-.718,5.681,5.681,0,0,1-2.3-1.912,4.965,4.965,0,0,1-.857-2.776l4.482.029A1.851,1.851,0,0,0,400.708,28a2.769,2.769,0,0,0,1.523-.4A1.742,1.742,0,0,0,403.022,26.459Zm30.736-3.926h-15.03l.809-3.867h15.029Zm26.217,5.845a7.679,7.679,0,0,1-3.5,2.175,15.238,15.238,0,0,1-5.1.725,7.736,7.736,0,0,1-4.526-1.348,7.174,7.174,0,0,1-2.637-3.677,11.967,11.967,0,0,1-.425-5.317l.117-.879a13.537,13.537,0,0,1,3.494-7.866,9.02,9.02,0,0,1,6.907-2.827,7.767,7.767,0,0,1,5.493,1.919,7.87,7.87,0,0,1,2.139,5.376l-4.8-.015a3.913,3.913,0,0,0-.842-2.494,2.878,2.878,0,0,0-2.1-.831,3.893,3.893,0,0,0-3.34,1.588,10.082,10.082,0,0,0-1.8,4.748,18.713,18.713,0,0,0-.293,4.1q.22,3.527,3.179,3.571a5.375,5.375,0,0,0,3.135-.864l.659-3.325h-3.472l.615-3.53h8.481ZM470.991,31a4.3,4.3,0,0,1-.205-1.436,4.889,4.889,0,0,1-3.882,1.729,4.777,4.777,0,0,1-3.428-1.377,4.139,4.139,0,0,1-1.274-3.267,4.649,4.649,0,0,1,2.153-3.962,10.152,10.152,0,0,1,5.684-1.384l1.611.029.176-.894.059-.776a1.258,1.258,0,0,0-1.333-1.377,1.852,1.852,0,0,0-1.948,1.743l-4.834.015a4.591,4.591,0,0,1,1.04-2.776,6.164,6.164,0,0,1,2.629-1.816,9.187,9.187,0,0,1,3.538-.593,7.085,7.085,0,0,1,3.157.754,4.7,4.7,0,0,1,2.029,1.978,5.052,5.052,0,0,1,.513,2.922l-1.187,7.456-.073.908a4,4,0,0,0,.278,1.846l-.015.278Zm-2.754-3.193a3.108,3.108,0,0,0,2.593-1.3l.483-2.549-1.245-.015a3.282,3.282,0,0,0-1.992.681,2.583,2.583,0,0,0-.981,1.78,1.3,1.3,0,0,0,.227.989A1.16,1.16,0,0,0,468.237,27.807Zm18.34-1.348q.19-.967-1.494-1.45l-1.04-.264a8.009,8.009,0,0,1-3.735-1.89,3.74,3.74,0,0,1-1.113-2.886,4.6,4.6,0,0,1,2.029-3.713,7.721,7.721,0,0,1,4.768-1.4,7.153,7.153,0,0,1,4.534,1.421,4.635,4.635,0,0,1,1.765,3.75l-4.8-.015q.059-1.875-1.655-1.875a2.361,2.361,0,0,0-1.362.432,1.679,1.679,0,0,0-.747,1.15q-.249,1.187,2.095,1.626a12.174,12.174,0,0,1,3.149,1.121,4.7,4.7,0,0,1,1.7,1.575,3.916,3.916,0,0,1,.542,2.256,4.236,4.236,0,0,1-.937,2.563,6.07,6.07,0,0,1-2.585,1.8,9.261,9.261,0,0,1-3.669.63,7.448,7.448,0,0,1-3.186-.718,5.681,5.681,0,0,1-2.3-1.912,4.965,4.965,0,0,1-.857-2.776l4.482.029A1.851,1.851,0,0,0,484.262,28a2.769,2.769,0,0,0,1.523-.4A1.742,1.742,0,0,0,486.577,26.459ZM501.738,11.21l-.688,3.94h2.534l-.6,3.428h-2.534l-1.23,7.28a1.941,1.941,0,0,0,.1,1.128q.2.381.989.41a11.455,11.455,0,0,0,1.26-.073l-.352,3.574a7.789,7.789,0,0,1-2.593.366,4.271,4.271,0,0,1-3.354-1.318,4.5,4.5,0,0,1-.908-3.5l1.289-7.866h-1.963l.586-3.428h1.963l.688-3.94Zm9.9,3.647a6.656,6.656,0,0,1,3.677,1.062,5.983,5.983,0,0,1,2.278,2.878,8.883,8.883,0,0,1,.52,4.1l-.029.322a9.393,9.393,0,0,1-2.71,5.889,7.625,7.625,0,0,1-5.684,2.183,6.629,6.629,0,0,1-3.647-1.047,6.021,6.021,0,0,1-2.278-2.849,8.632,8.632,0,0,1-.535-4.072,9.771,9.771,0,0,1,2.673-6.211A7.578,7.578,0,0,1,511.64,14.857Zm-3.589,8.474-.044.863q-.205,3.261,1.992,3.32,2.842.088,3.3-4.607l.059-1.331a3.592,3.592,0,0,0-.491-2.1,1.788,1.788,0,0,0-1.531-.812,2.52,2.52,0,0,0-2.19,1.089A7.13,7.13,0,0,0,508.052,23.331Zm19.775,3.128q.19-.967-1.494-1.45l-1.04-.264a8.009,8.009,0,0,1-3.735-1.89,3.74,3.74,0,0,1-1.113-2.886,4.6,4.6,0,0,1,2.029-3.713,7.721,7.721,0,0,1,4.768-1.4,7.153,7.153,0,0,1,4.534,1.421,4.635,4.635,0,0,1,1.765,3.75l-4.8-.015q.059-1.875-1.655-1.875a2.361,2.361,0,0,0-1.362.432,1.679,1.679,0,0,0-.747,1.15q-.249,1.187,2.095,1.626a12.174,12.174,0,0,1,3.149,1.121,4.7,4.7,0,0,1,1.7,1.575,3.916,3.916,0,0,1,.542,2.256,4.236,4.236,0,0,1-.937,2.563,6.07,6.07,0,0,1-2.585,1.8,9.261,9.261,0,0,1-3.669.63,7.448,7.448,0,0,1-3.186-.718,5.681,5.681,0,0,1-2.3-1.912,4.965,4.965,0,0,1-.857-2.776l4.482.029A1.851,1.851,0,0,0,525.512,28a2.769,2.769,0,0,0,1.523-.4A1.742,1.742,0,0,0,527.827,26.459Zm29.18-3.369a13.166,13.166,0,0,1-1.3,4.431,7.246,7.246,0,0,1-2.468,2.886,5.7,5.7,0,0,1-3.289.9,4.306,4.306,0,0,1-3.369-1.641l-1.436,7.427h-4.819l3.809-21.943,4.453-.015-.249,1.509a4.659,4.659,0,0,1,3.765-1.787,4.436,4.436,0,0,1,3.611,1.655,7.314,7.314,0,0,1,1.384,4.438A17.123,17.123,0,0,1,557.007,23.09Zm-4.687-1.963q-.073-2.417-1.641-2.461a2.841,2.841,0,0,0-2.534,1.245L547.016,26.2a1.956,1.956,0,0,0,2.021,1.3q2.563.044,3.149-4.409Q552.319,21.684,552.319,21.127ZM566.806,31a4.3,4.3,0,0,1-.205-1.436,4.889,4.889,0,0,1-3.882,1.729,4.777,4.777,0,0,1-3.428-1.377,4.139,4.139,0,0,1-1.274-3.267,4.649,4.649,0,0,1,2.153-3.962,10.152,10.152,0,0,1,5.684-1.384l1.611.029.176-.894.059-.776a1.258,1.258,0,0,0-1.333-1.377,1.852,1.852,0,0,0-1.948,1.743l-4.834.015a4.591,4.591,0,0,1,1.04-2.776,6.164,6.164,0,0,1,2.629-1.816,9.187,9.187,0,0,1,3.538-.593,7.085,7.085,0,0,1,3.157.754,4.7,4.7,0,0,1,2.029,1.978,5.052,5.052,0,0,1,.513,2.922L571.3,27.968l-.073.908a4,4,0,0,0,.278,1.846l-.015.278Zm-2.754-3.193a3.108,3.108,0,0,0,2.593-1.3l.483-2.549-1.245-.015a3.282,3.282,0,0,0-1.992.681,2.583,2.583,0,0,0-.981,1.78,1.3,1.3,0,0,0,.227.989A1.16,1.16,0,0,0,564.052,27.807Zm10.225-4.761a12.043,12.043,0,0,1,1.311-4.321,7.607,7.607,0,0,1,2.585-2.922,6.226,6.226,0,0,1,3.516-.959,4.328,4.328,0,0,1,3.6,1.714l.513-1.421,4.453.015-2.593,15.234a7.446,7.446,0,0,1-2.827,5.083,9,9,0,0,1-5.947,1.772,8.491,8.491,0,0,1-3.062-.63,6.6,6.6,0,0,1-2.534-1.816l2.285-2.842a4.149,4.149,0,0,0,3.311,1.655q3.208.059,4.072-3.413l.117-.483a4.956,4.956,0,0,1-3.618,1.582,4.887,4.887,0,0,1-2.681-.769,5.056,5.056,0,0,1-1.816-2.175,8.46,8.46,0,0,1-.747-3.164A13.755,13.755,0,0,1,574.277,23.046Zm4.761,1.567a3.844,3.844,0,0,0,.483,2.095,1.639,1.639,0,0,0,1.406.776A3.221,3.221,0,0,0,583.4,26.43l1.245-6.724a2.135,2.135,0,0,0-1.963-1.055,2.8,2.8,0,0,0-2.358,1.194,6.436,6.436,0,0,0-1.2,3.215Q579.038,23.983,579.038,24.613ZM599.282,31a4.3,4.3,0,0,1-.205-1.436,4.889,4.889,0,0,1-3.882,1.729,4.777,4.777,0,0,1-3.428-1.377,4.139,4.139,0,0,1-1.274-3.267,4.649,4.649,0,0,1,2.153-3.962A10.152,10.152,0,0,1,598.33,21.3l1.611.029.176-.894.059-.776a1.258,1.258,0,0,0-1.333-1.377,1.852,1.852,0,0,0-1.948,1.743l-4.834.015a4.591,4.591,0,0,1,1.04-2.776,6.164,6.164,0,0,1,2.629-1.816,9.187,9.187,0,0,1,3.538-.593,7.085,7.085,0,0,1,3.157.754,4.7,4.7,0,0,1,2.029,1.978,5.052,5.052,0,0,1,.513,2.922l-1.187,7.456-.073.908a4,4,0,0,0,.278,1.846l-.015.278Zm-2.754-3.193a3.108,3.108,0,0,0,2.593-1.3l.483-2.549-1.245-.015a3.282,3.282,0,0,0-1.992.681,2.583,2.583,0,0,0-.981,1.78,1.3,1.3,0,0,0,.227.989A1.16,1.16,0,0,0,596.528,27.807Zm10.2-4.761a11.528,11.528,0,0,1,2.285-6.006,5.663,5.663,0,0,1,4.775-2.183,4.319,4.319,0,0,1,3.354,1.7L618.677,8.5h4.834l-3.9,22.5h-4.292l.205-1.714a4.947,4.947,0,0,1-3.94,2.021,4.366,4.366,0,0,1-3.582-1.692,7.46,7.46,0,0,1-1.384-4.46,13.719,13.719,0,0,1,.059-1.8Zm4.8.337a11.5,11.5,0,0,0-.1,1.641q0,2.432,1.641,2.476a3.073,3.073,0,0,0,2.534-1.362l1.084-6.079a1.951,1.951,0,0,0-1.934-1.392,2.464,2.464,0,0,0-2.175,1.165A7.511,7.511,0,0,0,611.528,23.383Zm20.156-8.525a6.656,6.656,0,0,1,3.677,1.062,5.983,5.983,0,0,1,2.278,2.878,8.883,8.883,0,0,1,.52,4.1l-.029.322a9.393,9.393,0,0,1-2.71,5.889,7.625,7.625,0,0,1-5.684,2.183,6.629,6.629,0,0,1-3.647-1.047,6.021,6.021,0,0,1-2.278-2.849,8.632,8.632,0,0,1-.535-4.072,9.771,9.771,0,0,1,2.673-6.211A7.578,7.578,0,0,1,631.684,14.857ZM628.1,23.331l-.044.863q-.205,3.261,1.992,3.32,2.842.088,3.3-4.607l.059-1.331a3.592,3.592,0,0,0-.491-2.1,1.788,1.788,0,0,0-1.531-.812,2.52,2.52,0,0,0-2.19,1.089A7.13,7.13,0,0,0,628.1,23.331Zm19.775,3.128q.19-.967-1.494-1.45l-1.04-.264a8.009,8.009,0,0,1-3.735-1.89,3.74,3.74,0,0,1-1.113-2.886,4.6,4.6,0,0,1,2.029-3.713,7.721,7.721,0,0,1,4.768-1.4,7.153,7.153,0,0,1,4.534,1.421,4.635,4.635,0,0,1,1.765,3.75l-4.8-.015q.059-1.875-1.655-1.875a2.361,2.361,0,0,0-1.362.432,1.679,1.679,0,0,0-.747,1.15q-.249,1.187,2.095,1.626a12.174,12.174,0,0,1,3.149,1.121,4.7,4.7,0,0,1,1.7,1.575A3.916,3.916,0,0,1,652.5,26.3a4.236,4.236,0,0,1-.937,2.563,6.07,6.07,0,0,1-2.585,1.8,9.261,9.261,0,0,1-3.669.63,7.448,7.448,0,0,1-3.186-.718,5.681,5.681,0,0,1-2.3-1.912,4.965,4.965,0,0,1-.857-2.776l4.482.029A1.851,1.851,0,0,0,645.556,28a2.769,2.769,0,0,0,1.523-.4A1.742,1.742,0,0,0,647.871,26.459Z" transform="translate(4870.5 -7055.5)" fill="#12263f"/>
    <path id="Trazado_191526" data-name="Trazado 191526" d="M-7037.859-7551h676.806" transform="translate(11908.359 537.5)" fill="none" stroke="#13273e" stroke-linecap="round" stroke-width="2"/>
    <path id="Trazado_192564" data-name="Trazado 192564" d="M49.787,23.749,48.527,31h-5.01L47.209,9.672l7.661.015a7.722,7.722,0,0,1,5.6,1.975,6.087,6.087,0,0,1,1.794,5.122,6.963,6.963,0,0,1-1.377,3.731,7.626,7.626,0,0,1-3.171,2.414,11.225,11.225,0,0,1-4.417.834Zm.688-3.955,3.018.029a3.571,3.571,0,0,0,3.721-4.185,2.254,2.254,0,0,0-.681-1.417,2.333,2.333,0,0,0-1.487-.58l-3.5-.015ZM71.159,31a4.3,4.3,0,0,1-.205-1.436,4.889,4.889,0,0,1-3.882,1.729,4.777,4.777,0,0,1-3.428-1.377,4.139,4.139,0,0,1-1.274-3.267,4.649,4.649,0,0,1,2.153-3.962A10.152,10.152,0,0,1,70.207,21.3l1.611.029.176-.894.059-.776a1.258,1.258,0,0,0-1.333-1.377,1.852,1.852,0,0,0-1.948,1.743l-4.834.015a4.591,4.591,0,0,1,1.04-2.776,6.164,6.164,0,0,1,2.629-1.816,9.187,9.187,0,0,1,3.538-.593,7.085,7.085,0,0,1,3.157.754,4.7,4.7,0,0,1,2.029,1.978,5.052,5.052,0,0,1,.513,2.922l-1.187,7.456-.073.908a4,4,0,0,0,.278,1.846L75.846,31Zm-2.754-3.193A3.108,3.108,0,0,0,71,26.5l.483-2.549-1.245-.015a3.282,3.282,0,0,0-1.992.681,2.583,2.583,0,0,0-.981,1.78,1.3,1.3,0,0,0,.227.989A1.16,1.16,0,0,0,68.405,27.807Zm18.34-1.348q.19-.967-1.494-1.45l-1.04-.264a8.009,8.009,0,0,1-3.735-1.89,3.74,3.74,0,0,1-1.113-2.886,4.6,4.6,0,0,1,2.029-3.713,7.721,7.721,0,0,1,4.768-1.4,7.153,7.153,0,0,1,4.534,1.421,4.635,4.635,0,0,1,1.765,3.75l-4.8-.015q.059-1.875-1.655-1.875a2.361,2.361,0,0,0-1.362.432,1.679,1.679,0,0,0-.747,1.15q-.249,1.187,2.095,1.626a12.174,12.174,0,0,1,3.149,1.121,4.7,4.7,0,0,1,1.7,1.575,3.916,3.916,0,0,1,.542,2.256,4.236,4.236,0,0,1-.937,2.563,6.07,6.07,0,0,1-2.585,1.8,9.261,9.261,0,0,1-3.669.63A7.448,7.448,0,0,1,81,30.575a5.681,5.681,0,0,1-2.3-1.912,4.965,4.965,0,0,1-.857-2.776l4.482.029A1.851,1.851,0,0,0,84.43,28a2.769,2.769,0,0,0,1.523-.4A1.742,1.742,0,0,0,86.745,26.459ZM97.951,31H93.117l2.754-15.85H100.7ZM96.3,11.151a2.235,2.235,0,0,1,.754-1.787,2.708,2.708,0,0,1,1.9-.718,2.8,2.8,0,0,1,1.882.645,2.2,2.2,0,0,1,.784,1.685,2.24,2.24,0,0,1-.747,1.794,2.717,2.717,0,0,1-1.9.71,2.831,2.831,0,0,1-1.868-.637A2.171,2.171,0,0,1,96.3,11.151Zm11.88,13.916,3.97-9.917h5.2L109.845,31h-4.907L102.4,15.15h4.951Zm17.036-10.21a6.656,6.656,0,0,1,3.677,1.062,5.983,5.983,0,0,1,2.278,2.878,8.883,8.883,0,0,1,.52,4.1l-.029.322a9.393,9.393,0,0,1-2.71,5.889,7.625,7.625,0,0,1-5.684,2.183,6.629,6.629,0,0,1-3.647-1.047,6.021,6.021,0,0,1-2.278-2.849,8.632,8.632,0,0,1-.535-4.072,9.771,9.771,0,0,1,2.673-6.211A7.578,7.578,0,0,1,125.212,14.857Zm-3.589,8.474-.044.863q-.205,3.261,1.992,3.32,2.842.088,3.3-4.607l.059-1.331a3.592,3.592,0,0,0-.491-2.1,1.788,1.788,0,0,0-1.531-.812,2.52,2.52,0,0,0-2.19,1.089A7.13,7.13,0,0,0,121.623,23.331ZM147.2,27.484a2.073,2.073,0,0,0,1.626-.575,2.861,2.861,0,0,0,.747-1.564l4.512-.015a5.931,5.931,0,0,1-1.033,3.12,6.241,6.241,0,0,1-2.549,2.131,7.535,7.535,0,0,1-3.435.71,5.95,5.95,0,0,1-4.878-2.278A7.877,7.877,0,0,1,140.8,23.28l.044-.352a10.619,10.619,0,0,1,1.348-4.255,7.71,7.71,0,0,1,2.849-2.864,7.389,7.389,0,0,1,3.948-.952,5.893,5.893,0,0,1,4.373,1.765,6.259,6.259,0,0,1,1.545,4.607l-4.512-.015q.073-2.505-1.8-2.549-2.549-.088-2.93,4.278l-.132,1.489-.015.555Q145.514,27.441,147.2,27.484Zm17.168-12.627a6.656,6.656,0,0,1,3.677,1.062,5.983,5.983,0,0,1,2.278,2.878,8.883,8.883,0,0,1,.52,4.1l-.029.322a9.393,9.393,0,0,1-2.71,5.889,7.625,7.625,0,0,1-5.684,2.183,6.629,6.629,0,0,1-3.647-1.047,6.021,6.021,0,0,1-2.278-2.849,8.632,8.632,0,0,1-.535-4.072,9.771,9.771,0,0,1,2.673-6.211A7.578,7.578,0,0,1,164.367,14.857Zm-3.589,8.474-.044.863q-.205,3.261,1.992,3.32,2.842.088,3.3-4.607l.059-1.331a3.592,3.592,0,0,0-.491-2.1,1.788,1.788,0,0,0-1.531-.812,2.52,2.52,0,0,0-2.19,1.089A7.13,7.13,0,0,0,160.778,23.331Zm22.28-3.713a13.788,13.788,0,0,0-1.494-.146,3.721,3.721,0,0,0-3.311,1.494L176.467,31h-4.819L174.4,15.15l4.5-.015-.366,2.08q1.553-2.4,3.662-2.4a6.906,6.906,0,0,1,1.494.205Zm11.177,0a13.788,13.788,0,0,0-1.494-.146,3.721,3.721,0,0,0-3.311,1.494L187.643,31h-4.819l2.754-15.85,4.5-.015-.366,2.08q1.553-2.4,3.662-2.4a6.906,6.906,0,0,1,1.494.205ZM199.054,31H194.22l2.754-15.85h4.834ZM197.4,11.151a2.235,2.235,0,0,1,.754-1.787,2.708,2.708,0,0,1,1.9-.718,2.8,2.8,0,0,1,1.882.645,2.2,2.2,0,0,1,.784,1.685,2.24,2.24,0,0,1-.747,1.794,2.717,2.717,0,0,1-1.9.71,2.831,2.831,0,0,1-1.868-.637A2.171,2.171,0,0,1,197.4,11.151ZM210,31.293a7.368,7.368,0,0,1-3.787-1,6.322,6.322,0,0,1-2.512-2.754,7.4,7.4,0,0,1-.674-3.889l.044-.41a9.715,9.715,0,0,1,2.717-6.189,7.517,7.517,0,0,1,5.691-2.19,6.129,6.129,0,0,1,3.486,1.034,5.78,5.78,0,0,1,2.124,2.773,8.492,8.492,0,0,1,.439,3.968l-.278,2.01h-9.434a3.09,3.09,0,0,0,.7,2.021,2.582,2.582,0,0,0,1.963.82,4.988,4.988,0,0,0,3.765-1.611l2.021,2.673a5.964,5.964,0,0,1-2.5,1.994,8.772,8.772,0,0,1-3.508.752Zm1.172-12.627a2.479,2.479,0,0,0-1.78.641,5.381,5.381,0,0,0-1.311,2.245H212.9l.088-.423a3.215,3.215,0,0,0,.029-.962A1.7,1.7,0,0,0,211.169,18.666Zm14.092-3.53-.337,1.9a5.634,5.634,0,0,1,4.585-2.2,3.784,3.784,0,0,1,3.274,1.633,6.836,6.836,0,0,1,.784,4.548L231.9,31h-4.834l1.685-10.017a5.18,5.18,0,0,0,.029-.939q-.1-1.393-1.641-1.393a3.012,3.012,0,0,0-2.329,1.129L222.829,31H218.01l2.754-15.85ZM243.7,11.21l-.688,3.94h2.534l-.6,3.428h-2.534l-1.23,7.28a1.941,1.941,0,0,0,.1,1.128q.2.381.989.41a11.455,11.455,0,0,0,1.26-.073l-.352,3.574a7.789,7.789,0,0,1-2.593.366,4.271,4.271,0,0,1-3.354-1.318,4.5,4.5,0,0,1-.908-3.5l1.289-7.866h-1.963l.586-3.428H238.2l.688-3.94Zm8.979,20.083a7.368,7.368,0,0,1-3.787-1,6.322,6.322,0,0,1-2.512-2.754,7.4,7.4,0,0,1-.674-3.889l.044-.41a9.715,9.715,0,0,1,2.717-6.189,7.517,7.517,0,0,1,5.691-2.19,6.129,6.129,0,0,1,3.486,1.034,5.78,5.78,0,0,1,2.124,2.773,8.492,8.492,0,0,1,.439,3.968l-.278,2.01H250.5a3.09,3.09,0,0,0,.7,2.021,2.582,2.582,0,0,0,1.963.82,4.988,4.988,0,0,0,3.765-1.611l2.021,2.673a5.964,5.964,0,0,1-2.5,1.994,8.772,8.772,0,0,1-3.508.752Zm1.172-12.627a2.479,2.479,0,0,0-1.78.641,5.381,5.381,0,0,0-1.311,2.245h4.819l.088-.423a3.215,3.215,0,0,0,.029-.962A1.7,1.7,0,0,0,253.854,18.666Z" transform="translate(5057 -7009.5)" fill="#12263f"/>
    <path id="Trazado_192566" data-name="Trazado 192566" d="M9.141,23.456H6.357L5.039,31H.029L3.721,9.672l7.529.015a8.273,8.273,0,0,1,5.574,1.69,5.258,5.258,0,0,1,1.75,4.617,6.881,6.881,0,0,1-1.333,3.826,7.847,7.847,0,0,1-3.281,2.393l2.871,8.538V31H11.484ZM7.031,19.5l2.93.029a3.691,3.691,0,0,0,2.087-.587,3.233,3.233,0,0,0,1.267-1.608,3.779,3.779,0,0,0,.22-1.975,1.967,1.967,0,0,0-2.08-1.718l-3.4-.015ZM27.876,31a4.3,4.3,0,0,1-.205-1.436,4.889,4.889,0,0,1-3.882,1.729,4.777,4.777,0,0,1-3.428-1.377,4.139,4.139,0,0,1-1.274-3.267,4.649,4.649,0,0,1,2.153-3.962A10.152,10.152,0,0,1,26.924,21.3l1.611.029.176-.894.059-.776a1.258,1.258,0,0,0-1.333-1.377,1.852,1.852,0,0,0-1.948,1.743l-4.834.015a4.591,4.591,0,0,1,1.04-2.776,6.164,6.164,0,0,1,2.629-1.816,9.187,9.187,0,0,1,3.538-.593,7.085,7.085,0,0,1,3.157.754,4.7,4.7,0,0,1,2.029,1.978,5.052,5.052,0,0,1,.513,2.922l-1.187,7.456-.073.908a4,4,0,0,0,.278,1.846L32.563,31Zm-2.754-3.193a3.108,3.108,0,0,0,2.593-1.3l.483-2.549-1.245-.015a3.282,3.282,0,0,0-1.992.681,2.583,2.583,0,0,0-.981,1.78,1.3,1.3,0,0,0,.227.989A1.16,1.16,0,0,0,25.122,27.807Zm15.806-.645,6.943.029L47.212,31h-13.1l.513-2.959,8.335-9.053-6.46-.029.659-3.809H49.8l-.5,2.886Zm17.959-12.3a6.656,6.656,0,0,1,3.677,1.062A5.983,5.983,0,0,1,64.841,18.8a8.883,8.883,0,0,1,.52,4.1l-.029.322a9.393,9.393,0,0,1-2.71,5.889,7.625,7.625,0,0,1-5.684,2.183,6.629,6.629,0,0,1-3.647-1.047A6.021,6.021,0,0,1,51.013,27.4a8.632,8.632,0,0,1-.535-4.072,9.771,9.771,0,0,1,2.673-6.211A7.578,7.578,0,0,1,58.887,14.857ZM55.3,23.331l-.044.863q-.205,3.261,1.992,3.32,2.842.088,3.3-4.607l.059-1.331a3.592,3.592,0,0,0-.491-2.1,1.788,1.788,0,0,0-1.531-.812,2.52,2.52,0,0,0-2.19,1.089A7.13,7.13,0,0,0,55.3,23.331ZM60.63,8.5h5.376l-4.673,4.6-4.219-.007Zm12.656,6.636-.337,1.9a5.634,5.634,0,0,1,4.585-2.2,3.784,3.784,0,0,1,3.274,1.633,6.836,6.836,0,0,1,.784,4.548L79.922,31H75.088l1.685-10.017a5.18,5.18,0,0,0,.029-.939q-.1-1.393-1.641-1.393a3.012,3.012,0,0,0-2.329,1.129L70.854,31H66.035l2.754-15.85ZM99.023,31a4.3,4.3,0,0,1-.205-1.436,4.889,4.889,0,0,1-3.882,1.729,4.777,4.777,0,0,1-3.428-1.377,4.139,4.139,0,0,1-1.274-3.267,4.649,4.649,0,0,1,2.153-3.962A10.152,10.152,0,0,1,98.071,21.3l1.611.029.176-.894.059-.776a1.258,1.258,0,0,0-1.333-1.377,1.852,1.852,0,0,0-1.948,1.743l-4.834.015a4.591,4.591,0,0,1,1.04-2.776,6.164,6.164,0,0,1,2.629-1.816,9.187,9.187,0,0,1,3.538-.593,7.085,7.085,0,0,1,3.157.754,4.7,4.7,0,0,1,2.029,1.978,5.052,5.052,0,0,1,.513,2.922l-1.187,7.456-.073.908a4,4,0,0,0,.278,1.846l-.015.278ZM96.27,27.807a3.108,3.108,0,0,0,2.593-1.3l.483-2.549L98.1,23.939a3.282,3.282,0,0,0-1.992.681,2.583,2.583,0,0,0-.981,1.78,1.3,1.3,0,0,0,.227.989A1.16,1.16,0,0,0,96.27,27.807ZM100.649,8.5h5.376l-4.673,4.6-4.219-.007Zm12.363,18.984a2.073,2.073,0,0,0,1.626-.575,2.861,2.861,0,0,0,.747-1.564l4.512-.015a5.931,5.931,0,0,1-1.033,3.12,6.241,6.241,0,0,1-2.549,2.131,7.535,7.535,0,0,1-3.435.71A5.95,5.95,0,0,1,108,29.015a7.877,7.877,0,0,1-1.392-5.735l.044-.352A10.619,10.619,0,0,1,108,18.673a7.71,7.71,0,0,1,2.849-2.864,7.389,7.389,0,0,1,3.948-.952,5.893,5.893,0,0,1,4.373,1.765,6.259,6.259,0,0,1,1.545,4.607l-4.512-.015q.073-2.505-1.8-2.549-2.549-.088-2.93,4.278l-.132,1.489-.015.555Q111.328,27.441,113.013,27.484ZM126.021,31h-4.834l2.754-15.85h4.834Zm-1.655-19.849a2.235,2.235,0,0,1,.754-1.787,2.708,2.708,0,0,1,1.9-.718,2.8,2.8,0,0,1,1.882.645,2.2,2.2,0,0,1,.784,1.685,2.24,2.24,0,0,1-.747,1.794,2.717,2.717,0,0,1-1.9.71,2.831,2.831,0,0,1-1.868-.637A2.171,2.171,0,0,1,124.365,11.151Zm5.508,11.895a11.528,11.528,0,0,1,2.285-6.006,5.663,5.663,0,0,1,4.775-2.183,4.319,4.319,0,0,1,3.354,1.7L141.826,8.5h4.834l-3.9,22.5h-4.292l.205-1.714a4.947,4.947,0,0,1-3.94,2.021,4.366,4.366,0,0,1-3.582-1.692,7.46,7.46,0,0,1-1.384-4.46,13.719,13.719,0,0,1,.059-1.8Zm4.8.337a11.5,11.5,0,0,0-.1,1.641q0,2.432,1.641,2.476a3.073,3.073,0,0,0,2.534-1.362l1.084-6.079a1.951,1.951,0,0,0-1.934-1.392,2.464,2.464,0,0,0-2.175,1.165A7.511,7.511,0,0,0,134.678,23.383ZM154.526,31a4.3,4.3,0,0,1-.205-1.436,4.889,4.889,0,0,1-3.882,1.729,4.777,4.777,0,0,1-3.428-1.377,4.139,4.139,0,0,1-1.274-3.267,4.649,4.649,0,0,1,2.153-3.962,10.152,10.152,0,0,1,5.684-1.384l1.611.029.176-.894.059-.776a1.258,1.258,0,0,0-1.333-1.377,1.852,1.852,0,0,0-1.948,1.743l-4.834.015a4.591,4.591,0,0,1,1.04-2.776,6.164,6.164,0,0,1,2.629-1.816,9.187,9.187,0,0,1,3.538-.593,7.085,7.085,0,0,1,3.157.754,4.7,4.7,0,0,1,2.029,1.978,5.052,5.052,0,0,1,.513,2.922l-1.187,7.456-.073.908a4,4,0,0,0,.278,1.846l-.015.278Zm-2.754-3.193a3.108,3.108,0,0,0,2.593-1.3l.483-2.549-1.245-.015a3.282,3.282,0,0,0-1.992.681,2.583,2.583,0,0,0-.981,1.78,1.3,1.3,0,0,0,.227.989A1.16,1.16,0,0,0,151.772,27.807Zm32.3-7.383h-13.2l.674-3.809h13.184Zm-1.113,6.431h-13.2l.674-3.809h13.184Z" transform="translate(4677 -7033)" fill="#12263f"/>
  </g>
</svg>
