<svg xmlns="http://www.w3.org/2000/svg" xmlns:xlink="http://www.w3.org/1999/xlink" width="889" height="175" viewBox="0 0 889 175">
  <defs>
    <filter id="Trazado_191632" x="0" y="0" width="889" height="175" filterUnits="userSpaceOnUse">
      <feOffset dy="3" input="SourceAlpha"/>
      <feGaussianBlur stdDeviation="3" result="blur"/>
      <feFlood flood-opacity="0.161"/>
      <feComposite operator="in" in2="blur"/>
      <feComposite in="SourceGraphic"/>
    </filter>
  </defs>
  <g id="Grupo_128962" data-name="Grupo 128962" transform="translate(-4671 4765)">
    <g transform="matrix(1, 0, 0, 1, 4671, -4765)" filter="url(#Trazado_191632)">
      <path id="Trazado_191632-2" data-name="Trazado 191632" d="M20,0H851a20,20,0,0,1,20,20V137a20,20,0,0,1-20,20H20A20,20,0,0,1,0,137V20A20,20,0,0,1,20,0Z" transform="translate(9 6)" fill="#fff"/>
    </g>
    <path id="Trazado_191633" data-name="Trazado 191633" d="M28.1,28.378a7.679,7.679,0,0,1-3.5,2.175,15.238,15.238,0,0,1-5.1.725,7.736,7.736,0,0,1-4.526-1.348,7.174,7.174,0,0,1-2.637-3.677,11.967,11.967,0,0,1-.425-5.317l.117-.879a13.537,13.537,0,0,1,3.494-7.866,9.02,9.02,0,0,1,6.907-2.827,7.767,7.767,0,0,1,5.493,1.919,7.87,7.87,0,0,1,2.139,5.376l-4.8-.015a3.913,3.913,0,0,0-.842-2.494,2.878,2.878,0,0,0-2.1-.831,3.893,3.893,0,0,0-3.34,1.588,10.082,10.082,0,0,0-1.8,4.748,18.713,18.713,0,0,0-.293,4.1q.22,3.527,3.179,3.571a5.375,5.375,0,0,0,3.135-.864l.659-3.325H20.381L21,19.6h8.481ZM39.117,31a4.3,4.3,0,0,1-.205-1.436,4.889,4.889,0,0,1-3.882,1.729A4.777,4.777,0,0,1,31.6,29.916a4.139,4.139,0,0,1-1.274-3.267,4.649,4.649,0,0,1,2.153-3.962A10.152,10.152,0,0,1,38.165,21.3l1.611.029.176-.894.059-.776a1.258,1.258,0,0,0-1.333-1.377,1.852,1.852,0,0,0-1.948,1.743l-4.834.015a4.591,4.591,0,0,1,1.04-2.776,6.164,6.164,0,0,1,2.629-1.816,9.187,9.187,0,0,1,3.538-.593,7.085,7.085,0,0,1,3.157.754,4.7,4.7,0,0,1,2.029,1.978,5.052,5.052,0,0,1,.513,2.922l-1.187,7.456-.073.908a4,4,0,0,0,.278,1.846L43.8,31Zm-2.754-3.193a3.108,3.108,0,0,0,2.593-1.3l.483-2.549-1.245-.015a3.282,3.282,0,0,0-1.992.681,2.583,2.583,0,0,0-.981,1.78,1.3,1.3,0,0,0,.227.989A1.16,1.16,0,0,0,36.363,27.807ZM54.7,26.459q.19-.967-1.494-1.45l-1.04-.264a8.009,8.009,0,0,1-3.735-1.89A3.74,3.74,0,0,1,47.32,19.97a4.6,4.6,0,0,1,2.029-3.713,7.721,7.721,0,0,1,4.768-1.4,7.153,7.153,0,0,1,4.534,1.421,4.635,4.635,0,0,1,1.765,3.75l-4.8-.015q.059-1.875-1.655-1.875a2.361,2.361,0,0,0-1.362.432,1.679,1.679,0,0,0-.747,1.15q-.249,1.187,2.095,1.626a12.174,12.174,0,0,1,3.149,1.121,4.7,4.7,0,0,1,1.7,1.575,3.916,3.916,0,0,1,.542,2.256,4.236,4.236,0,0,1-.937,2.563,6.07,6.07,0,0,1-2.585,1.8,9.261,9.261,0,0,1-3.669.63,7.448,7.448,0,0,1-3.186-.718,5.681,5.681,0,0,1-2.3-1.912,4.965,4.965,0,0,1-.857-2.776l4.482.029A1.851,1.851,0,0,0,52.388,28a2.769,2.769,0,0,0,1.523-.4A1.742,1.742,0,0,0,54.7,26.459ZM69.864,11.21l-.688,3.94h2.534l-.6,3.428H68.575l-1.23,7.28a1.941,1.941,0,0,0,.1,1.128q.2.381.989.41a11.455,11.455,0,0,0,1.26-.073L69.336,30.9a7.789,7.789,0,0,1-2.593.366,4.271,4.271,0,0,1-3.354-1.318,4.5,4.5,0,0,1-.908-3.5l1.289-7.866H61.807l.586-3.428h1.963l.688-3.94Zm9.9,3.647a6.656,6.656,0,0,1,3.677,1.062A5.983,5.983,0,0,1,85.721,18.8a8.883,8.883,0,0,1,.52,4.1l-.029.322A9.393,9.393,0,0,1,83.5,29.11a7.625,7.625,0,0,1-5.684,2.183,6.629,6.629,0,0,1-3.647-1.047A6.021,6.021,0,0,1,71.893,27.4a8.632,8.632,0,0,1-.535-4.072,9.771,9.771,0,0,1,2.673-6.211A7.578,7.578,0,0,1,79.766,14.857Zm-3.589,8.474-.044.863q-.205,3.261,1.992,3.32,2.842.088,3.3-4.607l.059-1.331a3.592,3.592,0,0,0-.491-2.1,1.788,1.788,0,0,0-1.531-.812,2.52,2.52,0,0,0-2.19,1.089A7.13,7.13,0,0,0,76.177,23.331Zm19.775,3.128q.19-.967-1.494-1.45l-1.04-.264a8.009,8.009,0,0,1-3.735-1.89A3.74,3.74,0,0,1,88.57,19.97,4.6,4.6,0,0,1,90.6,16.256a7.721,7.721,0,0,1,4.768-1.4A7.153,7.153,0,0,1,99.9,16.278a4.635,4.635,0,0,1,1.765,3.75l-4.8-.015q.059-1.875-1.655-1.875a2.361,2.361,0,0,0-1.362.432,1.679,1.679,0,0,0-.747,1.15q-.249,1.187,2.095,1.626a12.174,12.174,0,0,1,3.149,1.121,4.7,4.7,0,0,1,1.7,1.575,3.916,3.916,0,0,1,.542,2.256,4.236,4.236,0,0,1-.937,2.563,6.07,6.07,0,0,1-2.585,1.8,9.261,9.261,0,0,1-3.669.63,7.448,7.448,0,0,1-3.186-.718,5.681,5.681,0,0,1-2.3-1.912,4.965,4.965,0,0,1-.857-2.776l4.482.029A1.851,1.851,0,0,0,93.638,28a2.769,2.769,0,0,0,1.523-.4A1.742,1.742,0,0,0,95.953,26.459ZM110.586,31l2.153-12.422h-2.227l.6-3.428,2.08.015.117-.6A7.771,7.771,0,0,1,116.043,9.8a8.459,8.459,0,0,1,5.471-1.626,22.15,22.15,0,0,1,5.039.835l-1.025,3.926a12.738,12.738,0,0,0-3.984-.688,3.877,3.877,0,0,0-2.183.608,3.027,3.027,0,0,0-1.245,1.868l-.1.439,3.179-.015-.615,3.428h-3L115.42,31Zm14.487,0H120.24l2.739-15.85h4.849Zm10.2-15.864-.337,1.9a5.634,5.634,0,0,1,4.585-2.2,3.784,3.784,0,0,1,3.274,1.633,6.836,6.836,0,0,1,.784,4.548L141.9,31h-4.834l1.685-10.017a5.18,5.18,0,0,0,.029-.939q-.1-1.393-1.641-1.393a3.012,3.012,0,0,0-2.329,1.129L132.837,31h-4.819l2.754-15.85ZM153.609,31a4.3,4.3,0,0,1-.205-1.436,4.889,4.889,0,0,1-3.882,1.729,4.777,4.777,0,0,1-3.428-1.377,4.139,4.139,0,0,1-1.274-3.267,4.649,4.649,0,0,1,2.153-3.962,10.152,10.152,0,0,1,5.684-1.384l1.611.029.176-.894.059-.776a1.258,1.258,0,0,0-1.333-1.377,1.852,1.852,0,0,0-1.948,1.743l-4.834.015a4.591,4.591,0,0,1,1.04-2.776,6.164,6.164,0,0,1,2.629-1.816,9.187,9.187,0,0,1,3.538-.593,7.085,7.085,0,0,1,3.157.754,4.7,4.7,0,0,1,2.029,1.978,5.052,5.052,0,0,1,.513,2.922l-1.187,7.456-.073.908a4,4,0,0,0,.278,1.846L158.3,31Zm-2.754-3.193a3.108,3.108,0,0,0,2.593-1.3l.483-2.549-1.245-.015a3.282,3.282,0,0,0-1.992.681,2.583,2.583,0,0,0-.981,1.78,1.3,1.3,0,0,0,.227.989A1.16,1.16,0,0,0,150.855,27.807Zm16.553-12.671-.337,1.9a5.634,5.634,0,0,1,4.585-2.2,3.784,3.784,0,0,1,3.274,1.633,6.836,6.836,0,0,1,.784,4.548L174.043,31h-4.834l1.685-10.017a5.18,5.18,0,0,0,.029-.939q-.1-1.393-1.641-1.393a3.012,3.012,0,0,0-2.329,1.129L164.976,31h-4.819l2.754-15.85Zm16.743,12.349a2.073,2.073,0,0,0,1.626-.575,2.861,2.861,0,0,0,.747-1.564l4.512-.015A5.931,5.931,0,0,1,190,28.451a6.241,6.241,0,0,1-2.549,2.131,7.535,7.535,0,0,1-3.435.71,5.95,5.95,0,0,1-4.878-2.278,7.877,7.877,0,0,1-1.392-5.735l.044-.352a10.619,10.619,0,0,1,1.348-4.255,7.71,7.71,0,0,1,2.849-2.864,7.389,7.389,0,0,1,3.948-.952,5.893,5.893,0,0,1,4.373,1.765,6.259,6.259,0,0,1,1.545,4.607l-4.512-.015q.073-2.505-1.8-2.549-2.549-.088-2.93,4.278l-.132,1.489-.015.555Q182.466,27.441,184.151,27.484ZM197.159,31h-4.834l2.754-15.85h4.834ZM195.5,11.151a2.235,2.235,0,0,1,.754-1.787,2.708,2.708,0,0,1,1.9-.718,2.8,2.8,0,0,1,1.882.645,2.2,2.2,0,0,1,.784,1.685,2.24,2.24,0,0,1-.747,1.794,2.717,2.717,0,0,1-1.9.71,2.831,2.831,0,0,1-1.868-.637A2.171,2.171,0,0,1,195.5,11.151Zm12.6,20.142a7.368,7.368,0,0,1-3.787-1,6.322,6.322,0,0,1-2.512-2.754,7.4,7.4,0,0,1-.674-3.889l.044-.41a9.715,9.715,0,0,1,2.717-6.189,7.517,7.517,0,0,1,5.691-2.19,6.129,6.129,0,0,1,3.486,1.034,5.78,5.78,0,0,1,2.124,2.773,8.492,8.492,0,0,1,.439,3.968l-.278,2.01h-9.434a3.09,3.09,0,0,0,.7,2.021,2.582,2.582,0,0,0,1.963.82,4.988,4.988,0,0,0,3.765-1.611l2.021,2.673a5.964,5.964,0,0,1-2.5,1.994,8.772,8.772,0,0,1-3.508.752Zm1.172-12.627a2.479,2.479,0,0,0-1.78.641,5.381,5.381,0,0,0-1.311,2.245H211l.088-.423a3.215,3.215,0,0,0,.029-.962A1.7,1.7,0,0,0,209.273,18.666Zm18.384.952a13.788,13.788,0,0,0-1.494-.146,3.721,3.721,0,0,0-3.311,1.494L221.065,31h-4.819L219,15.15l4.5-.015-.366,2.08q1.553-2.4,3.662-2.4a6.906,6.906,0,0,1,1.494.205Zm8.452-4.761a6.656,6.656,0,0,1,3.677,1.062,5.983,5.983,0,0,1,2.278,2.878,8.883,8.883,0,0,1,.52,4.1l-.029.322a9.393,9.393,0,0,1-2.71,5.889,7.625,7.625,0,0,1-5.684,2.183,6.629,6.629,0,0,1-3.647-1.047,6.021,6.021,0,0,1-2.278-2.849,8.632,8.632,0,0,1-.535-4.072,9.771,9.771,0,0,1,2.673-6.211A7.578,7.578,0,0,1,236.109,14.857Zm-3.589,8.474-.044.863q-.205,3.261,1.992,3.32,2.842.088,3.3-4.607l.059-1.331a3.592,3.592,0,0,0-.491-2.1,1.788,1.788,0,0,0-1.531-.812,2.52,2.52,0,0,0-2.19,1.089A7.13,7.13,0,0,0,232.52,23.331ZM252.3,26.459q.19-.967-1.494-1.45l-1.04-.264a8.009,8.009,0,0,1-3.735-1.89,3.74,3.74,0,0,1-1.113-2.886,4.6,4.6,0,0,1,2.029-3.713,7.721,7.721,0,0,1,4.768-1.4,7.153,7.153,0,0,1,4.534,1.421,4.635,4.635,0,0,1,1.765,3.75l-4.8-.015q.059-1.875-1.655-1.875a2.361,2.361,0,0,0-1.362.432,1.679,1.679,0,0,0-.747,1.15q-.249,1.187,2.095,1.626a12.174,12.174,0,0,1,3.149,1.121,4.7,4.7,0,0,1,1.7,1.575,3.916,3.916,0,0,1,.542,2.256,4.236,4.236,0,0,1-.937,2.563,6.07,6.07,0,0,1-2.585,1.8,9.261,9.261,0,0,1-3.669.63,7.448,7.448,0,0,1-3.186-.718,5.681,5.681,0,0,1-2.3-1.912,4.965,4.965,0,0,1-.857-2.776l4.482.029A1.851,1.851,0,0,0,249.981,28a2.769,2.769,0,0,0,1.523-.4A1.742,1.742,0,0,0,252.3,26.459Z" transform="translate(5152.978 -4721.5)" fill="#12263f"/>
    <path id="Trazado_191526" data-name="Trazado 191526" d="M-7037.859-7551h257.346" transform="translate(12202.491 2871.5)" fill="none" stroke="#13273e" stroke-linecap="round" stroke-width="2"/>
    <path id="Trazado_191634" data-name="Trazado 191634" d="M50.856,25.141,57.389,9.672h5.742L52.819,31H47.34L43.766,9.672h5.42Zm17.988,6.152a7.368,7.368,0,0,1-3.787-1,6.322,6.322,0,0,1-2.512-2.754,7.4,7.4,0,0,1-.674-3.889l.044-.41a9.715,9.715,0,0,1,2.717-6.189,7.517,7.517,0,0,1,5.691-2.19,6.129,6.129,0,0,1,3.486,1.034,5.78,5.78,0,0,1,2.124,2.773,8.492,8.492,0,0,1,.439,3.968l-.278,2.01H66.662a3.09,3.09,0,0,0,.7,2.021,2.582,2.582,0,0,0,1.963.82,4.988,4.988,0,0,0,3.765-1.611l2.021,2.673a5.964,5.964,0,0,1-2.5,1.994,8.772,8.772,0,0,1-3.508.752Zm1.172-12.627a2.479,2.479,0,0,0-1.78.641,5.381,5.381,0,0,0-1.311,2.245h4.819l.088-.423a3.215,3.215,0,0,0,.029-.962A1.7,1.7,0,0,0,70.016,18.666Zm14.092-3.53-.337,1.9a5.634,5.634,0,0,1,4.585-2.2,3.784,3.784,0,0,1,3.274,1.633,6.836,6.836,0,0,1,.784,4.548L90.744,31H85.91l1.685-10.017a5.18,5.18,0,0,0,.029-.939q-.1-1.393-1.641-1.393a3.012,3.012,0,0,0-2.329,1.129L81.676,31H76.857l2.754-15.85ZM102.55,11.21l-.688,3.94H104.4l-.6,3.428h-2.534l-1.23,7.28a1.941,1.941,0,0,0,.1,1.128q.2.381.989.41a11.455,11.455,0,0,0,1.26-.073l-.352,3.574a7.789,7.789,0,0,1-2.593.366,4.271,4.271,0,0,1-3.354-1.318,4.5,4.5,0,0,1-.908-3.5l1.289-7.866H94.494l.586-3.428h1.963l.688-3.94ZM112.584,31a4.3,4.3,0,0,1-.205-1.436,4.889,4.889,0,0,1-3.882,1.729,4.777,4.777,0,0,1-3.428-1.377,4.139,4.139,0,0,1-1.274-3.267,4.649,4.649,0,0,1,2.153-3.962,10.152,10.152,0,0,1,5.684-1.384l1.611.029.176-.894.059-.776a1.258,1.258,0,0,0-1.333-1.377,1.852,1.852,0,0,0-1.948,1.743l-4.834.015a4.591,4.591,0,0,1,1.04-2.776,6.164,6.164,0,0,1,2.629-1.816,9.187,9.187,0,0,1,3.538-.593,7.085,7.085,0,0,1,3.157.754,4.7,4.7,0,0,1,2.029,1.978,5.052,5.052,0,0,1,.513,2.922l-1.187,7.456-.073.908a4,4,0,0,0,.278,1.846l-.015.278Zm-2.754-3.193a3.108,3.108,0,0,0,2.593-1.3l.483-2.549-1.245-.015a3.282,3.282,0,0,0-1.992.681,2.583,2.583,0,0,0-.981,1.78,1.3,1.3,0,0,0,.227.989A1.16,1.16,0,0,0,109.831,27.807Zm18.34-1.348q.19-.967-1.494-1.45l-1.04-.264a8.009,8.009,0,0,1-3.735-1.89,3.74,3.74,0,0,1-1.113-2.886,4.6,4.6,0,0,1,2.029-3.713,7.721,7.721,0,0,1,4.768-1.4,7.153,7.153,0,0,1,4.534,1.421,4.635,4.635,0,0,1,1.765,3.75l-4.8-.015q.059-1.875-1.655-1.875a2.361,2.361,0,0,0-1.362.432,1.679,1.679,0,0,0-.747,1.15q-.249,1.187,2.095,1.626a12.174,12.174,0,0,1,3.149,1.121,4.7,4.7,0,0,1,1.7,1.575A3.916,3.916,0,0,1,132.8,26.3a4.236,4.236,0,0,1-.937,2.563,6.07,6.07,0,0,1-2.585,1.8,9.261,9.261,0,0,1-3.669.63,7.448,7.448,0,0,1-3.186-.718,5.681,5.681,0,0,1-2.3-1.912,4.965,4.965,0,0,1-.857-2.776l4.482.029A1.851,1.851,0,0,0,125.856,28a2.769,2.769,0,0,0,1.523-.4A1.742,1.742,0,0,0,128.17,26.459Zm20.669-11.323-.337,1.9a5.634,5.634,0,0,1,4.585-2.2,3.784,3.784,0,0,1,3.274,1.633,6.836,6.836,0,0,1,.784,4.548L155.475,31h-4.834l1.685-10.017a5.18,5.18,0,0,0,.029-.939q-.1-1.393-1.641-1.393a3.012,3.012,0,0,0-2.329,1.129L146.408,31h-4.819l2.754-15.85Zm17.285,16.157a7.368,7.368,0,0,1-3.787-1,6.322,6.322,0,0,1-2.512-2.754,7.4,7.4,0,0,1-.674-3.889l.044-.41a9.715,9.715,0,0,1,2.717-6.189,7.517,7.517,0,0,1,5.691-2.19,6.129,6.129,0,0,1,3.486,1.034,5.78,5.78,0,0,1,2.124,2.773,8.492,8.492,0,0,1,.439,3.968l-.278,2.01h-9.434a3.09,3.09,0,0,0,.7,2.021,2.582,2.582,0,0,0,1.963.82,4.988,4.988,0,0,0,3.765-1.611l2.021,2.673a5.964,5.964,0,0,1-2.5,1.994,8.772,8.772,0,0,1-3.508.752ZM167.3,18.666a2.479,2.479,0,0,0-1.78.641,5.381,5.381,0,0,0-1.311,2.245h4.819l.088-.423a3.215,3.215,0,0,0,.029-.962A1.7,1.7,0,0,0,167.3,18.666Zm15.981-7.456-.688,3.94h2.534l-.6,3.428h-2.534l-1.23,7.28a1.941,1.941,0,0,0,.1,1.128q.2.381.989.41a11.455,11.455,0,0,0,1.26-.073L182.75,30.9a7.789,7.789,0,0,1-2.593.366,4.271,4.271,0,0,1-3.354-1.318,4.5,4.5,0,0,1-.908-3.5l1.289-7.866h-1.963l.586-3.428h1.963l.688-3.94ZM193.312,31a4.3,4.3,0,0,1-.205-1.436,4.889,4.889,0,0,1-3.882,1.729,4.777,4.777,0,0,1-3.428-1.377,4.139,4.139,0,0,1-1.274-3.267,4.649,4.649,0,0,1,2.153-3.962A10.152,10.152,0,0,1,192.36,21.3l1.611.029.176-.894.059-.776a1.258,1.258,0,0,0-1.333-1.377,1.852,1.852,0,0,0-1.948,1.743l-4.834.015a4.591,4.591,0,0,1,1.04-2.776,6.164,6.164,0,0,1,2.629-1.816,9.187,9.187,0,0,1,3.538-.593,7.085,7.085,0,0,1,3.157.754,4.7,4.7,0,0,1,2.029,1.978A5.052,5.052,0,0,1,199,20.512l-1.187,7.456-.073.908a4,4,0,0,0,.278,1.846L198,31Zm-2.754-3.193a3.108,3.108,0,0,0,2.593-1.3l.483-2.549-1.245-.015a3.282,3.282,0,0,0-1.992.681,2.583,2.583,0,0,0-.981,1.78,1.3,1.3,0,0,0,.227.989A1.16,1.16,0,0,0,190.558,27.807Zm18.34-1.348q.19-.967-1.494-1.45l-1.04-.264a8.009,8.009,0,0,1-3.735-1.89,3.74,3.74,0,0,1-1.113-2.886,4.6,4.6,0,0,1,2.029-3.713,7.721,7.721,0,0,1,4.768-1.4,7.153,7.153,0,0,1,4.534,1.421,4.635,4.635,0,0,1,1.765,3.75l-4.8-.015q.059-1.875-1.655-1.875a2.361,2.361,0,0,0-1.362.432,1.679,1.679,0,0,0-.747,1.15q-.249,1.187,2.095,1.626a12.174,12.174,0,0,1,3.149,1.121,4.7,4.7,0,0,1,1.7,1.575,3.916,3.916,0,0,1,.542,2.256,4.236,4.236,0,0,1-.937,2.563,6.07,6.07,0,0,1-2.585,1.8,9.261,9.261,0,0,1-3.669.63,7.448,7.448,0,0,1-3.186-.718,5.681,5.681,0,0,1-2.3-1.912,4.965,4.965,0,0,1-.857-2.776l4.482.029A1.851,1.851,0,0,0,206.583,28a2.769,2.769,0,0,0,1.523-.4A1.742,1.742,0,0,0,208.9,26.459Z" transform="translate(5164.632 -4675.5)" fill="#12263f"/>
    <path id="Trazado_191635" data-name="Trazado 191635" d="M15.31,16.886l-4.38-1.3,1.333-2.62,4.321,1.961.557-5.254H20.2l-1.26,5.122,4.6-1.8L24,15.935l-4.951,1.317,2.49,3.97-2.563,1.6L17.111,18.5,13.8,22.6l-2.358-1.8ZM40.915,31H36.081l2.725-15.674L33.84,16.732l.674-3.911,9.434-3.149.542-.015Zm13.813.293a6.354,6.354,0,0,1-3.171-.857,5.3,5.3,0,0,1-2.087-2.388,9.036,9.036,0,0,1-.791-3.582,13.651,13.651,0,0,1,.088-2.183l.557-3.721a12.613,12.613,0,0,1,2.886-6.877,7.137,7.137,0,0,1,5.64-2.307,5.631,5.631,0,0,1,4.358,1.875A7.768,7.768,0,0,1,63.9,16.205a14.915,14.915,0,0,1-.1,2.183l-.586,3.794a12.5,12.5,0,0,1-2.908,6.87A7.14,7.14,0,0,1,54.729,31.293Zm4.351-13.564a16.836,16.836,0,0,0,.146-1.8q0-2.681-1.7-2.769-2.607-.132-3.237,4.468L53.513,22.9a16.68,16.68,0,0,0-.146,1.8q-.073,2.71,1.685,2.813,2.651.132,3.267-4.585ZM71.721,31.293a6.354,6.354,0,0,1-3.171-.857,5.3,5.3,0,0,1-2.087-2.388,9.036,9.036,0,0,1-.791-3.582,13.651,13.651,0,0,1,.088-2.183l.557-3.721A12.613,12.613,0,0,1,69.2,11.686a7.137,7.137,0,0,1,5.64-2.307A5.631,5.631,0,0,1,79.2,11.254a7.768,7.768,0,0,1,1.692,4.951,14.915,14.915,0,0,1-.1,2.183L80.2,22.182a12.5,12.5,0,0,1-2.908,6.87A7.14,7.14,0,0,1,71.721,31.293Zm4.351-13.564a16.836,16.836,0,0,0,.146-1.8q0-2.681-1.7-2.769-2.607-.132-3.237,4.468L70.5,22.9a16.68,16.68,0,0,0-.146,1.8q-.073,2.71,1.685,2.813,2.651.132,3.267-4.585Z" transform="translate(5421.978 -4698)" fill="#12263f"/>
    <path id="Trazado_191636" data-name="Trazado 191636" d="M-215.266,0h-5.01l3.706-21.328h5Zm10.62-15.864-.322,1.9a5.69,5.69,0,0,1,4.629-2.183,4.181,4.181,0,0,1,2.358.674,3.071,3.071,0,0,1,1.23,1.714,6.032,6.032,0,0,1,4.819-2.388,3.735,3.735,0,0,1,3.259,1.648,6.862,6.862,0,0,1,.769,4.519L-189.558,0h-4.834l1.685-9.978.059-.863q0-1.448-1.362-1.492a3.121,3.121,0,0,0-2.373,1.3L-198.3,0h-4.834l1.67-9.949.059-.878q0-1.507-1.362-1.507a3.1,3.1,0,0,0-2.344,1.3L-207.063,0h-4.819l2.754-15.85Zm33.6,7.954a13.166,13.166,0,0,1-1.3,4.431,7.246,7.246,0,0,1-2.468,2.886,5.7,5.7,0,0,1-3.289.9,4.306,4.306,0,0,1-3.369-1.641l-1.436,7.427h-4.819l3.809-21.943,4.453-.015-.249,1.509a4.659,4.659,0,0,1,3.765-1.787,4.436,4.436,0,0,1,3.611,1.655,7.314,7.314,0,0,1,1.384,4.438A17.123,17.123,0,0,1-171.042-7.91Zm-4.687-1.963q-.073-2.417-1.641-2.461a2.841,2.841,0,0,0-2.534,1.245L-181.033-4.8a1.956,1.956,0,0,0,2.021,1.3q2.563.044,3.149-4.409Q-175.73-9.316-175.73-9.873ZM-161.243,0a4.3,4.3,0,0,1-.205-1.436A4.889,4.889,0,0,1-165.33.293a4.777,4.777,0,0,1-3.428-1.377,4.139,4.139,0,0,1-1.274-3.267,4.649,4.649,0,0,1,2.153-3.962A10.152,10.152,0,0,1-162.195-9.7l1.611.029.176-.894.059-.776a1.258,1.258,0,0,0-1.333-1.377,1.852,1.852,0,0,0-1.948,1.743l-4.834.015a4.591,4.591,0,0,1,1.04-2.776,6.164,6.164,0,0,1,2.629-1.816,9.187,9.187,0,0,1,3.538-.593,7.085,7.085,0,0,1,3.157.754,4.7,4.7,0,0,1,2.029,1.978,5.052,5.052,0,0,1,.513,2.922l-1.187,7.456-.073.908a4,4,0,0,0,.278,1.846l-.015.278ZM-164-3.193A3.108,3.108,0,0,0-161.4-4.5l.483-2.549-1.245-.015a3.282,3.282,0,0,0-1.992.681,2.583,2.583,0,0,0-.981,1.78,1.3,1.3,0,0,0,.227.989A1.16,1.16,0,0,0-164-3.193Zm16.743-.322a2.073,2.073,0,0,0,1.626-.575,2.861,2.861,0,0,0,.747-1.564l4.512-.015a5.931,5.931,0,0,1-1.033,3.12A6.241,6.241,0,0,1-143.95-.417a7.535,7.535,0,0,1-3.435.71,5.95,5.95,0,0,1-4.878-2.278,7.877,7.877,0,0,1-1.392-5.735l.044-.352a10.619,10.619,0,0,1,1.348-4.255,7.71,7.71,0,0,1,2.849-2.864,7.389,7.389,0,0,1,3.948-.952,5.893,5.893,0,0,1,4.373,1.765,6.259,6.259,0,0,1,1.545,4.607l-4.512-.015q.073-2.505-1.8-2.549-2.549-.088-2.93,4.278l-.132,1.489-.015.555Q-148.938-3.559-147.253-3.516Zm16.963-16.274-.688,3.94h2.534l-.6,3.428h-2.534l-1.23,7.28a1.941,1.941,0,0,0,.1,1.128q.2.381.989.41a11.455,11.455,0,0,0,1.26-.073L-130.818-.1a7.789,7.789,0,0,1-2.593.366,4.271,4.271,0,0,1-3.354-1.318,4.5,4.5,0,0,1-.908-3.5l1.289-7.866h-1.963l.586-3.428h1.963l.688-3.94Zm9.9,3.647a6.656,6.656,0,0,1,3.677,1.062,5.983,5.983,0,0,1,2.278,2.878,8.883,8.883,0,0,1,.52,4.1l-.029.322a9.393,9.393,0,0,1-2.71,5.889A7.625,7.625,0,0,1-122.336.293a6.629,6.629,0,0,1-3.647-1.047A6.021,6.021,0,0,1-128.262-3.6a8.632,8.632,0,0,1-.535-4.072,9.771,9.771,0,0,1,2.673-6.211A7.578,7.578,0,0,1-120.388-16.143Zm-3.589,8.474-.044.863q-.205,3.261,1.992,3.32,2.842.088,3.3-4.607l.059-1.331a3.592,3.592,0,0,0-.491-2.1,1.788,1.788,0,0,0-1.531-.812,2.52,2.52,0,0,0-2.19,1.089A7.13,7.13,0,0,0-123.977-7.669Zm19.028-.285a11.528,11.528,0,0,1,2.285-6.006,5.663,5.663,0,0,1,4.775-2.183,4.319,4.319,0,0,1,3.354,1.7L-93-22.5h4.834L-92.058,0H-96.35l.205-1.714a4.947,4.947,0,0,1-3.94,2.021,4.366,4.366,0,0,1-3.582-1.692,7.46,7.46,0,0,1-1.384-4.46,13.719,13.719,0,0,1,.059-1.8Zm4.8.337a11.5,11.5,0,0,0-.1,1.641q0,2.432,1.641,2.476a3.073,3.073,0,0,0,2.534-1.362l1.084-6.079a1.951,1.951,0,0,0-1.934-1.392A2.464,2.464,0,0,0-99.1-11.169,7.511,7.511,0,0,0-100.144-7.617ZM-81.35.293a7.368,7.368,0,0,1-3.787-1,6.322,6.322,0,0,1-2.512-2.754,7.4,7.4,0,0,1-.674-3.889l.044-.41a9.715,9.715,0,0,1,2.717-6.189,7.517,7.517,0,0,1,5.691-2.19,6.129,6.129,0,0,1,3.486,1.034,5.78,5.78,0,0,1,2.124,2.773,8.492,8.492,0,0,1,.439,3.968l-.278,2.01h-9.434a3.09,3.09,0,0,0,.7,2.021,2.582,2.582,0,0,0,1.963.82A4.988,4.988,0,0,0-77.1-5.127l2.021,2.673a5.964,5.964,0,0,1-2.5,1.994,8.772,8.772,0,0,1-3.508.752Zm1.172-12.627a2.479,2.479,0,0,0-1.78.641,5.381,5.381,0,0,0-1.311,2.245h4.819l.088-.423a3.215,3.215,0,0,0,.029-.962A1.7,1.7,0,0,0-80.178-12.334ZM-60.754,0h-4.834l3.9-22.5h4.834Zm12,0a4.3,4.3,0,0,1-.205-1.436A4.889,4.889,0,0,1-52.844.293a4.777,4.777,0,0,1-3.428-1.377,4.139,4.139,0,0,1-1.274-3.267,4.649,4.649,0,0,1,2.153-3.962A10.152,10.152,0,0,1-49.709-9.7l1.611.029.176-.894.059-.776A1.258,1.258,0,0,0-49.2-12.715a1.852,1.852,0,0,0-1.948,1.743l-4.834.015a4.591,4.591,0,0,1,1.04-2.776,6.164,6.164,0,0,1,2.629-1.816,9.187,9.187,0,0,1,3.538-.593,7.085,7.085,0,0,1,3.157.754,4.7,4.7,0,0,1,2.029,1.978,5.052,5.052,0,0,1,.513,2.922L-44.26-3.032l-.073.908a4,4,0,0,0,.278,1.846L-44.07,0Zm-2.754-3.193a3.108,3.108,0,0,0,2.593-1.3l.483-2.549-1.245-.015a3.282,3.282,0,0,0-1.992.681,2.583,2.583,0,0,0-.981,1.78,1.3,1.3,0,0,0,.227.989A1.16,1.16,0,0,0-51.511-3.193Zm24.141-.322a2.073,2.073,0,0,0,1.626-.575A2.861,2.861,0,0,0-25-5.654l4.512-.015a5.931,5.931,0,0,1-1.033,3.12A6.241,6.241,0,0,1-24.067-.417,7.535,7.535,0,0,1-27.5.293,5.95,5.95,0,0,1-32.38-1.985,7.877,7.877,0,0,1-33.772-7.72l.044-.352a10.619,10.619,0,0,1,1.348-4.255,7.71,7.71,0,0,1,2.849-2.864,7.389,7.389,0,0,1,3.948-.952,5.893,5.893,0,0,1,4.373,1.765,6.259,6.259,0,0,1,1.545,4.607l-4.512-.015q.073-2.505-1.8-2.549-2.549-.088-2.93,4.278l-.132,1.489-.015.555Q-29.055-3.559-27.371-3.516ZM-10.51,0a4.3,4.3,0,0,1-.205-1.436A4.889,4.889,0,0,1-14.6.293a4.777,4.777,0,0,1-3.428-1.377A4.139,4.139,0,0,1-19.3-4.351a4.649,4.649,0,0,1,2.153-3.962A10.152,10.152,0,0,1-11.462-9.7l1.611.029.176-.894.059-.776a1.258,1.258,0,0,0-1.333-1.377A1.852,1.852,0,0,0-12.9-10.972l-4.834.015a4.591,4.591,0,0,1,1.04-2.776,6.164,6.164,0,0,1,2.629-1.816,9.187,9.187,0,0,1,3.538-.593,7.085,7.085,0,0,1,3.157.754,4.7,4.7,0,0,1,2.029,1.978,5.052,5.052,0,0,1,.513,2.922L-6.013-3.032l-.073.908A4,4,0,0,0-5.808-.278L-5.823,0Zm-2.754-3.193a3.108,3.108,0,0,0,2.593-1.3l.483-2.549-1.245-.015a3.282,3.282,0,0,0-1.992.681,2.583,2.583,0,0,0-.981,1.78,1.3,1.3,0,0,0,.227.989A1.16,1.16,0,0,0-13.264-3.193ZM7.581-11.382a13.788,13.788,0,0,0-1.494-.146,3.721,3.721,0,0,0-3.311,1.494L.989,0H-3.831l2.754-15.85,4.5-.015-.366,2.08q1.553-2.4,3.662-2.4a6.906,6.906,0,0,1,1.494.205Zm.557,3.428a12.043,12.043,0,0,1,1.311-4.321A7.607,7.607,0,0,1,12.034-15.2a6.226,6.226,0,0,1,3.516-.959,4.328,4.328,0,0,1,3.6,1.714l.513-1.421,4.453.015L21.526-.615A7.446,7.446,0,0,1,18.7,4.468,9,9,0,0,1,12.751,6.24,8.491,8.491,0,0,1,9.69,5.61,6.6,6.6,0,0,1,7.156,3.794L9.441.952a4.149,4.149,0,0,0,3.311,1.655q3.208.059,4.072-3.413l.117-.483A4.956,4.956,0,0,1,13.323.293a4.887,4.887,0,0,1-2.681-.769A5.056,5.056,0,0,1,8.826-2.651a8.46,8.46,0,0,1-.747-3.164A13.755,13.755,0,0,1,8.137-7.954ZM12.9-6.387a3.844,3.844,0,0,0,.483,2.095,1.639,1.639,0,0,0,1.406.776A3.221,3.221,0,0,0,17.263-4.57l1.245-6.724a2.135,2.135,0,0,0-1.963-1.055,2.8,2.8,0,0,0-2.358,1.194,6.436,6.436,0,0,0-1.2,3.215Q12.9-7.017,12.9-6.387ZM33.142,0a4.3,4.3,0,0,1-.205-1.436A4.889,4.889,0,0,1,29.055.293a4.777,4.777,0,0,1-3.428-1.377,4.139,4.139,0,0,1-1.274-3.267,4.649,4.649,0,0,1,2.153-3.962A10.152,10.152,0,0,1,32.19-9.7l1.611.029.176-.894.059-.776A1.258,1.258,0,0,0,32.7-12.715a1.852,1.852,0,0,0-1.948,1.743l-4.834.015a4.591,4.591,0,0,1,1.04-2.776,6.164,6.164,0,0,1,2.629-1.816,9.187,9.187,0,0,1,3.538-.593,7.085,7.085,0,0,1,3.157.754,4.7,4.7,0,0,1,2.029,1.978,5.052,5.052,0,0,1,.513,2.922L37.639-3.032l-.073.908a4,4,0,0,0,.278,1.846L37.83,0ZM30.388-3.193a3.108,3.108,0,0,0,2.593-1.3l.483-2.549-1.245-.015a3.282,3.282,0,0,0-1.992.681,2.583,2.583,0,0,0-.981,1.78,1.3,1.3,0,0,0,.227.989A1.16,1.16,0,0,0,30.388-3.193ZM55.7,0l2.153-12.422H55.627l.6-3.428,2.08.015.117-.6A7.771,7.771,0,0,1,61.157-21.2a8.459,8.459,0,0,1,5.471-1.626,22.15,22.15,0,0,1,5.039.835l-1.025,3.926a12.738,12.738,0,0,0-3.984-.688,3.877,3.877,0,0,0-2.183.608,3.027,3.027,0,0,0-1.245,1.868l-.1.439,3.179-.015-.615,3.428h-3L60.535,0ZM70.188,0H65.354l2.739-15.85h4.849Zm10.2-15.864-.337,1.9a5.634,5.634,0,0,1,4.585-2.2,3.784,3.784,0,0,1,3.274,1.633,6.836,6.836,0,0,1,.784,4.548L87.019,0H82.185L83.87-10.017a5.18,5.18,0,0,0,.029-.939q-.1-1.393-1.641-1.393a3.012,3.012,0,0,0-2.329,1.129L77.952,0H73.132l2.754-15.85ZM98.723,0a4.3,4.3,0,0,1-.205-1.436A4.889,4.889,0,0,1,94.636.293a4.777,4.777,0,0,1-3.428-1.377,4.139,4.139,0,0,1-1.274-3.267,4.649,4.649,0,0,1,2.153-3.962A10.152,10.152,0,0,1,97.771-9.7l1.611.029.176-.894.059-.776a1.258,1.258,0,0,0-1.333-1.377,1.852,1.852,0,0,0-1.948,1.743l-4.834.015a4.591,4.591,0,0,1,1.04-2.776,6.164,6.164,0,0,1,2.629-1.816,9.187,9.187,0,0,1,3.538-.593,7.085,7.085,0,0,1,3.157.754,4.7,4.7,0,0,1,2.029,1.978,5.052,5.052,0,0,1,.513,2.922L103.22-3.032l-.073.908a4,4,0,0,0,.278,1.846L103.411,0ZM95.969-3.193a3.108,3.108,0,0,0,2.593-1.3l.483-2.549L97.8-7.061a3.282,3.282,0,0,0-1.992.681,2.583,2.583,0,0,0-.981,1.78,1.3,1.3,0,0,0,.227.989A1.16,1.16,0,0,0,95.969-3.193Zm16.553-12.671-.337,1.9a5.634,5.634,0,0,1,4.585-2.2,3.784,3.784,0,0,1,3.274,1.633,6.836,6.836,0,0,1,.784,4.548L119.158,0h-4.834l1.685-10.017a5.18,5.18,0,0,0,.029-.939q-.1-1.393-1.641-1.393a3.012,3.012,0,0,0-2.329,1.129L110.09,0h-4.819l2.754-15.85ZM129.265-3.516a2.073,2.073,0,0,0,1.626-.575,2.861,2.861,0,0,0,.747-1.564l4.512-.015a5.931,5.931,0,0,1-1.033,3.12,6.241,6.241,0,0,1-2.549,2.131,7.535,7.535,0,0,1-3.435.71,5.95,5.95,0,0,1-4.878-2.278,7.877,7.877,0,0,1-1.392-5.735l.044-.352a10.619,10.619,0,0,1,1.348-4.255A7.71,7.71,0,0,1,127.1-15.19a7.389,7.389,0,0,1,3.948-.952,5.893,5.893,0,0,1,4.373,1.765,6.259,6.259,0,0,1,1.545,4.607l-4.512-.015q.073-2.505-1.8-2.549-2.549-.088-2.93,4.278L127.6-6.567l-.015.555Q127.581-3.559,129.265-3.516ZM142.273,0h-4.834l2.754-15.85h4.834Zm-1.655-19.849a2.235,2.235,0,0,1,.754-1.787,2.708,2.708,0,0,1,1.9-.718,2.8,2.8,0,0,1,1.882.645,2.2,2.2,0,0,1,.784,1.685,2.24,2.24,0,0,1-.747,1.794,2.717,2.717,0,0,1-1.9.71,2.831,2.831,0,0,1-1.868-.637A2.171,2.171,0,0,1,140.618-19.849ZM153.215.293a7.368,7.368,0,0,1-3.787-1,6.322,6.322,0,0,1-2.512-2.754,7.4,7.4,0,0,1-.674-3.889l.044-.41A9.715,9.715,0,0,1,149-13.953a7.517,7.517,0,0,1,5.691-2.19,6.129,6.129,0,0,1,3.486,1.034,5.78,5.78,0,0,1,2.124,2.773,8.492,8.492,0,0,1,.439,3.968l-.278,2.01h-9.434a3.09,3.09,0,0,0,.7,2.021,2.582,2.582,0,0,0,1.963.82,4.988,4.988,0,0,0,3.765-1.611l2.021,2.673a5.964,5.964,0,0,1-2.5,1.994,8.772,8.772,0,0,1-3.508.752Zm1.172-12.627a2.479,2.479,0,0,0-1.78.641A5.381,5.381,0,0,0,151.3-9.448h4.819l.088-.423a3.215,3.215,0,0,0,.029-.962A1.7,1.7,0,0,0,154.387-12.334Zm18.384.952a13.788,13.788,0,0,0-1.494-.146,3.721,3.721,0,0,0-3.311,1.494L166.179,0H161.36l2.754-15.85,4.5-.015-.366,2.08q1.553-2.4,3.662-2.4a6.906,6.906,0,0,1,1.494.205Zm8.452-4.761a6.656,6.656,0,0,1,3.677,1.062,5.983,5.983,0,0,1,2.278,2.878,8.883,8.883,0,0,1,.52,4.1l-.029.322a9.393,9.393,0,0,1-2.71,5.889A7.625,7.625,0,0,1,179.275.293a6.629,6.629,0,0,1-3.647-1.047A6.021,6.021,0,0,1,173.35-3.6a8.632,8.632,0,0,1-.535-4.072,9.771,9.771,0,0,1,2.673-6.211A7.578,7.578,0,0,1,181.223-16.143Zm-3.589,8.474-.044.863q-.205,3.261,1.992,3.32,2.842.088,3.3-4.607l.059-1.331a3.592,3.592,0,0,0-.491-2.1,1.788,1.788,0,0,0-1.531-.812,2.52,2.52,0,0,0-2.19,1.089A7.13,7.13,0,0,0,177.634-7.669Zm33.735-2.907h-13.2l.674-3.809h13.184Zm-1.113,6.431h-13.2l.674-3.809h13.184Z" transform="translate(4928 -4669)" fill="#12263f"/>
  </g>
</svg>
