<svg xmlns="http://www.w3.org/2000/svg" xmlns:xlink="http://www.w3.org/1999/xlink" width="282" height="129" viewBox="0 0 282 129">
  <defs>
    <filter id="Trazado_191639" x="0" y="0" width="282" height="129" filterUnits="userSpaceOnUse">
      <feOffset dy="3" input="SourceAlpha"/>
      <feGaussianBlur stdDeviation="3" result="blur"/>
      <feFlood flood-opacity="0.161"/>
      <feComposite operator="in" in2="blur"/>
      <feComposite in="SourceGraphic"/>
    </filter>
  </defs>
  <g id="Grupo_128963" data-name="Grupo 128963" transform="translate(-687 -2121)">
    <g transform="matrix(1, 0, 0, 1, 687, 2121)" filter="url(#Trazado_191639)">
      <path id="Trazado_191639-2" data-name="Trazado 191639" d="M10,0H254a10,10,0,0,1,10,10v91a10,10,0,0,1-10,10H10A10,10,0,0,1,0,101V10A10,10,0,0,1,10,0Z" transform="translate(9 6)" fill="#fff"/>
    </g>
    <path id="Trazado_191640" data-name="Trazado 191640" d="M27.852,29H22.9V13.15h4.951ZM22.608,9.063a2.2,2.2,0,0,1,.762-1.729,3.239,3.239,0,0,1,3.955,0,2.2,2.2,0,0,1,.762,1.729,2.2,2.2,0,0,1-.762,1.729,3.239,3.239,0,0,1-3.955,0A2.2,2.2,0,0,1,22.608,9.063Zm37.28,9.36H46.324V14.615H59.888Zm0,6.431H46.324V21.046H59.888Zm18.823-4.526a22.386,22.386,0,0,1,.952-6.65,16.049,16.049,0,0,1,2.629-5.215,9.338,9.338,0,0,1,3.728-2.988l.938,2.432a9.55,9.55,0,0,0-3.171,4.709,22.97,22.97,0,0,0-1.135,7.507v.645a23.418,23.418,0,0,0,1.121,7.646,9.51,9.51,0,0,0,3.186,4.746l-.937,2.432a9.245,9.245,0,0,1-3.728-3A15.807,15.807,0,0,1,79.664,27.4a22.493,22.493,0,0,1-.952-6.416Zm23.877.176H94.3V29H89.156V7.672h14.268v3.97H94.3v4.907h8.291Zm4.438,10.327h-3.5l7.28-23.159h3.516Zm26.323-9.053a7.789,7.789,0,0,1-1.2,3.933,7.249,7.249,0,0,1-3.083,2.644,10.5,10.5,0,0,1-4.534.938,8.375,8.375,0,0,1-6.621-2.739q-2.417-2.739-2.417-7.734V17.765a12.91,12.91,0,0,1,1.091-5.486,8.269,8.269,0,0,1,3.142-3.633,8.767,8.767,0,0,1,4.746-1.282,9.193,9.193,0,0,1,6.24,2.043,8.074,8.074,0,0,1,2.681,5.632h-5.127a3.82,3.82,0,0,0-.981-2.8,4.037,4.037,0,0,0-2.812-.85,3.071,3.071,0,0,0-2.812,1.436,9.226,9.226,0,0,0-.937,4.585v1.509a10.209,10.209,0,0,0,.857,4.878,3.136,3.136,0,0,0,2.952,1.465,3.948,3.948,0,0,0,2.71-.835,3.544,3.544,0,0,0,1-2.651Zm9.609-1.04a20.887,20.887,0,0,1-1.011,6.533,16.68,16.68,0,0,1-2.791,5.31,9.29,9.29,0,0,1-3.845,3.01l-.937-2.432a9.645,9.645,0,0,0,3.149-4.687,22.628,22.628,0,0,0,1.157-7.28V20.3a23.418,23.418,0,0,0-1.121-7.646,9.51,9.51,0,0,0-3.186-4.746l.938-2.432a9.46,9.46,0,0,1,3.816,2.981,16.475,16.475,0,0,1,2.783,5.229,20.711,20.711,0,0,1,1.047,6.409Zm26.467-.205H153.975V16.666h15.451ZM182.613,29h-4.951V13.238L172.8,14.659v-3.75l9.36-3.237h.454Z" transform="translate(732 2147)" fill="#12263f"/>
    <path id="Trazado_191046" data-name="Trazado 191046" d="M-8007-9563.306h107" transform="translate(8817 11753.306)" fill="none" stroke="#13273e" stroke-linecap="round" stroke-width="2"/>
    <path id="Trazado_191641" data-name="Trazado 191641" d="M15.458,13.15l.161,1.86a5.375,5.375,0,0,1,4.526-2.153,4.522,4.522,0,0,1,3.7,1.479,7.044,7.044,0,0,1,1.267,4.453V29H20.161V19a2.675,2.675,0,0,0-.483-1.765,2.236,2.236,0,0,0-1.758-.564,2.354,2.354,0,0,0-2.153,1.143V29H10.83V13.15Z" transform="translate(845 2196)" fill="#12263f"/>
  </g>
</svg>
