<svg xmlns="http://www.w3.org/2000/svg" xmlns:xlink="http://www.w3.org/1999/xlink" width="500" height="101" viewBox="0 0 500 101">
  <defs>
    <filter id="Trazado_191642" x="0" y="0" width="500" height="101" filterUnits="userSpaceOnUse">
      <feOffset dy="3" input="SourceAlpha"/>
      <feGaussianBlur stdDeviation="3" result="blur"/>
      <feFlood flood-opacity="0.161"/>
      <feComposite operator="in" in2="blur"/>
      <feComposite in="SourceGraphic"/>
    </filter>
  </defs>
  <g id="Grupo_128964" data-name="Grupo 128964" transform="translate(8751 6970)">
    <g transform="matrix(1, 0, 0, 1, -8751, -6970)" filter="url(#Trazado_191642)">
      <path id="Trazado_191642-2" data-name="Trazado 191642" d="M10,0H472a10,10,0,0,1,10,10V73a10,10,0,0,1-10,10H10A10,10,0,0,1,0,73V10A10,10,0,0,1,10,0Z" transform="translate(9 6)" fill="#f6f6f6"/>
    </g>
    <path id="Trazado_191643" data-name="Trazado 191643" d="M37.434,10.352h-4.5V15H30.59V3.625H38v1.9H32.934V8.461h4.5Zm12.938-1.18H43.387V7.328h6.984Zm0,3.383H43.387V10.711h6.984ZM61.723,15H59.465V6.3l-2.7.836V5.3L61.48,3.609h.242Zm11.352-4.7a5.763,5.763,0,0,1-.977,3.609,3.9,3.9,0,0,1-5.7.023,5.594,5.594,0,0,1-1.008-3.516V8.32A5.687,5.687,0,0,1,66.375,4.7a3.91,3.91,0,0,1,5.691-.012A5.576,5.576,0,0,1,73.074,8.2Zm-2.258-2.3a4.165,4.165,0,0,0-.387-2.061,1.307,1.307,0,0,0-1.207-.645,1.284,1.284,0,0,0-1.176.614,3.9,3.9,0,0,0-.4,1.92v2.768a4.373,4.373,0,0,0,.379,2.068,1.29,1.29,0,0,0,1.215.676,1.268,1.268,0,0,0,1.2-.649,4.268,4.268,0,0,0,.383-1.986Zm3.992,5.9a1.137,1.137,0,0,1,.363-.875,1.412,1.412,0,0,1,1.828,0,1.137,1.137,0,0,1,.363.875,1.121,1.121,0,0,1-.359.863,1.435,1.435,0,0,1-1.836,0A1.121,1.121,0,0,1,74.809,13.891ZM86.9,10.3a5.763,5.763,0,0,1-.977,3.609,3.9,3.9,0,0,1-5.7.023,5.594,5.594,0,0,1-1.008-3.516V8.32A5.687,5.687,0,0,1,80.2,4.7a3.91,3.91,0,0,1,5.691-.012A5.576,5.576,0,0,1,86.9,8.2Zm-2.258-2.3a4.165,4.165,0,0,0-.387-2.061,1.307,1.307,0,0,0-1.207-.645,1.284,1.284,0,0,0-1.176.614,3.9,3.9,0,0,0-.4,1.92v2.768a4.373,4.373,0,0,0,.379,2.068,1.29,1.29,0,0,0,1.215.676,1.268,1.268,0,0,0,1.2-.649,4.268,4.268,0,0,0,.383-1.986Zm11.438,2.3a5.763,5.763,0,0,1-.977,3.609,3.9,3.9,0,0,1-5.7.023,5.594,5.594,0,0,1-1.008-3.516V8.32A5.687,5.687,0,0,1,89.383,4.7a3.91,3.91,0,0,1,5.691-.012A5.576,5.576,0,0,1,96.082,8.2Zm-2.258-2.3a4.165,4.165,0,0,0-.387-2.061,1.307,1.307,0,0,0-1.207-.645,1.284,1.284,0,0,0-1.176.614,3.9,3.9,0,0,0-.4,1.92v2.768a4.373,4.373,0,0,0,.379,2.068,1.29,1.29,0,0,0,1.215.676,1.268,1.268,0,0,0,1.2-.649,4.268,4.268,0,0,0,.383-1.986Zm11.438,2.3a5.763,5.763,0,0,1-.977,3.609,3.9,3.9,0,0,1-5.7.023,5.594,5.594,0,0,1-1.008-3.516V8.32A5.687,5.687,0,0,1,98.563,4.7a3.91,3.91,0,0,1,5.691-.012A5.576,5.576,0,0,1,105.262,8.2ZM103,7.995a4.165,4.165,0,0,0-.387-2.061,1.307,1.307,0,0,0-1.207-.645,1.284,1.284,0,0,0-1.176.614,3.9,3.9,0,0,0-.4,1.92v2.768a4.373,4.373,0,0,0,.379,2.068,1.29,1.29,0,0,0,1.215.676,1.268,1.268,0,0,0,1.2-.649A4.268,4.268,0,0,0,103,10.7Zm3.992,5.9a1.137,1.137,0,0,1,.363-.875,1.412,1.412,0,0,1,1.828,0,1.137,1.137,0,0,1,.363.875,1.121,1.121,0,0,1-.359.863,1.435,1.435,0,0,1-1.836,0A1.121,1.121,0,0,1,107,13.891ZM119.09,10.3a5.763,5.763,0,0,1-.977,3.609,3.9,3.9,0,0,1-5.7.023,5.594,5.594,0,0,1-1.008-3.516V8.32a5.687,5.687,0,0,1,.988-3.617,3.91,3.91,0,0,1,5.691-.012A5.576,5.576,0,0,1,119.09,8.2Zm-2.258-2.3a4.165,4.165,0,0,0-.387-2.061,1.307,1.307,0,0,0-1.207-.645,1.284,1.284,0,0,0-1.176.614,3.9,3.9,0,0,0-.4,1.92v2.768a4.373,4.373,0,0,0,.379,2.068,1.29,1.29,0,0,0,1.215.676,1.268,1.268,0,0,0,1.2-.649,4.268,4.268,0,0,0,.383-1.986Zm11.438,2.3a5.763,5.763,0,0,1-.977,3.609,3.9,3.9,0,0,1-5.7.023,5.594,5.594,0,0,1-1.008-3.516V8.32A5.687,5.687,0,0,1,121.57,4.7a3.91,3.91,0,0,1,5.691-.012A5.576,5.576,0,0,1,128.27,8.2Zm-2.258-2.3a4.165,4.165,0,0,0-.387-2.061,1.307,1.307,0,0,0-1.207-.645,1.284,1.284,0,0,0-1.176.614,3.9,3.9,0,0,0-.4,1.92v2.768a4.373,4.373,0,0,0,.379,2.068,1.29,1.29,0,0,0,1.215.676,1.268,1.268,0,0,0,1.2-.649,4.268,4.268,0,0,0,.383-1.986Zm11.438,2.3a5.762,5.762,0,0,1-.977,3.609,3.9,3.9,0,0,1-5.7.023,5.594,5.594,0,0,1-1.008-3.516V8.32A5.687,5.687,0,0,1,130.75,4.7a3.91,3.91,0,0,1,5.691-.012A5.576,5.576,0,0,1,137.449,8.2Zm-2.258-2.3a4.165,4.165,0,0,0-.387-2.061,1.307,1.307,0,0,0-1.207-.645,1.284,1.284,0,0,0-1.176.614,3.9,3.9,0,0,0-.4,1.92v2.768a4.372,4.372,0,0,0,.379,2.068,1.29,1.29,0,0,0,1.215.676,1.268,1.268,0,0,0,1.2-.649,4.268,4.268,0,0,0,.383-1.986Zm9.656-.514-2.453-.695.461-1.413,2.43.976-.156-2.724h1.531L146.5,6.4l2.367-.96.461,1.428-2.5.695,1.641,2.078-1.242.883-1.422-2.281-1.406,2.2-1.242-.844Zm9.539,2.895a11.99,11.99,0,0,1,.477-3.406,8.989,8.989,0,0,1,1.406-2.863,5.251,5.251,0,0,1,2.016-1.73l.438,1.219A5.438,5.438,0,0,0,156.941,6.2a12.082,12.082,0,0,0-.641,4.125v.242a12.313,12.313,0,0,0,.633,4.141,5.544,5.544,0,0,0,1.789,2.648l-.437,1.2a5.253,5.253,0,0,1-1.98-1.684,8.838,8.838,0,0,1-1.4-2.785,11.918,11.918,0,0,1-.516-3.3Zm5.617,0a11.99,11.99,0,0,1,.477-3.406,8.989,8.989,0,0,1,1.406-2.863,5.251,5.251,0,0,1,2.016-1.73l.438,1.219A5.438,5.438,0,0,0,162.559,6.2a12.082,12.082,0,0,0-.641,4.125v.242a12.313,12.313,0,0,0,.633,4.141,5.544,5.544,0,0,0,1.789,2.648l-.437,1.2a5.253,5.253,0,0,1-1.98-1.684,8.838,8.838,0,0,1-1.4-2.785,11.918,11.918,0,0,1-.516-3.3ZM170.91,15h-2.258V6.3l-2.7.836V5.3l4.711-1.687h.242Zm12.328-6.367h2.82v2.039h-2.82v3.188H181.09V10.672h-2.828V8.633h2.828V5.578h2.148ZM199.105,15h-7.8V13.453l3.68-3.922a9.078,9.078,0,0,0,1.121-1.445,2.322,2.322,0,0,0,.363-1.172,1.738,1.738,0,0,0-.383-1.191A1.382,1.382,0,0,0,195,5.289a1.49,1.49,0,0,0-1.207.527,2.089,2.089,0,0,0-.441,1.387h-2.266a3.729,3.729,0,0,1,.5-1.9,3.5,3.5,0,0,1,1.4-1.348,4.262,4.262,0,0,1,2.055-.488,4.036,4.036,0,0,1,2.73.844,2.985,2.985,0,0,1,.973,2.383,3.825,3.825,0,0,1-.437,1.719,9.552,9.552,0,0,1-1.5,2.039l-2.586,2.727h4.891Zm9.039-4.7a5.762,5.762,0,0,1-.977,3.609,3.9,3.9,0,0,1-5.7.023,5.594,5.594,0,0,1-1.008-3.516V8.32a5.687,5.687,0,0,1,.988-3.617,3.91,3.91,0,0,1,5.691-.012A5.576,5.576,0,0,1,208.145,8.2Zm-2.258-2.3a4.165,4.165,0,0,0-.387-2.061,1.307,1.307,0,0,0-1.207-.645,1.284,1.284,0,0,0-1.176.614,3.9,3.9,0,0,0-.4,1.92v2.768a4.372,4.372,0,0,0,.379,2.068,1.29,1.29,0,0,0,1.215.676,1.268,1.268,0,0,0,1.2-.649,4.268,4.268,0,0,0,.383-1.986Zm7.734-2.182a2.249,2.249,0,0,1,.68-1.7,2.465,2.465,0,0,1,1.781-.652,2.5,2.5,0,0,1,1.8.645,2.292,2.292,0,0,1,.68,1.746v.563a2.221,2.221,0,0,1-.68,1.7,2.806,2.806,0,0,1-3.574,0,2.275,2.275,0,0,1-.684-1.738Zm1.5.6a1.053,1.053,0,0,0,.27.754.928.928,0,0,0,.707.285.885.885,0,0,0,.7-.289,1.119,1.119,0,0,0,.258-.773V5.813a1.1,1.1,0,0,0-.258-.758,1,1,0,0,0-1.406,0,1.119,1.119,0,0,0-.266.793Zm3.938,5.8a2.22,2.22,0,0,1,.688-1.7,2.5,2.5,0,0,1,1.781-.645,2.525,2.525,0,0,1,1.793.637A2.279,2.279,0,0,1,224,12.258v.563a2.237,2.237,0,0,1-.672,1.691,2.476,2.476,0,0,1-1.789.645,2.506,2.506,0,0,1-1.8-.648,2.265,2.265,0,0,1-.68-1.719Zm1.5.609a1.044,1.044,0,0,0,.281.734.917.917,0,0,0,.7.3q.953,0,.953-1.055v-.594a1.062,1.062,0,0,0-.266-.754,1.009,1.009,0,0,0-1.406,0,1.1,1.1,0,0,0-.266.777Zm-4.016,1.328-1.1-.594L221,4.664l1.1.594Zm12.906-3.594a11.377,11.377,0,0,1-.508,3.4,9.225,9.225,0,0,1-1.461,2.883,5.264,5.264,0,0,1-2.039,1.719l-.437-1.2a5.494,5.494,0,0,0,1.75-2.578,11.939,11.939,0,0,0,.664-4.008v-.414a12.208,12.208,0,0,0-.637-4.117A5.727,5.727,0,0,0,225,3.57l.438-1.2a5.265,5.265,0,0,1,2,1.672,9.106,9.106,0,0,1,1.461,2.82,11.3,11.3,0,0,1,.543,3.336Zm5.008-.766h-1.594V5.508l-1.477.32V4.594l2.922-.945h.148Zm7.25,0h-4.844V8.711L239.105,6.7a3.035,3.035,0,0,0,.629-.714,1.144,1.144,0,0,0,.191-.51q0-.659-.742-.659a.813.813,0,0,0-.621.244.861.861,0,0,0-.23.615h-1.609a1.992,1.992,0,0,1,.668-1.523,2.438,2.438,0,0,1,1.723-.617,2.791,2.791,0,0,1,1.785.5,1.731,1.731,0,0,1,.629,1.434,1.859,1.859,0,0,1-.281,1,5.192,5.192,0,0,1-1.125,1.133l-1.156.9h2.742Zm13.813.555h-8.091V8.5h8.091ZM266.59,15h-2.258V6.3l-2.7.836V5.3l4.711-1.687h.242Zm7.68-4.445a11.377,11.377,0,0,1-.508,3.4,9.225,9.225,0,0,1-1.461,2.883,5.263,5.263,0,0,1-2.039,1.719l-.437-1.2a5.494,5.494,0,0,0,1.75-2.578,11.938,11.938,0,0,0,.664-4.008v-.414a12.209,12.209,0,0,0-.637-4.117,5.727,5.727,0,0,0-1.777-2.672l.438-1.2a5.265,5.265,0,0,1,2,1.672,9.106,9.106,0,0,1,1.461,2.82,11.3,11.3,0,0,1,.543,3.336Zm16.9-1.383h-6.984V7.328h6.984Zm0,3.383h-6.984V10.711h6.984Zm12.148-4.242h1.2a1.7,1.7,0,0,0,1.273-.43,1.575,1.575,0,0,0,.414-1.141,1.392,1.392,0,0,0-.41-1.07,1.59,1.59,0,0,0-1.129-.383,1.666,1.666,0,0,0-1.086.355,1.137,1.137,0,0,0-.437.926h-2.258a2.777,2.777,0,0,1,.48-1.6,3.2,3.2,0,0,1,1.344-1.105,4.485,4.485,0,0,1,1.9-.4,4.253,4.253,0,0,1,2.828.863,2.945,2.945,0,0,1,1.023,2.379,2.393,2.393,0,0,1-.477,1.438,3.1,3.1,0,0,1-1.25,1.008,2.826,2.826,0,0,1,1.434,1.031,2.8,2.8,0,0,1,.473,1.625,2.994,2.994,0,0,1-1.105,2.43,4.445,4.445,0,0,1-2.926.914,4.214,4.214,0,0,1-2.785-.9,2.934,2.934,0,0,1-1.082-2.375H303a1.308,1.308,0,0,0,.48,1.047,2,2,0,0,0,2.445-.02,1.47,1.47,0,0,0,.457-1.129q0-1.7-1.875-1.7h-1.2Zm12.164,2.141a2.851,2.851,0,0,1-2.062.867A3.049,3.049,0,0,1,311,10.285a4.091,4.091,0,0,1-.906-2.793,4.357,4.357,0,0,1,.488-2.051,3.582,3.582,0,0,1,1.363-1.453,3.782,3.782,0,0,1,1.969-.52,3.617,3.617,0,0,1,2,.563,3.7,3.7,0,0,1,1.359,1.617,5.807,5.807,0,0,1,.492,2.414V8.9a6.579,6.579,0,0,1-1.414,4.469,5.346,5.346,0,0,1-4.008,1.734l-.555.008V13.227l.5-.008Q315.238,13.086,315.48,10.453Zm-1.508-.859a1.579,1.579,0,0,0,.941-.281,1.879,1.879,0,0,0,.6-.68V7.7a3.1,3.1,0,0,0-.437-1.781,1.358,1.358,0,0,0-1.172-.633,1.318,1.318,0,0,0-1.117.621,2.641,2.641,0,0,0-.437,1.559A2.57,2.57,0,0,0,312.773,9,1.387,1.387,0,0,0,313.973,9.594Zm5.742-.187.656-5.781h6.375V5.508h-4.523l-.281,2.445a3.58,3.58,0,0,1,1.711-.43A3.279,3.279,0,0,1,326.2,8.531a4.026,4.026,0,0,1,.922,2.82,4.124,4.124,0,0,1-.465,1.973,3.281,3.281,0,0,1-1.332,1.352,4.158,4.158,0,0,1-2.047.48,4.416,4.416,0,0,1-1.914-.418,3.4,3.4,0,0,1-1.395-1.176,3.2,3.2,0,0,1-.543-1.727h2.234a1.669,1.669,0,0,0,.5,1.105,1.573,1.573,0,0,0,1.113.395,1.388,1.388,0,0,0,1.18-.551,2.552,2.552,0,0,0,.414-1.559,2.11,2.11,0,0,0-.477-1.484,1.749,1.749,0,0,0-1.352-.516,1.954,1.954,0,0,0-1.3.422l-.219.2Zm9.055,4.484a1.137,1.137,0,0,1,.363-.875,1.412,1.412,0,0,1,1.828,0,1.137,1.137,0,0,1,.363.875,1.121,1.121,0,0,1-.359.863,1.435,1.435,0,0,1-1.836,0A1.121,1.121,0,0,1,328.77,13.891Zm11.852-7.242a2.646,2.646,0,0,1-.414,1.469,2.98,2.98,0,0,1-1.141,1.023,3.3,3.3,0,0,1,1.313,1.1,2.816,2.816,0,0,1,.484,1.645,2.981,2.981,0,0,1-1.031,2.395,4.918,4.918,0,0,1-5.617,0,2.974,2.974,0,0,1-1.039-2.391,2.834,2.834,0,0,1,.484-1.648,3.239,3.239,0,0,1,1.3-1.094,2.95,2.95,0,0,1-1.137-1.023,2.664,2.664,0,0,1-.41-1.469,2.948,2.948,0,0,1,.969-2.316,4.457,4.457,0,0,1,5.262-.008A2.937,2.937,0,0,1,340.621,6.648Zm-2.023,5.07a1.638,1.638,0,0,0-.43-1.187,1.719,1.719,0,0,0-2.3,0,1.635,1.635,0,0,0-.43,1.191,1.634,1.634,0,0,0,.422,1.172,1.762,1.762,0,0,0,2.324.016A1.631,1.631,0,0,0,338.6,11.719Zm-.234-4.961a1.563,1.563,0,0,0-.352-1.066,1.43,1.43,0,0,0-1.977-.012,1.553,1.553,0,0,0-.352,1.078,1.633,1.633,0,0,0,.352,1.094,1.391,1.391,0,0,0,1.98,0A1.645,1.645,0,0,0,338.363,6.758Zm11.68,3.539a5.763,5.763,0,0,1-.977,3.609,3.9,3.9,0,0,1-5.7.023,5.594,5.594,0,0,1-1.008-3.516V8.32a5.687,5.687,0,0,1,.988-3.617,3.91,3.91,0,0,1,5.691-.012A5.576,5.576,0,0,1,350.043,8.2Zm-2.258-2.3a4.165,4.165,0,0,0-.387-2.061,1.307,1.307,0,0,0-1.207-.645,1.284,1.284,0,0,0-1.176.614,3.9,3.9,0,0,0-.4,1.92v2.768a4.373,4.373,0,0,0,.379,2.068,1.29,1.29,0,0,0,1.215.676,1.268,1.268,0,0,0,1.2-.649,4.268,4.268,0,0,0,.383-1.986ZM351.9,9.406l.656-5.781h6.375V5.508H354.41l-.281,2.445a3.58,3.58,0,0,1,1.711-.43,3.279,3.279,0,0,1,2.547,1.008,4.026,4.026,0,0,1,.922,2.82,4.124,4.124,0,0,1-.465,1.973,3.281,3.281,0,0,1-1.332,1.352,4.158,4.158,0,0,1-2.047.48,4.416,4.416,0,0,1-1.914-.418,3.4,3.4,0,0,1-1.395-1.176,3.2,3.2,0,0,1-.543-1.727h2.234a1.669,1.669,0,0,0,.5,1.105,1.573,1.573,0,0,0,1.113.395,1.388,1.388,0,0,0,1.18-.551,2.552,2.552,0,0,0,.414-1.559,2.11,2.11,0,0,0-.477-1.484,1.749,1.749,0,0,0-1.352-.516,1.954,1.954,0,0,0-1.3.422l-.219.2Zm9.055,4.484a1.137,1.137,0,0,1,.363-.875,1.412,1.412,0,0,1,1.828,0,1.137,1.137,0,0,1,.363.875,1.121,1.121,0,0,1-.359.863,1.435,1.435,0,0,1-1.836,0A1.121,1.121,0,0,1,360.957,13.891ZM373.051,10.3a5.763,5.763,0,0,1-.977,3.609,3.9,3.9,0,0,1-5.7.023,5.594,5.594,0,0,1-1.008-3.516V8.32a5.687,5.687,0,0,1,.988-3.617,3.91,3.91,0,0,1,5.691-.012A5.576,5.576,0,0,1,373.051,8.2Zm-2.258-2.3a4.165,4.165,0,0,0-.387-2.061,1.307,1.307,0,0,0-1.207-.645,1.284,1.284,0,0,0-1.176.614,3.9,3.9,0,0,0-.4,1.92v2.768A4.373,4.373,0,0,0,368,12.659a1.29,1.29,0,0,0,1.215.676,1.268,1.268,0,0,0,1.2-.649,4.268,4.268,0,0,0,.383-1.986ZM382.371,15h-7.8V13.453l3.68-3.922a9.077,9.077,0,0,0,1.121-1.445,2.322,2.322,0,0,0,.363-1.172,1.737,1.737,0,0,0-.383-1.191,1.382,1.382,0,0,0-1.094-.434,1.49,1.49,0,0,0-1.207.527,2.089,2.089,0,0,0-.441,1.387h-2.266a3.729,3.729,0,0,1,.5-1.9,3.5,3.5,0,0,1,1.4-1.348,4.262,4.262,0,0,1,2.055-.488,4.036,4.036,0,0,1,2.73.844A2.985,2.985,0,0,1,382,6.7a3.825,3.825,0,0,1-.437,1.719,9.551,9.551,0,0,1-1.5,2.039L377.48,13.18h4.891Zm9.18,0h-7.8V13.453l3.68-3.922a9.077,9.077,0,0,0,1.121-1.445,2.322,2.322,0,0,0,.363-1.172,1.737,1.737,0,0,0-.383-1.191,1.382,1.382,0,0,0-1.094-.434,1.49,1.49,0,0,0-1.207.527,2.089,2.089,0,0,0-.441,1.387h-2.266a3.729,3.729,0,0,1,.5-1.9,3.5,3.5,0,0,1,1.4-1.348,4.262,4.262,0,0,1,2.055-.488,4.036,4.036,0,0,1,2.73.844,2.985,2.985,0,0,1,.973,2.383,3.825,3.825,0,0,1-.437,1.719,9.551,9.551,0,0,1-1.5,2.039L386.66,13.18h4.891Zm2.063,2.852-1.18-.617.281-.508a4.059,4.059,0,0,0,.539-1.9v-1.75h1.906l-.008,1.563a4.059,4.059,0,0,1-.437,1.75A4.487,4.487,0,0,1,393.613,17.852Zm9.906-7.133h1.289v1.82H403.52V15h-2.258V12.539H396.6l-.1-1.422,4.742-7.492h2.281Zm-4.773,0h2.516V6.7l-.148.258ZM411.5,15h-2.258V6.3l-2.7.836V5.3l4.711-1.687h.242ZM213.492,39h-7.8V37.453l3.68-3.922a9.078,9.078,0,0,0,1.121-1.445,2.322,2.322,0,0,0,.363-1.172,1.738,1.738,0,0,0-.383-1.191,1.382,1.382,0,0,0-1.094-.434,1.49,1.49,0,0,0-1.207.527,2.089,2.089,0,0,0-.441,1.387h-2.266a3.729,3.729,0,0,1,.5-1.9,3.5,3.5,0,0,1,1.4-1.348,4.262,4.262,0,0,1,2.055-.488,4.036,4.036,0,0,1,2.73.844,2.985,2.985,0,0,1,.973,2.383,3.825,3.825,0,0,1-.437,1.719,9.552,9.552,0,0,1-1.5,2.039L208.6,37.18h4.891Zm9.039-4.7a5.762,5.762,0,0,1-.977,3.609,3.9,3.9,0,0,1-5.7.023,5.594,5.594,0,0,1-1.008-3.516V32.32a5.687,5.687,0,0,1,.988-3.617,3.91,3.91,0,0,1,5.691-.012,5.576,5.576,0,0,1,1.008,3.512Zm-2.258-2.3a4.165,4.165,0,0,0-.387-2.061,1.307,1.307,0,0,0-1.207-.645,1.284,1.284,0,0,0-1.176.614,3.9,3.9,0,0,0-.4,1.92v2.768a4.372,4.372,0,0,0,.379,2.068,1.29,1.29,0,0,0,1.215.676,1.268,1.268,0,0,0,1.2-.649,4.268,4.268,0,0,0,.383-1.986Zm7.734-2.182a2.249,2.249,0,0,1,.68-1.7,2.465,2.465,0,0,1,1.781-.652,2.5,2.5,0,0,1,1.8.645,2.292,2.292,0,0,1,.68,1.746v.563a2.221,2.221,0,0,1-.68,1.7,2.806,2.806,0,0,1-3.574,0,2.275,2.275,0,0,1-.684-1.738Zm1.5.6a1.053,1.053,0,0,0,.27.754.928.928,0,0,0,.707.285.885.885,0,0,0,.7-.289,1.119,1.119,0,0,0,.258-.773v-.578a1.1,1.1,0,0,0-.258-.758,1,1,0,0,0-1.406,0,1.119,1.119,0,0,0-.266.793Zm3.938,5.8a2.22,2.22,0,0,1,.688-1.7,2.5,2.5,0,0,1,1.781-.645,2.525,2.525,0,0,1,1.793.637,2.279,2.279,0,0,1,.684,1.754v.563a2.237,2.237,0,0,1-.672,1.691,2.476,2.476,0,0,1-1.789.645,2.506,2.506,0,0,1-1.8-.648,2.265,2.265,0,0,1-.68-1.719Zm1.5.609a1.044,1.044,0,0,0,.281.734.917.917,0,0,0,.7.3q.953,0,.953-1.055v-.594a1.062,1.062,0,0,0-.266-.754,1.009,1.009,0,0,0-1.406,0,1.1,1.1,0,0,0-.266.777Zm-4.016,1.328-1.1-.594,5.555-8.891,1.1.594Z" transform="translate(-8723 -6944)" fill="#12263f"/>
    <path id="Trazado_191050" data-name="Trazado 191050" d="M-8562.974-7187.218h124.317" transform="translate(-7.027 266)" fill="none" stroke="#13273e" stroke-width="1"/>
  </g>
</svg>
